<svg width="15" height="17" viewBox="0 0 15 17" fill="none" xmlns="http://www.w3.org/2000/svg">
<g clip-path="url(#clip0_670_3825)">
<path d="M4.78125 15.9135C4.25055 15.9132 3.73977 15.713 3.35225 15.3534C2.96472 14.9938 2.72939 14.5016 2.69386 13.9765L2.07495 4.50252H1.14657C1.0802 4.50612 1.01379 4.49626 0.951396 4.47355C0.888999 4.45084 0.831925 4.41576 0.78366 4.37043C0.735395 4.32511 0.696953 4.27051 0.670681 4.20996C0.644409 4.1494 0.630859 4.08418 0.630859 4.01825C0.630859 3.95233 0.644409 3.88711 0.670681 3.82655C0.696953 3.766 0.735395 3.7114 0.78366 3.66608C0.831925 3.62075 0.888999 3.58567 0.951396 3.56296C1.01379 3.54025 1.0802 3.53039 1.14657 3.53399H3.77405V2.4149C3.77424 2.21242 3.81464 2.01196 3.89295 1.82497C3.97125 1.63798 4.08592 1.46812 4.23041 1.32508C4.37491 1.18204 4.54639 1.06863 4.73507 0.991323C4.92376 0.914015 5.12595 0.874322 5.3301 0.874512H9.48736C9.89916 0.874896 10.294 1.03731 10.5852 1.3261C10.8764 1.6149 11.0401 2.00648 11.0405 2.4149V3.53399H13.668C13.7343 3.53039 13.8008 3.54025 13.8631 3.56296C13.9255 3.58567 13.9826 3.62075 14.0309 3.66608C14.0791 3.7114 14.1176 3.766 14.1439 3.82655C14.1701 3.88711 14.1837 3.95233 14.1837 4.01825C14.1837 4.08418 14.1701 4.1494 14.1439 4.20996C14.1176 4.27051 14.0791 4.32511 14.0309 4.37043C13.9826 4.41576 13.9255 4.45084 13.8631 4.47355C13.8008 4.49626 13.7343 4.50612 13.668 4.50252H12.7425L12.1236 13.9765C12.0881 14.5016 11.8527 14.9938 11.4652 15.3534C11.0777 15.713 10.5669 15.9132 10.0362 15.9135H4.78125ZM3.67479 13.9157C3.69331 14.1942 3.81792 14.4554 4.02337 14.6463C4.22882 14.8371 4.49975 14.9434 4.78125 14.9435H10.0362C10.318 14.9434 10.5891 14.8369 10.7946 14.6458C11.0001 14.4546 11.1245 14.193 11.1427 13.9142L11.7572 4.50397H3.05587L3.67479 13.9157ZM5.3301 1.84449C5.17827 1.84673 5.0333 1.90755 4.92593 2.01404C4.81856 2.12053 4.75724 2.26431 4.75498 2.4149V3.53399H10.0639V2.4149C10.0616 2.26282 9.99912 2.11775 9.88986 2.01102C9.78061 1.90429 9.63341 1.84447 9.48006 1.84449H5.3301Z" fill="black"/>
<path d="M5.78393 12.4562C5.71971 12.4562 5.65612 12.4437 5.59679 12.4193C5.53746 12.3949 5.48356 12.3592 5.43815 12.3142C5.39274 12.2691 5.35672 12.2157 5.33215 12.1568C5.30757 12.098 5.29492 12.0349 5.29492 11.9712V6.65662C5.29492 6.52799 5.34644 6.40463 5.43815 6.31368C5.52985 6.22273 5.65423 6.17163 5.78393 6.17163C5.91362 6.17163 6.038 6.22273 6.1297 6.31368C6.22141 6.40463 6.27293 6.52799 6.27293 6.65662V11.9712C6.27293 12.0999 6.22141 12.2232 6.1297 12.3142C6.038 12.4051 5.91362 12.4562 5.78393 12.4562Z" fill="black"/>
<path d="M9.03588 12.4562C8.90619 12.4562 8.78181 12.4051 8.6901 12.3142C8.59839 12.2232 8.54688 12.0999 8.54688 11.9712V6.65662C8.54688 6.52799 8.59839 6.40463 8.6901 6.31368C8.78181 6.22273 8.90619 6.17163 9.03588 6.17163C9.16557 6.17163 9.28995 6.22273 9.38166 6.31368C9.47336 6.40463 9.52488 6.52799 9.52488 6.65662V11.9712C9.52488 12.0999 9.47336 12.2232 9.38166 12.3142C9.28995 12.4051 9.16557 12.4562 9.03588 12.4562Z" fill="black"/>
</g>
<defs>
<clipPath id="clip0_670_3825">
<rect width="14.5971" height="15.8135" fill="white" transform="translate(0.111328 0.584961)"/>
</clipPath>
</defs>
</svg>
