<svg width="15" height="15" viewBox="0 0 15 15" fill="none" xmlns="http://www.w3.org/2000/svg">
<g clip-path="url(#clip0_670_2994)">
<path d="M2.8125 11.7188H3.28125V12.1875C3.28195 12.8089 3.5291 13.4046 3.96849 13.844C4.40788 14.2834 5.00361 14.5306 5.625 14.5312H12.1875C12.8089 14.5306 13.4046 14.2834 13.844 13.844C14.2834 13.4046 14.5306 12.8089 14.5312 12.1875V5.625C14.5306 5.00361 14.2834 4.40788 13.844 3.96849C13.4046 3.5291 12.8089 3.28195 12.1875 3.28125H11.7188V2.8125C11.7181 2.19111 11.4709 1.59538 11.0315 1.15599C10.5921 0.716602 9.99639 0.469448 9.375 0.46875H2.8125C2.19111 0.469448 1.59538 0.716602 1.15599 1.15599C0.716602 1.59538 0.469448 2.19111 0.46875 2.8125V9.375C0.469448 9.99639 0.716602 10.5921 1.15599 11.0315C1.59538 11.4709 2.19111 11.7181 2.8125 11.7188ZM13.5938 5.625V12.1875C13.5934 12.5603 13.4451 12.9178 13.1814 13.1814C12.9178 13.4451 12.5603 13.5934 12.1875 13.5938H5.625C5.25216 13.5934 4.8947 13.4451 4.63106 13.1814C4.36742 12.9178 4.21914 12.5603 4.21875 12.1875V5.625C4.21914 5.25216 4.36742 4.8947 4.63106 4.63106C4.8947 4.36742 5.25216 4.21914 5.625 4.21875H12.1875C12.5603 4.21914 12.9178 4.36742 13.1814 4.63106C13.4451 4.8947 13.5934 5.25216 13.5938 5.625ZM1.40625 2.8125C1.40664 2.43966 1.55492 2.0822 1.81856 1.81856C2.0822 1.55492 2.43966 1.40664 2.8125 1.40625H9.375C9.74784 1.40664 10.1053 1.55492 10.3689 1.81856C10.6326 2.0822 10.7809 2.43966 10.7812 2.8125V3.28125H5.625C5.00361 3.28195 4.40788 3.5291 3.96849 3.96849C3.5291 4.40788 3.28195 5.00361 3.28125 5.625V10.7812H2.8125C2.43966 10.7809 2.0822 10.6326 1.81856 10.3689C1.55492 10.1053 1.40664 9.74784 1.40625 9.375V2.8125Z" fill="white"/>
<path d="M10.7812 8.4375H9.375V7.03125C9.375 6.90693 9.32561 6.7877 9.23771 6.69979C9.1498 6.61189 9.03057 6.5625 8.90625 6.5625C8.78193 6.5625 8.6627 6.61189 8.57479 6.69979C8.48689 6.7877 8.4375 6.90693 8.4375 7.03125V8.4375H7.03125C6.90693 8.4375 6.7877 8.48689 6.69979 8.57479C6.61189 8.6627 6.5625 8.78193 6.5625 8.90625C6.5625 9.03057 6.61189 9.1498 6.69979 9.23771C6.7877 9.32561 6.90693 9.375 7.03125 9.375H8.4375V10.7812C8.4375 10.9056 8.48689 11.0248 8.57479 11.1127C8.6627 11.2006 8.78193 11.25 8.90625 11.25C9.03057 11.25 9.1498 11.2006 9.23771 11.1127C9.32561 11.0248 9.375 10.9056 9.375 10.7812V9.375H10.7812C10.9056 9.375 11.0248 9.32561 11.1127 9.23771C11.2006 9.1498 11.25 9.03057 11.25 8.90625C11.25 8.78193 11.2006 8.6627 11.1127 8.57479C11.0248 8.48689 10.9056 8.4375 10.7812 8.4375Z" fill="white"/>
</g>
<defs>
<clipPath id="clip0_670_2994">
<rect width="15" height="15" fill="white"/>
</clipPath>
</defs>
</svg>
