<svg width="59" height="62" viewBox="0 0 59 62" fill="none" xmlns="http://www.w3.org/2000/svg">
<path d="M51.3475 39.5307L53.1702 38.2499C53.9866 37.6728 54.8241 37.1379 55.5982 36.5186C56.259 36.0118 56.7805 35.3458 57.114 34.5827C57.4475 33.8197 57.5822 32.9846 57.5054 32.1554C57.3787 30.1426 57.2168 28.1369 57.0761 26.1312C56.8861 23.5344 56.689 20.9305 56.499 18.3336C56.5029 18.2939 56.5029 18.2538 56.499 18.214H55.1337C55.1337 18.3336 55.1337 18.4251 55.1337 18.5166C55.1337 19.2204 55.1337 19.8819 55.1337 20.5575C55.1448 20.7631 55.1126 20.9688 55.0392 21.1612C54.9657 21.3536 54.8527 21.5284 54.7074 21.6744C54.5621 21.8203 54.3878 21.9341 54.1958 22.0084C54.0037 22.0828 53.7982 22.1159 53.5925 22.1058C52.9802 22.1058 52.368 22.1058 51.7627 22.1058C51.5592 22.1169 51.3557 22.0851 51.1653 22.0123C50.975 21.9395 50.8021 21.8274 50.658 21.6833C50.5139 21.5392 50.4018 21.3664 50.329 21.176C50.2562 20.9857 50.2244 20.7821 50.2356 20.5786C50.2356 19.6403 50.2356 18.7019 50.2356 17.7636C50.2421 17.6869 50.228 17.6099 50.1945 17.5405C50.1611 17.4712 50.1097 17.4121 50.0456 17.3695C49.4727 16.953 49.0066 16.4068 48.6852 15.7757C48.3638 15.1446 48.1962 14.4464 48.1962 13.7381C48.1962 13.0299 48.3638 12.3317 48.6852 11.7005C49.0066 11.0694 49.4727 10.5233 50.0456 10.1067C50.1152 10.0651 50.1719 10.0048 50.2092 9.93271C50.2465 9.8606 50.263 9.77951 50.2567 9.69857C50.2567 7.029 50.2567 4.36177 50.2567 1.69689C50.2314 1.48117 50.2539 1.26252 50.3227 1.0565C50.3914 0.850482 50.5048 0.662153 50.6546 0.50492C50.8045 0.347686 50.9871 0.225413 51.1896 0.146802C51.3921 0.0681912 51.6094 0.0351751 51.8261 0.0501035C52.4031 0.0501035 52.9802 0.0501035 53.5503 0.0501035C53.7611 0.0364523 53.9724 0.0681682 54.17 0.143113C54.3675 0.218057 54.5467 0.334488 54.6954 0.484553C54.8442 0.634619 54.959 0.814831 55.0322 1.01304C55.1053 1.21124 55.1352 1.42284 55.1196 1.63355C55.1196 4.05446 55.1196 6.47538 55.1196 8.90333C55.1196 9.14964 55.197 9.21298 55.4293 9.19891C55.7431 9.17421 56.0585 9.17421 56.3723 9.19891C56.8428 9.23943 57.2809 9.45494 57.6001 9.80285C57.9194 10.1508 58.0965 10.6058 58.0965 11.0779C58.0965 12.8092 58.0965 14.5474 58.0965 16.2787C58.0859 16.7111 57.9353 17.1285 57.6672 17.468C57.5831 17.5717 57.536 17.7005 57.5335 17.834C57.6813 19.9452 57.8432 22.0565 57.998 24.1678C58.1059 25.6597 58.2138 27.154 58.3217 28.6507L58.554 31.9091C58.6713 32.9939 58.4924 34.0903 58.0364 35.0816C57.5804 36.073 56.8643 36.9222 55.9641 37.5391C54.6622 38.4892 53.3321 39.397 52.009 40.3541C51.8331 40.4808 51.7557 40.5793 51.8753 40.7904C51.9908 41.0185 52.0919 41.2535 52.1779 41.4942C52.3437 41.8304 52.3748 42.2172 52.2649 42.5756C52.155 42.934 51.9125 43.2369 51.5868 43.4225L44.9011 47.7224L41.9524 49.6155C41.8802 49.653 41.8208 49.7112 41.782 49.7827C41.7431 49.8542 41.7265 49.9357 41.7342 50.0166C41.7342 50.9808 41.7342 51.952 41.7342 52.9161V53.2398C41.6568 53.2398 41.5794 53.2398 41.5442 53.2398C41.509 53.2398 41.3261 53.4369 41.3261 53.5284C41.3261 53.6199 41.4668 53.7395 41.5583 53.831C41.6143 53.8688 41.6761 53.8974 41.7413 53.9154V53.9999H41.4246V55.6396C41.7553 55.7452 41.7553 55.7452 41.7553 56.1112C41.7553 56.2308 41.7553 56.3575 41.7553 56.4771C41.7664 56.562 41.7562 56.6483 41.7254 56.7282C41.6947 56.8081 41.6445 56.879 41.5794 56.9346C41.4587 57.0647 41.3917 57.2356 41.3917 57.4131C41.3917 57.5906 41.4587 57.7615 41.5794 57.8917C41.6625 57.9917 41.714 58.1142 41.7272 58.2435C41.7763 58.6659 41.7392 59.0938 41.6182 59.5014C41.4973 59.9091 41.2949 60.2879 41.0234 60.6152C40.7615 60.9321 40.4325 61.1868 40.06 61.3608C39.6876 61.5349 39.2811 61.6239 38.87 61.6216C37.3217 61.6216 35.7664 61.6216 34.2181 61.6216C33.4926 61.6296 32.7729 61.4902 32.1028 61.212C31.4326 60.9338 30.8259 60.5225 30.3193 60.0029C29.9112 59.6018 29.5241 59.1936 29.1018 58.7714C28.7077 59.1725 28.3418 59.5384 27.9758 59.9185C27.4485 60.479 26.8083 60.9213 26.0974 61.2161C25.3865 61.5109 24.6211 61.6515 23.8518 61.6286C22.381 61.6286 20.9101 61.6286 19.4323 61.6286C19.0455 61.6382 18.6607 61.5693 18.3013 61.4261C17.9418 61.2829 17.6151 61.0683 17.3408 60.7954C17.0666 60.5225 16.8505 60.1968 16.7055 59.838C16.5606 59.4793 16.4899 59.0949 16.4976 58.708C16.4976 55.8085 16.4976 52.9067 16.4976 50.0026C16.5041 49.9045 16.4824 49.8067 16.435 49.7206C16.3876 49.6345 16.3165 49.5639 16.2302 49.517C13.1806 47.5183 10.1216 45.4939 7.05322 43.4436C6.87972 43.35 6.72648 43.223 6.60235 43.0699C6.47823 42.9167 6.38568 42.7405 6.33006 42.5514C6.27444 42.3623 6.25684 42.164 6.27829 41.9681C6.29975 41.7721 6.35981 41.5823 6.45503 41.4097C6.53735 41.1891 6.63132 40.973 6.73654 40.7623C6.82802 40.5863 6.79284 40.4949 6.63097 40.3823C5.51904 39.6152 4.42118 38.827 3.30925 38.0599C2.43751 37.5256 1.67947 36.8249 1.07835 35.9979C0.291035 34.8516 -0.0836493 33.472 0.015683 32.085C0.198659 29.4952 0.39571 26.9054 0.585724 24.3437C0.721783 22.5374 0.857842 20.7311 0.993901 18.9248C1.02558 18.7006 0.967403 18.4729 0.832038 18.2914C0.59259 17.9554 0.471315 17.5495 0.487198 17.1373C0.487198 15.3591 0.487198 13.5809 0.487198 11.8028C0.482431 11.5316 0.532328 11.2623 0.633912 11.0108C0.735496 10.7593 0.886686 10.5309 1.07846 10.3391C1.27024 10.1473 1.49868 9.99613 1.75016 9.89455C2.00163 9.79296 2.27099 9.74307 2.54216 9.74784H3.64002C3.64002 9.61412 3.64002 9.50856 3.64002 9.403C3.64002 6.83664 3.64002 4.27263 3.64002 1.71096C3.59179 1.36512 3.67384 1.01371 3.87023 0.724979C4.06662 0.436253 4.36331 0.230834 4.70269 0.148629C5.71115 -0.0518848 6.74945 -0.0494923 7.75698 0.155667C8.06143 0.240805 8.32835 0.425955 8.51474 0.681287C8.70113 0.936618 8.79614 1.24726 8.78446 1.56317C8.78446 3.67444 8.78446 5.7294 8.78446 7.81251C8.78446 8.60775 8.78446 9.403 8.78446 10.1912C8.77712 10.268 8.79095 10.3453 8.82444 10.4148C8.85794 10.4843 8.90983 10.5432 8.97447 10.5853C9.58187 11.022 10.0766 11.5969 10.4179 12.2626C10.7592 12.9283 10.9372 13.6656 10.9372 14.4137C10.9372 15.1618 10.7592 15.8991 10.4179 16.5648C10.0766 17.2305 9.58187 17.8055 8.97447 18.2421C8.90042 18.2906 8.84055 18.3578 8.80099 18.4369C8.76142 18.516 8.74357 18.6043 8.74927 18.6925C8.74927 19.6919 8.74927 20.6842 8.74927 21.6765C8.76437 21.8884 8.73447 22.1011 8.66152 22.3006C8.58858 22.5002 8.47424 22.682 8.32602 22.8342C8.1778 22.9864 7.99905 23.1056 7.80152 23.1838C7.60399 23.262 7.39214 23.2975 7.1799 23.2881C6.51837 23.2881 5.8498 23.2881 5.18828 23.2881C4.98029 23.2942 4.77329 23.2571 4.58034 23.1792C4.38739 23.1014 4.21267 22.9844 4.0672 22.8356C3.92173 22.6868 3.80867 22.5095 3.73515 22.3148C3.66162 22.1202 3.62923 21.9124 3.64002 21.7046C3.64002 20.9375 3.64002 20.1704 3.64002 19.4033C3.64002 19.1922 3.57668 19.1359 3.37259 19.143C2.93626 19.143 2.49994 19.143 2.02842 19.143C2.02842 19.5159 1.96508 19.903 1.93693 20.2901C1.77507 22.8095 1.59913 25.336 1.42319 27.7991C1.31059 29.277 1.17688 30.7479 1.09946 32.2328C1.02988 33.0734 1.18014 33.9176 1.53549 34.6826C1.89083 35.4476 2.43904 36.107 3.12628 36.5961C4.43526 37.5813 5.80054 38.4892 7.13768 39.4111L7.26435 39.4814L10.0442 32.9647L9.50933 32.6902C8.94632 32.4158 8.37628 32.1554 7.82032 31.8598C7.41489 31.6616 7.07252 31.3546 6.83144 30.973C6.59035 30.5915 6.46004 30.1505 6.45503 29.6993C6.45503 28.2918 6.45503 26.8279 6.45503 25.3853C6.44174 25.2576 6.47605 25.1295 6.55138 25.0256C6.62671 24.9217 6.73776 24.8493 6.86321 24.8222C6.97368 24.7928 7.09097 24.8026 7.19498 24.8501C7.29898 24.8976 7.38322 24.9798 7.43325 25.0826C7.47935 25.2039 7.50088 25.333 7.49659 25.4627C7.49659 26.7646 7.49659 28.0736 7.49659 29.3826C7.46473 29.7415 7.55047 30.1011 7.7409 30.4071C7.93132 30.713 8.21608 30.9487 8.55222 31.0786C9.13634 31.339 9.71342 31.6416 10.2905 31.9302C10.317 31.9503 10.3473 31.9649 10.3797 31.973C10.412 31.9811 10.4456 31.9826 10.4785 31.9773C10.5114 31.972 10.5429 31.9602 10.571 31.9424C10.5992 31.9246 10.6235 31.9013 10.6424 31.8739C10.8304 31.6834 11.0658 31.5465 11.3243 31.4772C11.5828 31.408 11.8551 31.4088 12.1132 31.4798C14.3089 31.9231 16.4976 32.3665 18.7004 32.7747C19.0635 32.7972 19.4278 32.7567 19.7771 32.655C21.635 32.3313 23.4859 31.9935 25.3368 31.6557L25.5268 31.6135C25.53 31.5549 25.53 31.4961 25.5268 31.4375C25.5268 30.6916 25.5268 29.9526 25.5268 29.2137C25.5181 29.1563 25.4981 29.1012 25.4679 29.0517C25.4377 29.0021 25.3979 28.9591 25.3508 28.9251C24.5591 28.4662 23.8797 27.8363 23.3623 27.0815C22.8449 26.3266 22.5024 25.4658 22.3599 24.5619V24.5196H20.9101C20.527 24.5365 20.1446 24.4737 19.787 24.3351C19.4293 24.1966 19.1044 23.9855 18.8325 23.715C18.5607 23.4444 18.3479 23.1205 18.2077 22.7636C18.0674 22.4066 18.0027 22.0245 18.0177 21.6413C18.0177 20.8812 18.0177 20.1282 18.0177 19.3682C17.9842 18.7372 18.1677 18.1138 18.5377 17.6016C18.9078 17.0895 19.442 16.7195 20.0516 16.5531C20.2205 16.4968 20.2205 16.3983 20.2134 16.2576C20.1431 14.8437 20.334 13.429 20.7764 12.0843C21.17 10.8036 21.9078 9.65572 22.9093 8.76587C23.9109 7.87602 25.1377 7.27844 26.4557 7.03838C28.4149 6.59787 30.4523 6.64621 32.3884 7.17913C33.7953 7.51591 35.0702 8.26405 36.0503 9.32816C37.0304 10.3923 37.6715 11.7241 37.8917 13.154C38.0989 14.1818 38.1628 15.2333 38.0817 16.2787C38.0817 16.4405 38.0817 16.518 38.2718 16.5742C38.8547 16.7421 39.3656 17.0983 39.7247 17.5872C40.0837 18.0761 40.2707 18.6702 40.2563 19.2767V21.7398C40.2629 22.1077 40.196 22.4733 40.0595 22.815C39.923 23.1567 39.7197 23.4678 39.4614 23.7299C39.2032 23.9921 38.8953 24.2001 38.5556 24.3417C38.216 24.4834 37.8515 24.5558 37.4836 24.5548H35.9071L35.8086 24.97C35.6355 25.7842 35.2962 26.5539 34.8118 27.2309C34.3274 27.9078 33.7084 28.4774 32.9936 28.904C32.914 28.9437 32.8484 29.0067 32.8057 29.0847C32.7629 29.1627 32.745 29.2519 32.7543 29.3403C32.7543 30.0347 32.7543 30.7385 32.7543 31.4516C32.7543 31.6276 32.8177 31.6909 32.9795 31.719C35.0908 32.0991 37.2021 32.4932 39.3133 32.845C39.6705 32.8563 40.0272 32.8088 40.3689 32.7043C42.431 32.3172 44.4929 31.9302 46.5549 31.529C46.819 31.4651 47.0952 31.4717 47.3558 31.5483C47.6165 31.6249 47.8524 31.7687 48.0399 31.9654C48.0736 31.9908 48.1128 32.0079 48.1544 32.0152C48.196 32.0225 48.2388 32.0199 48.2791 32.0076C48.9829 31.6909 49.6374 31.3672 50.2989 31.0223C50.5697 30.8854 50.7938 30.6712 50.9429 30.4069C51.092 30.1426 51.1593 29.84 51.1364 29.5374V25.0334C51.1364 24.956 51.1364 24.8785 51.1364 24.8011C51.1451 24.6735 51.2012 24.5537 51.2936 24.4651C51.386 24.3766 51.5081 24.3258 51.6361 24.3226C51.7639 24.3173 51.8894 24.3586 51.9891 24.4388C52.0887 24.5191 52.1559 24.6328 52.1779 24.7589C52.1779 24.8363 52.1779 24.9137 52.1779 24.9911V29.5163C52.2006 30.0301 52.0685 30.5389 51.7988 30.9768C51.529 31.4147 51.134 31.7615 50.6649 31.9724C50.0456 32.282 49.4263 32.5776 48.807 32.8732L48.5818 32.9999L51.3475 39.5307ZM41.3683 48.6795C41.495 48.6091 41.5442 48.588 41.5935 48.5528L51.0027 42.5006C51.2842 42.3176 51.3334 42.1698 51.1927 41.839L47.3291 32.831C47.3162 32.7683 47.2897 32.7092 47.2514 32.6579C47.2132 32.6066 47.1641 32.5643 47.1077 32.5341C47.0513 32.5039 46.9889 32.4864 46.925 32.483C46.8611 32.4796 46.7972 32.4903 46.7379 32.5143L40.0593 33.781C39.971 33.7878 39.8876 33.8242 39.8225 33.8842C39.7574 33.9442 39.7144 34.0244 39.7004 34.1118C39.2837 35.4828 39.0471 36.9023 38.9966 38.3343C38.9115 40.9345 39.3272 43.5269 40.2212 45.9701C40.5871 46.8779 40.9883 47.7717 41.3683 48.7077V48.6795ZM16.8143 48.6373C16.8407 48.6197 16.8644 48.5983 16.8847 48.574C16.9199 48.5106 16.948 48.4473 16.9832 48.391C18.241 45.8438 18.9893 43.0755 19.1859 40.2415C19.3434 38.1777 19.1338 36.1024 18.5666 34.1118C18.5486 34.0117 18.4982 33.9204 18.4232 33.8517C18.3482 33.7831 18.2527 33.7409 18.1514 33.7318C16.0824 33.3306 14.0204 32.9154 11.9514 32.5072C11.515 32.4158 11.4095 32.5072 11.2476 32.8662C9.97615 35.8407 8.7047 38.8199 7.43325 41.8038C7.27139 42.1839 7.31361 42.3105 7.66549 42.5428L14.9775 47.4128L16.8143 48.6373ZM23.3733 18.4392V18.6433C23.3733 20.2971 23.3733 21.958 23.3733 23.6118C23.362 24.5749 23.6334 25.5202 24.1537 26.3307C24.674 27.1412 25.4205 27.7814 26.3009 28.1721C27.6834 28.7666 29.22 28.9023 30.6853 28.5592C31.8789 28.3708 32.964 27.7567 33.7402 26.8305C34.5164 25.9043 34.9311 24.7285 34.9078 23.5203C34.9078 21.8454 34.9078 20.1704 34.9078 18.5025C34.9179 18.4344 34.9006 18.3651 34.8597 18.3097C34.8189 18.2543 34.7577 18.2174 34.6897 18.207C34.1721 18.0592 33.6922 17.8025 33.2821 17.4539C32.518 16.8027 31.9909 15.9168 31.7831 14.9345C31.7725 14.8588 31.7392 14.7881 31.6878 14.7316C31.6363 14.6751 31.569 14.6355 31.4946 14.6178C31.165 14.4829 30.8007 14.4579 30.4558 14.5467C30.1109 14.6355 29.8039 14.8332 29.5804 15.1104L28.6866 16.1027C27.9192 16.9932 26.9093 17.6411 25.7801 17.9677C24.999 18.1999 24.2108 18.2984 23.3733 18.4673V18.4392ZM21.262 16.4194H21.8321C22.1079 16.4015 22.3832 16.4621 22.626 16.5941C22.8689 16.7261 23.0694 16.9242 23.2044 17.1654C23.2342 17.2027 23.2715 17.2333 23.314 17.2551C23.3564 17.277 23.403 17.2896 23.4507 17.2921C23.7603 17.2921 24.063 17.2499 24.3656 17.2076C25.6428 17.0685 26.8307 16.4857 27.7225 15.5608C28.0814 15.1738 28.4262 14.7726 28.7992 14.3856C29.1863 13.946 29.7044 13.6425 30.2771 13.52C31.0232 13.4079 31.7856 13.5387 32.4517 13.8929C32.5842 13.9981 32.6782 14.1441 32.7191 14.3082C32.8388 14.66 32.888 15.0119 33.0288 15.3849C33.1948 15.829 33.4628 16.2278 33.8111 16.5493C34.1595 16.8708 34.5786 17.1059 35.0345 17.2358C35.1329 17.0487 35.2707 16.8851 35.4383 16.7563C35.606 16.6276 35.7995 16.5366 36.0057 16.4898C36.2384 16.4535 36.4743 16.4417 36.7094 16.4546C36.9276 16.4546 37.005 16.4053 37.0191 16.1731C37.0888 15.1635 37.0129 14.1491 36.7939 13.161C36.6087 12.0746 36.1328 11.0586 35.4165 10.221C34.7003 9.38338 33.7706 8.75536 32.7262 8.40366C30.4855 7.61808 28.0474 7.59828 25.7942 8.34736C25.0007 8.59737 24.2679 9.00997 23.6427 9.55887C23.0175 10.1078 22.5135 10.7809 22.1628 11.5354C21.6508 12.6165 21.359 13.7887 21.3042 14.9838C21.2691 15.4834 21.2902 15.9409 21.2902 16.4476L21.262 16.4194ZM29.6578 52.7261H30.0097C31.185 52.7261 32.3602 52.7261 33.5285 52.7261C34 52.7261 33.9366 52.7261 33.9366 52.325V33.2743C33.9331 33.2228 33.9331 33.1711 33.9366 33.1195C33.9366 32.9576 33.8733 32.9013 33.7325 32.8802C33.3877 32.8239 33.0288 32.7747 32.7051 32.6902C32.6677 32.6771 32.628 32.6716 32.5885 32.674C32.5489 32.6765 32.5102 32.6869 32.4748 32.7047C32.4393 32.7224 32.4078 32.7471 32.3821 32.7772C32.3563 32.8074 32.3369 32.8424 32.325 32.8802C31.4805 34.4355 30.629 35.9838 29.7915 37.5391C29.7 37.7051 29.6516 37.8914 29.6508 38.081C29.6508 42.8477 29.6508 47.6122 29.6508 52.3742L29.6578 52.7261ZM28.5811 52.7261C28.5811 52.6205 28.5811 52.5572 28.5811 52.4868V38.0036C28.5811 37.8661 28.5472 37.7308 28.4825 37.6095C27.6169 36.0049 26.7372 34.4144 25.8716 32.8099C25.8493 32.7498 25.8046 32.7008 25.7468 32.6732C25.6889 32.6456 25.6227 32.6416 25.562 32.6621C25.2323 32.7407 24.8987 32.8017 24.5626 32.845C24.3515 32.845 24.2952 32.9506 24.2952 33.1547C24.2952 39.5823 24.2952 46.0076 24.2952 52.4305C24.2952 52.6698 24.3797 52.712 24.5978 52.712C25.5268 52.712 26.4628 52.712 27.4128 52.712L28.5811 52.7261ZM35.0204 52.7261H35.1541H40.4604C40.6434 52.7261 40.6786 52.6487 40.6786 52.4868C40.6786 51.6001 40.6786 50.7063 40.6786 49.8196C40.6791 49.6905 40.6502 49.5629 40.5942 49.4466C39.8491 47.9958 39.2481 46.4754 38.7996 44.9074C37.8396 41.6488 37.7042 38.2028 38.4055 34.8789C38.4829 34.52 38.5814 34.1751 38.6799 33.781L35.0204 33.1195V52.7261ZM17.6095 52.712H23.2396V33.1125L19.58 33.774C19.58 33.8936 19.6223 33.9781 19.6504 34.0625C20.3503 36.6804 20.4918 39.4163 20.0656 42.0924C19.6704 44.638 18.8646 47.1027 17.6799 49.3903C17.6299 49.4715 17.5986 49.5629 17.5884 49.6577C17.6095 50.6711 17.6095 51.6775 17.6095 52.712ZM17.6095 53.7958V54.0843C17.6095 55.6467 17.6095 57.202 17.6095 58.7643C17.6028 59.0089 17.6458 59.2524 17.7359 59.4799C17.826 59.7074 17.9614 59.9143 18.1337 60.088C18.3061 60.2617 18.512 60.3986 18.7388 60.4904C18.9656 60.5822 19.2087 60.6271 19.4534 60.6222C21.0087 60.6222 22.5569 60.6222 24.1122 60.6222C25.1542 60.6247 26.159 60.2353 26.9272 59.5314C27.4762 59.0317 27.9829 58.4969 28.5037 57.962C28.5727 57.8683 28.6097 57.7548 28.6092 57.6383C28.6092 56.449 28.6092 55.2667 28.6092 54.0843C28.6092 53.9858 28.6092 53.8943 28.6092 53.7958H17.6095ZM29.686 53.7958C29.686 55.14 29.686 56.456 29.686 57.772C29.7022 57.8646 29.7493 57.949 29.8197 58.0113C30.2701 58.4687 30.7205 58.9262 31.185 59.3766C31.9955 60.174 33.0881 60.6191 34.2252 60.6152H38.7222C38.9892 60.6368 39.2577 60.5998 39.5089 60.5067C39.7601 60.4136 39.9879 60.2667 40.1763 60.0763C40.3647 59.8859 40.5092 59.6565 40.5996 59.4044C40.69 59.1522 40.7242 58.8833 40.6997 58.6165V54.0773C40.6997 53.9858 40.6997 53.8943 40.6997 53.8028L29.686 53.7958ZM4.52675 10.7612H2.61957C2.47703 10.7466 2.33302 10.7641 2.19817 10.8126C2.06331 10.861 1.94105 10.9391 1.8404 11.0411C1.73976 11.1431 1.6633 11.2664 1.61667 11.4019C1.57004 11.5373 1.55442 11.6816 1.57098 11.8239C1.57098 13.5692 1.57098 15.3427 1.57098 17.0528C1.55782 17.1944 1.57615 17.3372 1.62465 17.4708C1.67315 17.6045 1.75063 17.7258 1.85152 17.826C1.95241 17.9263 2.07422 18.0029 2.20823 18.0505C2.34223 18.0981 2.4851 18.1155 2.62661 18.1014H6.20872C7.13372 18.1006 8.02437 17.7508 8.70276 17.122C9.38116 16.4932 9.79736 15.6316 9.86824 14.7093C9.93676 13.8046 9.66416 12.9071 9.1041 12.1933C8.54404 11.4796 7.73709 11.0013 6.8421 10.8527C6.07281 10.7763 5.29966 10.7458 4.52675 10.7612ZM57.0198 13.71V11.2609C57.0398 11.1213 57.027 10.979 56.9824 10.8452C56.9379 10.7114 56.8628 10.5899 56.7631 10.4901C56.6633 10.3904 56.5418 10.3153 56.408 10.2708C56.2742 10.2262 56.1319 10.2134 55.9923 10.2334C54.9085 10.2334 53.8318 10.2334 52.748 10.2334C52.4352 10.2299 52.1231 10.2653 51.819 10.339C51.0047 10.5383 50.2914 11.0287 49.8136 11.7176C49.3358 12.4065 49.1265 13.2464 49.2252 14.079C49.3238 14.9115 49.7236 15.6792 50.3492 16.2374C50.9748 16.7956 51.7829 17.1056 52.6213 17.1091C53.7684 17.1091 54.9226 17.1091 56.0697 17.1091C56.1946 17.1193 56.3203 17.1027 56.4383 17.0603C56.5563 17.018 56.6639 16.9509 56.7539 16.8636C56.8438 16.7763 56.9141 16.6708 56.9599 16.5542C57.0058 16.4375 57.0262 16.3124 57.0198 16.1872V13.71ZM7.69364 9.95896C7.69364 9.86747 7.69364 9.80414 7.69364 9.74784C7.69364 7.04542 7.69364 4.343 7.69364 1.64059C7.70433 1.56881 7.69805 1.49552 7.6753 1.42661C7.65256 1.35769 7.61398 1.29507 7.56266 1.24375C7.51135 1.19243 7.44872 1.15386 7.37981 1.13111C7.31089 1.10837 7.23761 1.10208 7.16583 1.11277C6.5606 1.11277 5.96241 1.11277 5.35718 1.11277C4.75195 1.11277 4.70269 1.25352 4.70269 1.78134C4.70269 4.32893 4.70269 6.87417 4.70269 9.41707C4.70269 9.50856 4.70269 9.60005 4.70269 9.71265C5.70641 9.64042 6.71526 9.7235 7.69364 9.95896ZM26.5965 29.4952C26.5965 30.2975 26.5965 31.0786 26.5965 31.8598C26.6108 31.946 26.6445 32.0278 26.695 32.0991C27.4551 33.5066 28.2222 34.9141 28.9892 36.3216C28.9892 36.392 29.0737 36.4553 29.13 36.5468L29.2567 36.3427C29.9604 35.1041 30.5938 33.8585 31.2976 32.6339C31.577 32.1909 31.7122 31.6721 31.6846 31.149C31.6846 30.6001 31.6846 30.0511 31.6846 29.5022C30.0071 29.8593 28.273 29.8569 26.5965 29.4952ZM54.0429 9.14964C54.0464 9.10749 54.0464 9.06512 54.0429 9.02297V1.59836C54.0429 1.25352 53.881 1.11277 53.5362 1.11277C52.9873 1.11277 52.4383 1.11277 51.8894 1.11277C51.3405 1.11277 51.256 1.23241 51.256 1.73911V9.31855L54.0429 9.14964ZM35.9423 20.4942V22.9995C35.9423 23.3303 36.069 23.457 36.3998 23.464H37.4202C37.8698 23.4736 38.3051 23.3065 38.6328 22.9986C38.9604 22.6906 39.1542 22.2665 39.1726 21.8172C39.1726 20.9516 39.1726 20.093 39.1726 19.2274C39.1704 18.8041 39.0093 18.3971 38.7213 18.0869C38.4332 17.7767 38.0392 17.586 37.6173 17.5525C37.2232 17.5525 36.8291 17.5525 36.442 17.5525C36.0549 17.5525 35.9423 17.6791 35.9423 18.0592V20.4942ZM22.3106 20.4942V17.9818C22.3106 17.644 22.1769 17.5102 21.8391 17.5032C21.5013 17.4962 21.1776 17.5032 20.8468 17.5032C20.6187 17.4966 20.3916 17.5358 20.1789 17.6183C19.9661 17.7009 19.7721 17.8252 19.6081 17.9839C19.4442 18.1426 19.3136 18.3325 19.2242 18.5424C19.1348 18.7524 19.0883 18.9781 19.0874 19.2063C19.0874 20.093 19.0874 20.9797 19.0874 21.8665C19.1125 22.2978 19.3013 22.7033 19.6152 23.0002C19.929 23.297 20.3444 23.4629 20.7764 23.464H21.8321C22.2262 23.464 22.3388 23.3514 22.3388 22.9432L22.3106 20.4942ZM4.71676 19.1852C4.71676 20.0789 4.71676 20.9375 4.71676 21.8031C4.71649 21.8669 4.72956 21.9301 4.75515 21.9885C4.78073 22.047 4.81825 22.0994 4.86531 22.1425C4.91236 22.1856 4.96791 22.2183 5.02838 22.2387C5.08885 22.259 5.1529 22.2665 5.21643 22.2606C5.87795 22.2606 6.53948 22.2606 7.20101 22.2606C7.27141 22.2675 7.34246 22.2584 7.40889 22.2341C7.47532 22.2098 7.53543 22.1709 7.58477 22.1202C7.63411 22.0695 7.67141 22.0083 7.69391 21.9413C7.71641 21.8742 7.72354 21.803 7.71475 21.7328V19.15C7.71475 19.0867 7.71475 19.0304 7.71475 18.9459C6.71542 19.2978 5.72313 19.1218 4.71676 19.1852ZM51.2771 18.0803C51.2771 18.9107 51.2771 19.7763 51.2771 20.649C51.2771 20.9164 51.4671 21.0501 51.7557 21.0501H53.5362C53.9092 21.0501 54.0499 20.9023 54.057 20.5223C54.057 20.0226 54.057 19.53 54.057 19.0304V18.2562L51.2771 18.0803Z" fill="#337299"/>
</svg>
