<svg width="67" height="81" viewBox="0 0 67 81" fill="none" xmlns="http://www.w3.org/2000/svg">
<path d="M66 50.5493C65.4815 49.69 64.7287 48.9962 63.83 48.5493C61.5 47.2393 56.22 44.8193 54.65 44.1093C54.5552 44.0643 54.4749 43.9936 54.4183 43.9052C54.3617 43.8168 54.3311 43.7143 54.33 43.6093V40.6793C54.33 40.4406 54.2352 40.2117 54.0664 40.0429C53.8976 39.8741 53.6687 39.7793 53.43 39.7793H52.49C52.2656 39.7786 52.0492 39.8627 51.8842 40.0148C51.7192 40.1668 51.6177 40.3756 51.6 40.5993L51.51 41.5993C51.5043 41.6903 51.4756 41.7784 51.4267 41.8554C51.3777 41.9323 51.3101 41.9956 51.23 42.0393C51.1498 42.0814 51.0606 42.1033 50.97 42.1033C50.8795 42.1033 50.7902 42.0814 50.71 42.0393L40.08 36.5693C39.9882 36.5251 39.9111 36.4554 39.8579 36.3685C39.8047 36.2816 39.7776 36.1812 39.78 36.0793C39.78 32.7093 39.9 21.6393 39.6 20.7093C39.52 20.4793 39.37 19.8093 39.18 18.9693C38.18 14.3793 37.39 11.6393 36.61 11.3593V0.879318C36.61 0.834232 36.5921 0.790993 36.5602 0.759112C36.5284 0.72723 36.4851 0.709318 36.44 0.709318C36.4173 0.707849 36.3946 0.71124 36.3733 0.719263C36.352 0.727287 36.3326 0.739759 36.3165 0.755848C36.3005 0.771937 36.288 0.791272 36.28 0.812563C36.2719 0.833855 36.2685 0.856613 36.27 0.879318V11.3893C35 11.9993 33.6 18.0693 33.44 20.7793C33.32 22.6493 33.21 23.3693 33.15 23.7793C33.1128 23.9671 33.0927 24.1579 33.09 24.3493C33.09 24.8393 33.09 35.1893 33.03 35.9293C33.03 35.9293 33.03 35.9993 33.03 36.0293C33.0405 36.1405 33.0176 36.2522 32.9641 36.3502C32.9107 36.4482 32.8292 36.528 32.73 36.5793L22.25 41.8393C22.1676 41.8858 22.0746 41.9102 21.98 41.9102C21.8854 41.9102 21.7924 41.8858 21.71 41.8393C21.6308 41.789 21.5654 41.7197 21.52 41.6375C21.4746 41.5554 21.4505 41.4632 21.45 41.3693V40.7993C21.448 40.5724 21.3603 40.3546 21.2046 40.1896C21.0488 40.0245 20.8364 39.9244 20.61 39.9093L19.46 39.8293C19.2183 39.8162 18.9812 39.8988 18.8 40.0593C18.7097 40.1383 18.6365 40.235 18.5849 40.3433C18.5333 40.4517 18.5044 40.5694 18.5 40.6893L18.38 43.2893C18.3786 43.3878 18.3498 43.4839 18.2968 43.567C18.2438 43.65 18.1688 43.7166 18.08 43.7593C15.08 45.2693 7.89002 48.8593 7.43002 49.6193C7.32002 49.8093 7.19002 49.9993 7.05002 50.2093C6.60002 50.8793 6.21002 51.4593 6.35002 51.8393C6.38109 51.9053 6.42707 51.9631 6.48435 52.0082C6.54162 52.0534 6.60861 52.0845 6.68002 52.0993C7.01002 52.1893 9.68002 51.5493 16.21 49.9593C21.3 48.7193 27.07 47.3193 28 47.3193C29.24 47.3193 31.42 47.3993 32.61 47.4593C32.6809 47.4606 32.7509 47.4759 32.8159 47.5042C32.8809 47.5326 32.9397 47.5735 32.989 47.6245C33.0382 47.6756 33.0768 47.7359 33.1028 47.8019C33.1287 47.8679 33.1413 47.9384 33.14 48.0093V57.5893C33.1396 57.7217 33.169 57.8526 33.2261 57.972C33.2833 58.0915 33.3666 58.1966 33.47 58.2793L35.19 59.6793C35.3262 59.7964 35.4945 59.8695 35.673 59.8892C35.8515 59.9088 36.0317 59.874 36.19 59.7893C36.321 59.7045 36.4276 59.5871 36.4995 59.4486C36.5714 59.3101 36.606 59.1552 36.6 58.9993V11.7393C37.32 12.3493 38.41 17.1793 38.83 19.0593C39.03 19.9393 39.18 20.5793 39.26 20.8293C39.49 21.5293 39.5 29.4793 39.43 36.0793C39.4284 36.2465 39.4734 36.4109 39.5599 36.554C39.6465 36.697 39.7712 36.8132 39.92 36.8893L50.54 42.3493C50.671 42.4185 50.8169 42.4547 50.965 42.4547C51.1131 42.4547 51.259 42.4185 51.39 42.3493C51.5177 42.2772 51.6256 42.1747 51.7041 42.0508C51.7826 41.9269 51.8293 41.7856 51.84 41.6393L51.93 40.6393C51.9425 40.5023 52.0059 40.3749 52.1078 40.2823C52.2096 40.1898 52.3424 40.1388 52.48 40.1393H53.42C53.4931 40.138 53.5657 40.1512 53.6336 40.1783C53.7015 40.2053 53.7633 40.2456 53.8154 40.2968C53.8675 40.348 53.909 40.4091 53.9372 40.4765C53.9655 40.5439 53.98 40.6162 53.98 40.6893V43.5993C53.9787 43.7702 54.0271 43.9379 54.1195 44.0817C54.2118 44.2256 54.344 44.3394 54.5 44.4093C56.06 45.1193 61.33 47.5293 63.65 48.8293C64.4763 49.261 65.1681 49.9113 65.65 50.7093C65.6997 50.8037 65.7214 50.9103 65.7125 51.0166C65.7037 51.1229 65.6646 51.2245 65.6 51.3093C65.5358 51.3957 65.4472 51.4608 65.3456 51.4965C65.244 51.5321 65.1341 51.5366 65.03 51.5093C60.5 50.4493 45.69 46.9493 45.26 46.8093C43.5951 46.7028 41.925 46.7028 40.26 46.8093C40.0266 46.8171 39.8053 46.9154 39.6429 47.0833C39.4806 47.2512 39.3899 47.4757 39.39 47.7093C39.39 49.5593 39.39 55.8793 39.27 59.1493C39.18 62.1493 38.9 64.5993 38.78 65.5093C38.7553 65.6847 38.784 65.8635 38.8625 66.0223C38.941 66.1811 39.0656 66.3125 39.22 66.3993C40.83 67.3293 46.22 70.3993 47.33 71.3993C47.6668 71.7802 47.9106 72.234 48.0425 72.725C48.1743 73.2161 48.1906 73.731 48.09 74.2293C48.0834 74.3063 48.0603 74.3809 48.0224 74.4482C47.9844 74.5155 47.9325 74.5738 47.87 74.6193C47.8048 74.6636 47.7314 74.6944 47.6541 74.7099C47.5768 74.7253 47.4972 74.7251 47.42 74.7093L38 72.5793C37.868 72.5488 37.7308 72.5492 37.599 72.5804C37.4671 72.6116 37.3443 72.6728 37.24 72.7593C37.1359 72.8436 37.0521 72.9504 36.995 73.0716C36.9378 73.1928 36.9088 73.3253 36.91 73.4593V79.6893C36.9074 79.8361 36.8472 79.976 36.7425 80.0788C36.6378 80.1817 36.4968 80.2393 36.35 80.2393H35.86C35.7141 80.2393 35.5743 80.1814 35.4711 80.0782C35.368 79.9751 35.31 79.8352 35.31 79.6893V73.3893C35.3089 73.2548 35.2776 73.1222 35.2185 73.0013C35.1594 72.8805 35.0739 72.7744 34.9684 72.6909C34.8628 72.6074 34.7399 72.5487 34.6087 72.519C34.4774 72.4893 34.3412 72.4894 34.21 72.5193L25.56 74.5193C25.4761 74.5346 25.3898 74.5318 25.3071 74.5111C25.2243 74.4904 25.1469 74.4523 25.08 74.3993C25.0157 74.3436 24.9645 74.2744 24.9299 74.1966C24.8953 74.1188 24.8783 74.0344 24.88 73.9493C24.96 71.9493 25.19 71.4993 25.26 71.4193C25.5 71.1493 28.76 69.1193 33.56 66.2393C33.7304 66.1422 33.864 65.9915 33.9399 65.8107C34.0159 65.6299 34.03 65.429 33.98 65.2393C33.6925 63.4385 33.5155 61.6218 33.45 59.7993C33.4461 59.6817 33.4184 59.5662 33.3685 59.4596C33.3187 59.353 33.2478 59.2577 33.16 59.1793C33.0745 59.0966 32.9722 59.0333 32.86 58.9936C32.7479 58.9539 32.6285 58.9388 32.51 58.9493C27.37 59.2093 24.98 60.7593 23.88 62.0493C23.6739 61.8464 23.4419 61.6716 23.19 61.5293C20.99 60.2393 17.33 60.9693 14.11 65.5293C8.75002 73.0493 1.19002 70.7893 1.11002 70.7693C1.0679 70.7548 1.02214 70.7548 0.980019 70.7693C0.960517 70.7796 0.943343 70.7938 0.929577 70.811C0.915811 70.8282 0.90575 70.848 0.900021 70.8693C0.887025 70.9131 0.891155 70.9602 0.911579 71.001C0.932004 71.0419 0.967197 71.0734 1.01002 71.0893C1.09002 71.0893 8.90002 73.4293 14.39 65.7093C17.49 61.3793 21 60.6493 23 61.8693C23.2354 62.0016 23.4509 62.1666 23.64 62.3593C23.1893 62.9418 22.8966 63.6306 22.79 64.3593C22.7 65.1793 22.97 65.8693 23.43 66.0093C23.61 66.0593 24.07 66.0793 24.48 65.2193C24.7022 64.7568 24.7837 64.2392 24.7144 63.7308C24.6451 63.2223 24.4279 62.7455 24.09 62.3593C25.09 61.1193 27.45 59.6093 32.51 59.3593C32.5827 59.3539 32.6558 59.3635 32.7246 59.3876C32.7934 59.4117 32.8566 59.4497 32.91 59.4993C33.0163 59.5984 33.0806 59.7343 33.09 59.8793C33.1539 61.7222 33.3342 63.5592 33.63 65.3793C33.6506 65.491 33.6367 65.6062 33.5903 65.7098C33.5438 65.8134 33.467 65.9004 33.37 65.9593C30.37 67.7393 25.37 70.7893 24.98 71.2093C24.6099 72.0763 24.4522 73.0191 24.52 73.9593C24.5152 74.0972 24.5415 74.2344 24.5969 74.3608C24.6523 74.4871 24.7354 74.5994 24.84 74.6893C24.9477 74.7768 25.074 74.8385 25.2092 74.8697C25.3444 74.9009 25.4849 74.9008 25.62 74.8693L34.26 72.8693C34.3417 72.8541 34.4257 72.856 34.5066 72.875C34.5875 72.8939 34.6636 72.9294 34.73 72.9793C34.7963 73.0295 34.8498 73.0946 34.8863 73.1693C34.9228 73.244 34.9412 73.3262 34.94 73.4093V79.7093C34.94 79.827 34.9634 79.9436 35.0087 80.0522C35.0541 80.1609 35.1205 80.2594 35.2042 80.3422C35.2879 80.425 35.3872 80.4903 35.4964 80.5345C35.6055 80.5786 35.7223 80.6006 35.84 80.5993H36.33C36.4477 80.6006 36.5645 80.5786 36.6737 80.5345C36.7828 80.4903 36.8821 80.425 36.9658 80.3422C37.0495 80.2594 37.116 80.1609 37.1613 80.0522C37.2067 79.9436 37.23 79.827 37.23 79.7093V73.4593C37.2288 73.3748 37.2472 73.2911 37.2836 73.2148C37.32 73.1385 37.3736 73.0716 37.44 73.0193C37.5047 72.9697 37.579 72.9342 37.6583 72.9153C37.7376 72.8963 37.8199 72.8943 37.9 72.9093L47.34 75.0493C47.4648 75.0768 47.5939 75.0786 47.7194 75.0545C47.845 75.0305 47.9642 74.9811 48.07 74.9093C48.1709 74.8355 48.2551 74.7412 48.3171 74.6327C48.3792 74.5241 48.4176 74.4037 48.43 74.2793C48.5408 73.7267 48.5187 73.1558 48.3658 72.6133C48.2128 72.0709 47.9332 71.5726 47.55 71.1593C44.9173 69.3266 42.1938 67.6278 39.39 66.0693C39.2946 66.0158 39.2177 65.9345 39.1695 65.8363C39.1212 65.7381 39.104 65.6276 39.12 65.5193C39.24 64.6093 39.53 62.1693 39.62 59.1293C39.72 55.8593 39.73 49.5393 39.74 47.6793C39.7373 47.5351 39.7913 47.3956 39.8905 47.2909C39.9896 47.1862 40.1259 47.1245 40.27 47.1193C41.9014 47.0077 43.5386 47.0077 45.17 47.1193C45.61 47.2593 60.43 50.7593 64.97 51.8293C65.1374 51.868 65.3123 51.8574 65.4738 51.7989C65.6353 51.7403 65.7764 51.6363 65.88 51.4993C65.9896 51.3695 66.0592 51.2106 66.0805 51.0421C66.1018 50.8735 66.0739 50.7024 66 50.5493ZM35.29 13.2393C34.4219 15.6567 33.8576 18.1727 33.61 20.7293C33.8547 18.1722 34.4191 15.6559 35.29 13.2393ZM33.29 23.8193C33.29 23.9493 33.29 24.0493 33.29 24.1393C33.28 24.0493 33.3 23.9993 33.32 23.8193H33.29ZM33.23 24.3693C33.23 24.8293 33.23 33.0693 33.18 35.3693C33.22 33.0693 33.26 24.8193 33.26 24.3693H33.23ZM17.66 44.1493C16.28 44.8393 13.35 46.3193 10.99 47.5893C12.87 46.5693 15.3 45.3293 17.66 44.1493ZM7.17002 50.3293C6.96395 50.6238 6.77691 50.931 6.61002 51.2493C6.77838 50.9319 6.96537 50.6247 7.17002 50.3293ZM16.17 49.7993L10.38 51.1893C11.85 50.8493 13.73 50.3893 15.95 49.8493H16.17C21.52 48.5393 27.05 47.1893 27.95 47.1893C27.05 47.1393 21.27 48.5493 16.17 49.7993ZM35.35 59.4093L33.64 57.9993C33.5764 57.9467 33.5248 57.8811 33.4886 57.807C33.4524 57.7328 33.4324 57.6518 33.43 57.5693V47.9993C33.4328 47.7683 33.3457 47.5453 33.1871 47.3773C33.0285 47.2094 32.8108 47.1097 32.58 47.0993C31.38 47.0993 29.19 46.9593 27.95 46.9593C27.03 46.9593 21.49 48.3093 16.12 49.6193L15.91 49.6693C11.77 50.6693 7.07002 51.8293 6.76002 51.7593C6.73073 51.7685 6.69931 51.7685 6.67002 51.7593C6.59002 51.5493 7.02002 50.9093 7.34002 50.4393L7.73002 49.8393C8.04002 49.3193 13.23 46.5793 18.23 44.0993C18.3734 44.0285 18.4952 43.9207 18.5831 43.7871C18.671 43.6536 18.7217 43.499 18.73 43.3393L18.85 40.7393C18.8511 40.6653 18.8677 40.5924 18.8987 40.5253C18.9297 40.4581 18.9745 40.3982 19.03 40.3493C19.0856 40.2999 19.1505 40.2621 19.2209 40.2381C19.2913 40.214 19.3658 40.2043 19.44 40.2093L20.59 40.2893C20.7288 40.2994 20.8587 40.3618 20.9533 40.4639C21.048 40.566 21.1004 40.7001 21.1 40.8393V41.3893C21.1011 41.542 21.1409 41.6918 21.2159 41.8248C21.2908 41.9578 21.3983 42.0696 21.5283 42.1496C21.6583 42.2296 21.8065 42.2752 21.959 42.2822C22.1115 42.2891 22.2633 42.2572 22.4 42.1893L32.89 36.9493C33.0526 36.8659 33.1863 36.7354 33.2737 36.5748C33.3611 36.4143 33.3982 36.2312 33.38 36.0493V35.9993C33.38 35.2593 33.43 24.9193 33.43 24.4193C33.4335 24.2445 33.4536 24.0704 33.49 23.8993C33.55 23.4593 33.67 22.7293 33.78 20.8493C33.96 17.9393 35.32 12.7193 36.26 11.8493V58.9993C36.2614 59.1048 36.2318 59.2084 36.1749 59.2972C36.118 59.3861 36.0364 59.4563 35.94 59.4993C35.8434 59.5427 35.7364 59.5573 35.6317 59.5413C35.5271 59.5253 35.4293 59.4795 35.35 59.4093ZM36.01 59.6393C36.1757 59.5573 36.3068 59.4191 36.38 59.2493C36.3043 59.4207 36.1694 59.5592 36 59.6393H36.01ZM39 18.9993C38.51 16.7993 38 14.6793 37.52 13.2593C38.08 14.8893 38.62 17.2593 39 18.9993ZM39.14 19.6193C39.25 20.0893 39.34 20.4693 39.4 20.6793C39.34 20.4893 39.25 20.1193 39.14 19.6393V19.6193ZM39.6 35.7893C39.6 32.9193 39.72 21.9893 39.44 20.7893C39.71 21.9993 39.64 32.2093 39.6 35.8093V35.7893ZM14.26 65.6393C14.06 65.906 13.86 66.166 13.66 66.4193C13.86 66.1727 14.06 65.9127 14.26 65.6393ZM19.99 61.2793C20.155 61.2429 20.3219 61.2162 20.49 61.1993C20.3253 61.2166 20.1617 61.2433 20 61.2793H19.99ZM23.64 62.0993L23.83 62.2793L23.9 62.3393H23.85L23.64 62.0993ZM23 64.3593V64.2993C23.0047 64.319 23.0047 64.3396 23 64.3593ZM23.29 65.6793C23.349 65.7454 23.4252 65.7938 23.51 65.8193C23.4216 65.7956 23.3418 65.747 23.28 65.6793H23.29ZM24.21 65.0493C24.01 65.4793 23.76 65.7093 23.56 65.6593C23.36 65.6093 23.08 65.1593 23.17 64.3793C23.2658 63.7401 23.5202 63.135 23.91 62.6193C24.1843 62.9549 24.3573 63.3617 24.4087 63.7921C24.46 64.2225 24.3877 64.6586 24.2 65.0493H24.21ZM24.44 64.9393C24.6028 64.5206 24.6479 64.0654 24.5704 63.6229C24.4928 63.1804 24.2955 62.7676 24 62.4293C24.2949 62.7681 24.4909 63.1814 24.5668 63.6241C24.6426 64.0667 24.5953 64.5217 24.43 64.9393H24.44ZM33.44 62.0893C33.51 62.9293 33.59 63.8093 33.7 64.5493C33.58 63.8093 33.5 62.9293 33.43 62.0893H33.44ZM33 66.3893C31.65 67.2093 29.28 68.6393 27.49 69.7493C28.79 68.9193 30.66 67.7693 33 66.3893ZM24.78 73.4593C24.7923 72.8174 24.8829 72.1793 25.05 71.5593C24.8771 72.1793 24.7732 72.8165 24.74 73.4593H24.78ZM25.12 74.5893C25.2774 74.6797 25.4628 74.7082 25.64 74.6693C25.546 74.6939 25.4481 74.6995 25.352 74.6858C25.2558 74.672 25.1633 74.6392 25.08 74.5893H25.12ZM47.5 74.8893C47.6303 74.9294 47.7697 74.9294 47.9 74.8893C47.7585 74.9441 47.6016 74.9441 47.46 74.8893H47.5ZM48.37 73.5993C48.3779 73.161 48.3102 72.7247 48.17 72.3093C48.2967 72.727 48.3508 73.1633 48.33 73.5993H48.37ZM39.37 66.2193C39.2499 66.1482 39.1527 66.044 39.09 65.9193C39.1418 66.039 39.2247 66.1425 39.33 66.2193H39.37ZM39.52 59.1293C39.52 57.6693 39.59 55.5893 39.61 53.5793C39.55 55.5893 39.52 57.6693 39.48 59.1293H39.52ZM41.02 46.9993H43.3C42.54 46.8993 41.7 46.9193 41 46.9293L41.02 46.9993ZM65.12 51.7893C65.2163 51.8041 65.3146 51.7975 65.408 51.7698C65.5013 51.7421 65.5874 51.6942 65.66 51.6293C65.5794 51.6771 65.4896 51.7071 65.3965 51.7175C65.3034 51.7278 65.2091 51.7182 65.12 51.6893V51.7893Z" fill="#566375"/>
</svg>
