<svg width="2247" height="1689" viewBox="0 0 2247 1689" fill="none" xmlns="http://www.w3.org/2000/svg">
<path d="M918.242 717.11L265.639 578.32L144.565 1147.55L797.169 1286.34L918.242 717.11Z" fill="white" fill-opacity="0.014"/>
<path d="M1092.03 344.103L0 830.272L236.719 1361.92L1328.75 875.749L1092.03 344.103Z" fill="white" fill-opacity="0.014"/>
<path d="M1173.26 720.44L1465.68 1320.12L1988.8 1065.07L1696.39 465.393L1173.26 720.44Z" fill="white" fill-opacity="0.014"/>
<path d="M772.319 813.151L1827.77 1374.31L2101 860.478L1045.55 299.316L772.319 813.151Z" fill="white" fill-opacity="0.014"/>
<path d="M560.247 750.253L883.564 1333.99L1392.78 1051.98L1069.46 468.247L560.247 750.253Z" fill="white" fill-opacity="0.014"/>
<path d="M164.608 863.748L1248.06 1369.25L1494.19 841.781L410.736 336.279L164.608 863.748Z" fill="white" fill-opacity="0.014"/>
</svg>
