<svg width="205" height="109" viewBox="0 0 205 109" fill="none" xmlns="http://www.w3.org/2000/svg">
<path d="M132 73.5493C131.481 72.69 130.729 71.9962 129.83 71.5493C127.5 70.2393 122.22 67.8193 120.65 67.1093C120.555 67.0643 120.475 66.9936 120.418 66.9052C120.362 66.8168 120.331 66.7143 120.33 66.6093V63.6793C120.33 63.4406 120.235 63.2117 120.066 63.0429C119.898 62.8741 119.669 62.7793 119.43 62.7793H118.49C118.266 62.7786 118.049 62.8627 117.884 63.0148C117.719 63.1668 117.618 63.3756 117.6 63.5993L117.51 64.5993C117.504 64.6903 117.476 64.7784 117.427 64.8554C117.378 64.9323 117.31 64.9956 117.23 65.0393C117.15 65.0814 117.061 65.1033 116.97 65.1033C116.879 65.1033 116.79 65.0814 116.71 65.0393L106.08 59.5693C105.988 59.5251 105.911 59.4554 105.858 59.3685C105.805 59.2816 105.778 59.1812 105.78 59.0793C105.78 55.7093 105.9 44.6393 105.6 43.7093C105.52 43.4793 105.37 42.8093 105.18 41.9693C104.18 37.3793 103.39 34.6393 102.61 34.3593V23.8793C102.61 23.8342 102.592 23.791 102.56 23.7591C102.528 23.7272 102.485 23.7093 102.44 23.7093C102.417 23.7078 102.395 23.7112 102.373 23.7193C102.352 23.7273 102.333 23.7398 102.317 23.7558C102.3 23.7719 102.288 23.7913 102.28 23.8126C102.272 23.8339 102.269 23.8566 102.27 23.8793V34.3893C101 34.9993 99.6 41.0693 99.44 43.7793C99.32 45.6493 99.21 46.3693 99.15 46.7793C99.1128 46.9671 99.0927 47.1579 99.09 47.3493C99.09 47.8393 99.09 58.1893 99.03 58.9293C99.03 58.9293 99.03 58.9993 99.03 59.0293C99.0405 59.1405 99.0176 59.2522 98.9641 59.3502C98.9107 59.4482 98.8292 59.528 98.73 59.5793L88.25 64.8393C88.1676 64.8858 88.0746 64.9102 87.98 64.9102C87.8854 64.9102 87.7924 64.8858 87.71 64.8393C87.6308 64.789 87.5654 64.7197 87.52 64.6375C87.4746 64.5554 87.4505 64.4632 87.45 64.3693V63.7993C87.448 63.5724 87.3603 63.3546 87.2046 63.1896C87.0488 63.0245 86.8364 62.9244 86.61 62.9093L85.46 62.8293C85.2183 62.8162 84.9812 62.8988 84.8 63.0593C84.7097 63.1383 84.6365 63.235 84.5849 63.3433C84.5333 63.4517 84.5044 63.5694 84.5 63.6893L84.38 66.2893C84.3786 66.3878 84.3498 66.4839 84.2968 66.567C84.2438 66.65 84.1688 66.7166 84.08 66.7593C81.08 68.2693 73.89 71.8593 73.43 72.6193C73.32 72.8093 73.19 72.9993 73.05 73.2093C72.6 73.8793 72.21 74.4593 72.35 74.8393C72.3811 74.9053 72.4271 74.9631 72.4843 75.0082C72.5416 75.0534 72.6086 75.0845 72.68 75.0993C73.01 75.1893 75.68 74.5493 82.21 72.9593C87.3 71.7193 93.07 70.3193 94 70.3193C95.24 70.3193 97.42 70.3993 98.61 70.4593C98.6809 70.4606 98.7509 70.4759 98.8159 70.5042C98.8809 70.5326 98.9397 70.5735 98.989 70.6245C99.0382 70.6756 99.0768 70.7359 99.1028 70.8019C99.1287 70.8679 99.1413 70.9384 99.14 71.0093V80.5893C99.1396 80.7217 99.169 80.8526 99.2261 80.972C99.2833 81.0915 99.3666 81.1966 99.47 81.2793L101.19 82.6793C101.326 82.7964 101.495 82.8695 101.673 82.8892C101.851 82.9088 102.032 82.874 102.19 82.7893C102.321 82.7045 102.428 82.5871 102.5 82.4486C102.571 82.3101 102.606 82.1552 102.6 81.9993V34.7393C103.32 35.3493 104.41 40.1793 104.83 42.0593C105.03 42.9393 105.18 43.5793 105.26 43.8293C105.49 44.5293 105.5 52.4793 105.43 59.0793C105.428 59.2465 105.473 59.4109 105.56 59.554C105.646 59.697 105.771 59.8132 105.92 59.8893L116.54 65.3493C116.671 65.4185 116.817 65.4547 116.965 65.4547C117.113 65.4547 117.259 65.4185 117.39 65.3493C117.518 65.2772 117.626 65.1747 117.704 65.0508C117.783 64.9269 117.829 64.7856 117.84 64.6393L117.93 63.6393C117.943 63.5023 118.006 63.3749 118.108 63.2823C118.21 63.1898 118.342 63.1388 118.48 63.1393H119.42C119.493 63.138 119.566 63.1512 119.634 63.1783C119.701 63.2053 119.763 63.2456 119.815 63.2968C119.868 63.348 119.909 63.4091 119.937 63.4765C119.965 63.5439 119.98 63.6162 119.98 63.6893V66.5993C119.979 66.7702 120.027 66.9379 120.119 67.0817C120.212 67.2256 120.344 67.3394 120.5 67.4093C122.06 68.1193 127.33 70.5293 129.65 71.8293C130.476 72.261 131.168 72.9113 131.65 73.7093C131.7 73.8037 131.721 73.9103 131.713 74.0166C131.704 74.1229 131.665 74.2245 131.6 74.3093C131.536 74.3957 131.447 74.4608 131.346 74.4965C131.244 74.5321 131.134 74.5366 131.03 74.5093C126.5 73.4493 111.69 69.9493 111.26 69.8093C109.595 69.7028 107.925 69.7028 106.26 69.8093C106.027 69.8171 105.805 69.9154 105.643 70.0833C105.481 70.2512 105.39 70.4757 105.39 70.7093C105.39 72.5593 105.39 78.8793 105.27 82.1493C105.18 85.1493 104.9 87.5993 104.78 88.5093C104.755 88.6847 104.784 88.8635 104.863 89.0223C104.941 89.1811 105.066 89.3125 105.22 89.3993C106.83 90.3293 112.22 93.3993 113.33 94.3993C113.667 94.7802 113.911 95.234 114.042 95.725C114.174 96.2161 114.191 96.731 114.09 97.2293C114.083 97.3063 114.06 97.3809 114.022 97.4482C113.984 97.5155 113.932 97.5738 113.87 97.6193C113.805 97.6636 113.731 97.6944 113.654 97.7099C113.577 97.7253 113.497 97.7251 113.42 97.7093L104 95.5793C103.868 95.5488 103.731 95.5492 103.599 95.5804C103.467 95.6116 103.344 95.6728 103.24 95.7593C103.136 95.8436 103.052 95.9504 102.995 96.0716C102.938 96.1928 102.909 96.3253 102.91 96.4593V102.689C102.907 102.836 102.847 102.976 102.743 103.079C102.638 103.182 102.497 103.239 102.35 103.239H101.86C101.714 103.239 101.574 103.181 101.471 103.078C101.368 102.975 101.31 102.835 101.31 102.689V96.3893C101.309 96.2548 101.278 96.1222 101.218 96.0013C101.159 95.8805 101.074 95.7744 100.968 95.6909C100.863 95.6074 100.74 95.5487 100.609 95.519C100.477 95.4893 100.341 95.4894 100.21 95.5193L91.56 97.5193C91.4761 97.5346 91.3898 97.5318 91.3071 97.5111C91.2243 97.4904 91.1469 97.4523 91.08 97.3993C91.0157 97.3436 90.9645 97.2744 90.9299 97.1966C90.8953 97.1188 90.8783 97.0344 90.88 96.9493C90.96 94.9493 91.19 94.4993 91.26 94.4193C91.5 94.1493 94.76 92.1193 99.56 89.2393C99.7304 89.1422 99.864 88.9915 99.9399 88.8107C100.016 88.6299 100.03 88.429 99.98 88.2393C99.6925 86.4385 99.5155 84.6218 99.45 82.7993C99.4461 82.6817 99.4184 82.5662 99.3685 82.4596C99.3187 82.353 99.2478 82.2577 99.16 82.1793C99.0745 82.0966 98.9722 82.0333 98.86 81.9936C98.7479 81.9539 98.6285 81.9388 98.51 81.9493C93.37 82.2093 90.98 83.7593 89.88 85.0493C89.6739 84.8464 89.4419 84.6716 89.19 84.5293C86.99 83.2393 83.33 83.9693 80.11 88.5293C74.75 96.0493 67.19 93.7893 67.11 93.7693C67.0679 93.7548 67.0221 93.7548 66.98 93.7693C66.9605 93.7796 66.9433 93.7938 66.9296 93.811C66.9158 93.8282 66.9058 93.848 66.9 93.8693C66.887 93.9131 66.8912 93.9602 66.9116 94.001C66.932 94.0419 66.9672 94.0734 67.01 94.0893C67.09 94.0893 74.9 96.4293 80.39 88.7093C83.49 84.3793 87 83.6493 89 84.8693C89.2354 85.0016 89.4509 85.1666 89.64 85.3593C89.1893 85.9418 88.8966 86.6306 88.79 87.3593C88.7 88.1793 88.97 88.8693 89.43 89.0093C89.61 89.0593 90.07 89.0793 90.48 88.2193C90.7022 87.7568 90.7837 87.2392 90.7144 86.7308C90.6451 86.2223 90.4279 85.7455 90.09 85.3593C91.09 84.1193 93.45 82.6093 98.51 82.3593C98.5827 82.3539 98.6558 82.3635 98.7246 82.3876C98.7934 82.4117 98.8566 82.4497 98.91 82.4993C99.0163 82.5984 99.0806 82.7343 99.09 82.8793C99.1539 84.7222 99.3342 86.5592 99.63 88.3793C99.6506 88.491 99.6367 88.6062 99.5903 88.7098C99.5438 88.8134 99.467 88.9004 99.37 88.9593C96.37 90.7393 91.37 93.7893 90.98 94.2093C90.6099 95.0763 90.4522 96.0191 90.52 96.9593C90.5152 97.0972 90.5415 97.2344 90.5969 97.3608C90.6523 97.4871 90.7354 97.5994 90.84 97.6893C90.9477 97.7768 91.074 97.8385 91.2092 97.8697C91.3444 97.9009 91.4849 97.9008 91.62 97.8693L100.26 95.8693C100.342 95.8541 100.426 95.856 100.507 95.875C100.587 95.8939 100.664 95.9294 100.73 95.9793C100.796 96.0295 100.85 96.0946 100.886 96.1693C100.923 96.244 100.941 96.3262 100.94 96.4093V102.709C100.94 102.827 100.963 102.944 101.009 103.052C101.054 103.161 101.121 103.259 101.204 103.342C101.288 103.425 101.387 103.49 101.496 103.534C101.605 103.579 101.722 103.601 101.84 103.599H102.33C102.448 103.601 102.565 103.579 102.674 103.534C102.783 103.49 102.882 103.425 102.966 103.342C103.05 103.259 103.116 103.161 103.161 103.052C103.207 102.944 103.23 102.827 103.23 102.709V96.4593C103.229 96.3748 103.247 96.2911 103.284 96.2148C103.32 96.1385 103.374 96.0716 103.44 96.0193C103.505 95.9697 103.579 95.9342 103.658 95.9153C103.738 95.8963 103.82 95.8943 103.9 95.9093L113.34 98.0493C113.465 98.0768 113.594 98.0786 113.719 98.0545C113.845 98.0305 113.964 97.9811 114.07 97.9093C114.171 97.8355 114.255 97.7412 114.317 97.6327C114.379 97.5241 114.418 97.4037 114.43 97.2793C114.541 96.7267 114.519 96.1558 114.366 95.6133C114.213 95.0709 113.933 94.5726 113.55 94.1593C110.917 92.3266 108.194 90.6278 105.39 89.0693C105.295 89.0158 105.218 88.9345 105.169 88.8363C105.121 88.7381 105.104 88.6276 105.12 88.5193C105.24 87.6093 105.53 85.1693 105.62 82.1293C105.72 78.8593 105.73 72.5393 105.74 70.6793C105.737 70.5351 105.791 70.3956 105.89 70.2909C105.99 70.1862 106.126 70.1245 106.27 70.1193C107.901 70.0077 109.539 70.0077 111.17 70.1193C111.61 70.2593 126.43 73.7593 130.97 74.8293C131.137 74.868 131.312 74.8574 131.474 74.7989C131.635 74.7403 131.776 74.6363 131.88 74.4993C131.99 74.3695 132.059 74.2106 132.081 74.0421C132.102 73.8735 132.074 73.7024 132 73.5493ZM101.29 36.2393C100.422 38.6567 99.8576 41.1727 99.61 43.7293C99.8547 41.1722 100.419 38.6559 101.29 36.2393ZM99.29 46.8193C99.29 46.9493 99.29 47.0493 99.29 47.1393C99.28 47.0493 99.3 46.9993 99.32 46.8193H99.29ZM99.23 47.3693C99.23 47.8293 99.23 56.0693 99.18 58.3693C99.22 56.0693 99.26 47.8193 99.26 47.3693H99.23ZM83.66 67.1493C82.28 67.8393 79.35 69.3193 76.99 70.5893C78.87 69.5693 81.3 68.3293 83.66 67.1493ZM73.17 73.3293C72.964 73.6238 72.7769 73.931 72.61 74.2493C72.7784 73.9319 72.9654 73.6247 73.17 73.3293ZM82.17 72.7993L76.38 74.1893C77.85 73.8493 79.73 73.3893 81.95 72.8493H82.17C87.52 71.5393 93.05 70.1893 93.95 70.1893C93.05 70.1393 87.27 71.5493 82.17 72.7993ZM101.35 82.4093L99.64 80.9993C99.5764 80.9467 99.5248 80.8811 99.4886 80.807C99.4524 80.7328 99.4324 80.6518 99.43 80.5693V70.9993C99.4328 70.7683 99.3457 70.5453 99.1871 70.3773C99.0285 70.2094 98.8108 70.1097 98.58 70.0993C97.38 70.0993 95.19 69.9593 93.95 69.9593C93.03 69.9593 87.49 71.3093 82.12 72.6193L81.91 72.6693C77.77 73.6693 73.07 74.8293 72.76 74.7593C72.7307 74.7685 72.6993 74.7685 72.67 74.7593C72.59 74.5493 73.02 73.9093 73.34 73.4393L73.73 72.8393C74.04 72.3193 79.23 69.5793 84.23 67.0993C84.3734 67.0285 84.4952 66.9207 84.5831 66.7871C84.671 66.6536 84.7217 66.499 84.73 66.3393L84.85 63.7393C84.8511 63.6653 84.8677 63.5924 84.8987 63.5253C84.9297 63.4581 84.9745 63.3982 85.03 63.3493C85.0856 63.2999 85.1505 63.2621 85.2209 63.2381C85.2913 63.214 85.3658 63.2043 85.44 63.2093L86.59 63.2893C86.7288 63.2994 86.8587 63.3618 86.9533 63.4639C87.048 63.566 87.1004 63.7001 87.1 63.8393V64.3893C87.1011 64.542 87.1409 64.6918 87.2159 64.8248C87.2908 64.9578 87.3983 65.0696 87.5283 65.1496C87.6583 65.2296 87.8065 65.2752 87.959 65.2822C88.1115 65.2891 88.2633 65.2572 88.4 65.1893L98.89 59.9493C99.0526 59.8659 99.1863 59.7354 99.2737 59.5748C99.3611 59.4143 99.3982 59.2312 99.38 59.0493V58.9993C99.38 58.2593 99.43 47.9193 99.43 47.4193C99.4335 47.2445 99.4536 47.0704 99.49 46.8993C99.55 46.4593 99.67 45.7293 99.78 43.8493C99.96 40.9393 101.32 35.7193 102.26 34.8493V81.9993C102.261 82.1048 102.232 82.2084 102.175 82.2972C102.118 82.3861 102.036 82.4563 101.94 82.4993C101.843 82.5427 101.736 82.5573 101.632 82.5413C101.527 82.5253 101.429 82.4795 101.35 82.4093ZM102.01 82.6393C102.176 82.5573 102.307 82.4191 102.38 82.2493C102.304 82.4207 102.169 82.5592 102 82.6393H102.01ZM105 41.9993C104.51 39.7993 104 37.6793 103.52 36.2593C104.08 37.8893 104.62 40.2593 105 41.9993ZM105.14 42.6193C105.25 43.0893 105.34 43.4693 105.4 43.6793C105.34 43.4893 105.25 43.1193 105.14 42.6393V42.6193ZM105.6 58.7893C105.6 55.9193 105.72 44.9893 105.44 43.7893C105.71 44.9993 105.64 55.2093 105.6 58.8093V58.7893ZM80.26 88.6393C80.06 88.906 79.86 89.166 79.66 89.4193C79.86 89.1727 80.06 88.9127 80.26 88.6393ZM85.99 84.2793C86.155 84.2429 86.3219 84.2162 86.49 84.1993C86.3253 84.2166 86.1617 84.2433 86 84.2793H85.99ZM89.64 85.0993L89.83 85.2793L89.9 85.3393H89.85L89.64 85.0993ZM89 87.3593V87.2993C89.0047 87.319 89.0047 87.3396 89 87.3593ZM89.29 88.6793C89.349 88.7454 89.4252 88.7938 89.51 88.8193C89.4216 88.7956 89.3418 88.747 89.28 88.6793H89.29ZM90.21 88.0493C90.01 88.4793 89.76 88.7093 89.56 88.6593C89.36 88.6093 89.08 88.1593 89.17 87.3793C89.2658 86.7401 89.5202 86.135 89.91 85.6193C90.1843 85.9549 90.3573 86.3617 90.4087 86.7921C90.46 87.2225 90.3877 87.6586 90.2 88.0493H90.21ZM90.44 87.9393C90.6028 87.5206 90.6479 87.0654 90.5704 86.6229C90.4928 86.1804 90.2955 85.7676 90 85.4293C90.2949 85.7681 90.4909 86.1814 90.5668 86.6241C90.6426 87.0667 90.5953 87.5217 90.43 87.9393H90.44ZM99.44 85.0893C99.51 85.9293 99.59 86.8093 99.7 87.5493C99.58 86.8093 99.5 85.9293 99.43 85.0893H99.44ZM99 89.3893C97.65 90.2093 95.28 91.6393 93.49 92.7493C94.79 91.9193 96.66 90.7693 99 89.3893ZM90.78 96.4593C90.7923 95.8174 90.8829 95.1793 91.05 94.5593C90.8771 95.1793 90.7732 95.8165 90.74 96.4593H90.78ZM91.12 97.5893C91.2774 97.6797 91.4628 97.7082 91.64 97.6693C91.546 97.6939 91.4481 97.6995 91.352 97.6858C91.2558 97.672 91.1633 97.6392 91.08 97.5893H91.12ZM113.5 97.8893C113.63 97.9294 113.77 97.9294 113.9 97.8893C113.758 97.9441 113.602 97.9441 113.46 97.8893H113.5ZM114.37 96.5993C114.378 96.161 114.31 95.7247 114.17 95.3093C114.297 95.727 114.351 96.1633 114.33 96.5993H114.37ZM105.37 89.2193C105.25 89.1482 105.153 89.044 105.09 88.9193C105.142 89.039 105.225 89.1425 105.33 89.2193H105.37ZM105.52 82.1293C105.52 80.6693 105.59 78.5893 105.61 76.5793C105.55 78.5893 105.52 80.6693 105.48 82.1293H105.52ZM107.02 69.9993H109.3C108.54 69.8993 107.7 69.9193 107 69.9293L107.02 69.9993ZM131.12 74.7893C131.216 74.8041 131.315 74.7975 131.408 74.7698C131.501 74.7421 131.587 74.6942 131.66 74.6293C131.579 74.6771 131.49 74.7071 131.396 74.7175C131.303 74.7278 131.209 74.7182 131.12 74.6893V74.7893Z" fill="#566375"/>
<path d="M3.5 101.08H14.5C14.4976 84.7398 19.0447 68.7218 27.6319 54.8201C36.2191 40.9183 48.5073 29.6821 63.12 22.3699L58 12.6299C41.6126 20.8759 27.8388 33.5131 18.2153 49.1314C8.5918 64.7497 3.49722 82.7348 3.5 101.08Z" fill="#D57777" stroke="#CC5C5C" stroke-miterlimit="10"/>
<path d="M102.5 2.08015C87.0449 2.06136 71.8018 5.67519 58 12.6302L63.12 22.3702C76.5375 15.656 91.4489 12.4839 106.438 13.1553C121.426 13.8266 135.994 18.3191 148.758 26.2059C161.521 34.0927 172.057 45.1119 179.362 58.2166C186.668 71.3214 190.502 86.0765 190.5 101.08H201.5C201.5 88.0793 198.939 75.2057 193.964 63.1945C188.989 51.1833 181.697 40.2696 172.504 31.0766C163.311 21.8836 152.397 14.5913 140.386 9.61608C128.374 4.64086 115.501 2.08015 102.5 2.08015Z" fill="#6C7CA1" stroke="#3A3E6F" stroke-miterlimit="10"/>
</svg>
