<svg width="112" height="104" viewBox="0 0 112 104" fill="none" xmlns="http://www.w3.org/2000/svg">
<g clip-path="url(#clip0_109_3187)">
<path d="M123.217 63.0148C123.217 29.1367 96.0368 1.6748 62.506 1.6748C28.9753 1.6748 1.795 29.1367 1.795 63.0148C1.77266 77.3628 6.74973 91.2608 15.8537 102.272L120.147 82.3186C122.186 76.0914 123.222 69.5739 123.217 63.0148Z" fill="white" fill-opacity="0.05"/>
<path d="M120.147 82.3184L15.8535 102.264L120.147 82.3184Z" fill="#265D93"/>
<path d="M121.123 82.5905C126.706 65.3866 124.614 46.1729 115.303 30.6907C107.147 17.1304 93.9 6.99501 78.7404 2.83002C63.1579 -1.44743 46.171 0.681073 32.1244 8.71662C18.3892 16.6207 8.14443 29.5082 3.46883 44.7641C-1.85957 62.3483 0.906828 81.9546 10.9565 97.3121C12.248 99.2782 13.6437 101.172 15.1375 102.986C15.9692 104.008 17.3939 102.546 16.5683 101.54C4.98054 87.42 0.313883 68.3248 4.11844 50.3808C6.52333 39.0111 12.1292 28.5859 20.2614 20.3601C28.3935 12.1342 38.7054 6.45823 49.9557 4.01535C61.2061 1.57247 72.9154 2.46678 83.6745 6.59065C94.4335 10.7145 103.784 17.8922 110.6 27.2597C120.402 40.7545 124.284 58.0565 121.123 74.4916C120.627 77.0467 119.974 79.5679 119.166 82.0405C118.761 83.2938 120.714 83.8316 121.119 82.5843L121.123 82.5905Z" fill="#4C71A0"/>
<path d="M62.2571 63.642L69.2976 53.709L80.4664 37.9548L83.0608 34.2949C83.8197 33.2234 82.0651 32.2011 81.3123 33.2725L74.2698 43.1953L63.101 58.9515L60.5087 62.6094C59.7498 63.6829 61.5043 64.7032 62.2571 63.642Z" fill="#4C71A0"/>
</g>
<defs>
<clipPath id="clip0_109_3187">
<rect width="125" height="104" fill="white"/>
</clipPath>
</defs>
</svg>
