<svg width="68" height="68" viewBox="0 0 68 68" fill="none" xmlns="http://www.w3.org/2000/svg">
<g clip-path="url(#clip0_670_2270)">
<mask id="mask0_670_2270" style="mask-type:luminance" maskUnits="userSpaceOnUse" x="0" y="0" width="68" height="68">
<path d="M0 0H68V68H0V0Z" fill="white"/>
</mask>
<g mask="url(#mask0_670_2270)">
<path fill-rule="evenodd" clip-rule="evenodd" d="M68 0H0V68H68V0ZM9.91667 8.5H8.5V46.75H41.6316V43.9167H11.3333V11.3333H49.5833V15.5833H52.4167V8.5H9.91667ZM55.25 22.6667C55.25 23.7938 54.8022 24.8748 54.0052 25.6719C53.2082 26.4689 52.1272 26.9167 51 26.9167C49.8728 26.9167 48.7918 26.4689 47.9948 25.6719C47.1978 24.8748 46.75 23.7938 46.75 22.6667C46.75 21.5395 47.1978 20.4585 47.9948 19.6615C48.7918 18.8644 49.8728 18.4167 51 18.4167C52.1272 18.4167 53.2082 18.8644 54.0052 19.6615C54.8022 20.4585 55.25 21.5395 55.25 22.6667ZM58.1258 31.8693C57.1738 30.5915 55.7175 29.7656 53.8772 29.7656H45.3772C44.9104 29.7692 44.4546 29.9085 44.0654 30.1665C43.8458 30.3082 43.6631 30.4668 43.5327 30.5887C43.2574 30.8553 43.0004 31.1402 42.7635 31.4415C42.2282 32.1191 41.7179 32.8161 41.2335 33.5311C40.7575 34.2253 40.3056 34.9166 39.9613 35.4492H34.0439C33.4803 35.4492 32.9398 35.6731 32.5413 36.0716C32.1428 36.4702 31.9189 37.0107 31.9189 37.5742C31.9189 38.1378 32.1428 38.6783 32.5413 39.0769C32.9398 39.4754 33.4803 39.6992 34.0439 39.6992H41.1273C41.8611 39.6992 42.5439 39.321 42.9321 38.6977V38.6948L42.9406 38.6849L42.9689 38.6396L43.078 38.4653C43.3537 38.0284 43.6332 37.5939 43.9167 37.162V57.375C43.9174 57.9041 44.1155 58.4139 44.4722 58.8046C44.8288 59.1954 45.3185 59.4391 45.8453 59.488C46.3721 59.5369 46.8982 59.3875 47.3207 59.069C47.7432 58.7505 48.0317 58.2859 48.1298 57.766L50.1953 46.75H50.6161L52.445 57.7249C52.5319 58.2517 52.8139 58.7265 53.2349 59.0548C53.6559 59.3831 54.1851 59.5409 54.7172 59.4968C55.2493 59.4527 55.7453 59.2099 56.1065 58.8168C56.4677 58.4236 56.6677 57.9089 56.6667 57.375V43.4322C57.7745 42.5581 58.4913 41.2831 58.9192 40.0492C59.3743 38.7201 59.5648 37.3148 59.4802 35.9125C59.3952 34.5468 59.0183 33.065 58.1258 31.8693Z" fill="#4E93B2"/>
</g>
</g>
<defs>
<clipPath id="clip0_670_2270">
<rect width="68" height="68" rx="8" fill="white"/>
</clipPath>
</defs>
</svg>
