<svg width="15" height="15" viewBox="0 0 15 15" fill="none" xmlns="http://www.w3.org/2000/svg">
<g clip-path="url(#clip0_670_3823)">
<path d="M4.03303 11.3229H7.1646V11.2621M4.03303 11.3229L14.1853 10.6091C14.1855 10.4512 14.1546 10.2948 14.0943 10.1489C14.034 10.003 13.9456 9.87039 13.834 9.75868C13.7224 9.64697 13.5899 9.55835 13.4441 9.49789C13.2982 9.43742 13.1419 9.4063 12.984 9.4063H8.42822C8.10922 9.4063 7.80328 9.53302 7.57771 9.75859C7.35215 9.98416 7.22542 10.2901 7.22542 10.6091V11.2621H7.1646M4.03303 11.3229C4.00672 11.3233 3.98059 11.3184 3.95617 11.3086C3.93174 11.2988 3.90951 11.2843 3.89077 11.2658C3.87202 11.2473 3.85714 11.2253 3.84698 11.201C3.83682 11.1768 3.83159 11.1507 3.83159 11.1244V7.97384L4.03303 11.3229ZM7.1646 11.2621V10.6091C7.1646 10.274 7.29773 9.95256 7.53471 9.71558C7.77168 9.47861 8.09309 9.34548 8.42822 9.34548H12.984C13.1499 9.34548 13.3141 9.37818 13.4673 9.4417C13.6206 9.50523 13.7598 9.59833 13.877 9.7157C13.9942 9.83306 14.0872 9.97239 14.1505 10.1257C14.2139 10.279 14.2463 10.4433 14.2461 10.6092M7.1646 11.2621L4.03303 11.2621L4.03214 11.2621C4.01389 11.2624 3.99576 11.259 3.97882 11.2522C3.96188 11.2454 3.94646 11.2353 3.93346 11.2225C3.92046 11.2097 3.91013 11.1944 3.90309 11.1776C3.89604 11.1607 3.89241 11.1426 3.89241 11.1244V7.97384H4.54685C4.8816 7.97384 5.20264 7.84086 5.43934 7.60416C5.67604 7.36745 5.80902 7.04642 5.80902 6.71167V2.14861L5.80902 2.14847C5.80821 1.81439 5.67514 1.49424 5.43891 1.25801C5.20269 1.02179 4.88253 0.888719 4.54846 0.887909H4.54831H2.2697C2.10382 0.887909 1.93957 0.920607 1.78634 0.984132C1.63311 1.04766 1.4939 1.14077 1.37668 1.25813C1.25945 1.3755 1.16651 1.51482 1.10317 1.66813C1.03984 1.82144 1.00734 1.98573 1.00754 2.15161M14.2461 10.6092L2.26978 7.96654C2.26975 7.96654 2.26973 7.96654 2.2697 7.96654C2.10391 7.96673 1.93971 7.93422 1.7865 7.87087C1.63327 7.8075 1.49404 7.71454 1.37679 7.59729C1.25954 7.48004 1.16657 7.34081 1.10321 7.18758C1.03985 7.03435 1.00734 6.87014 1.00754 6.70434M14.2461 10.6092V12.8833M14.2461 10.6092L7.1646 12.2333M1.00754 2.15161L1.00754 2.15153H1.06836L1.00754 2.15161ZM1.00754 2.15161L1.00754 6.70434M1.00754 6.70434V6.70437H1.06836L1.00754 6.7043C1.00754 6.70431 1.00754 6.70432 1.00754 6.70434ZM3.18365 12.2333H3.18348V12.1725L3.18393 12.2333C3.18384 12.2333 3.18374 12.2333 3.18365 12.2333ZM3.18365 12.2333H7.1646M3.18365 12.2333H7.1646M7.1646 12.2333V12.8863L7.1646 12.8864C7.16541 13.221 7.2989 13.5416 7.53579 13.7779C7.77268 14.0142 8.09362 14.147 8.42822 14.147H12.984C13.1499 14.147 13.3141 14.1143 13.4673 14.0507C13.6206 13.9872 13.7598 13.8941 13.877 13.7767C13.9942 13.6594 14.0872 13.52 14.1505 13.3667C14.2139 13.2134 14.2463 13.0491 14.2461 12.8833M14.2461 12.8833V12.8833H14.1853L14.2461 12.8833ZM8.13726 10.6091L8.13725 10.6088C8.1371 10.5705 8.1445 10.5326 8.15906 10.4971C8.17361 10.4617 8.19501 10.4295 8.22205 10.4023C8.24908 10.3752 8.28121 10.3536 8.3166 10.3389C8.35198 10.3242 8.38991 10.3167 8.42822 10.3167H12.984C13.0223 10.3167 13.0602 10.3242 13.0956 10.3389C13.131 10.3536 13.1631 10.3752 13.1902 10.4023C13.2172 10.4295 13.2386 10.4617 13.2532 10.4971C13.2677 10.5326 13.2751 10.5705 13.275 10.6088V10.6091V12.8863C13.275 12.9634 13.2443 13.0374 13.1897 13.092C13.1352 13.1466 13.0612 13.1772 12.984 13.1772H8.42822C8.35105 13.1772 8.27705 13.1466 8.22248 13.092C8.16791 13.0374 8.13726 12.9634 8.13726 12.8863L8.13726 10.6091ZM2.2697 6.99534C2.19253 6.99534 2.11852 6.96469 2.06396 6.91012C2.00939 6.85555 1.97873 6.78154 1.97873 6.70437V2.14861C1.97873 2.07144 2.00939 1.99743 2.06396 1.94287C2.11852 1.8883 2.19253 1.85764 2.2697 1.85764H4.54831C4.62548 1.85764 4.69949 1.8883 4.75406 1.94287C4.80863 1.99743 4.83928 2.07144 4.83928 2.14861V6.70437C4.83928 6.78154 4.80863 6.85555 4.75406 6.91012C4.69949 6.96469 4.62548 6.99534 4.54831 6.99534H2.2697Z" fill="black" stroke="black" stroke-width="0.121643"/>
</g>
<defs>
<clipPath id="clip0_670_3823">
<rect width="14.5971" height="14.5971" fill="white" transform="translate(0.328125 0.21875)"/>
</clipPath>
</defs>
</svg>
