<svg width="63" height="57" viewBox="0 0 63 57" fill="none" xmlns="http://www.w3.org/2000/svg">
<path d="M31.3806 56.1055H7.53034C1.11211 56.1055 -1.92108 50.778 1.29508 45.2184C9.3038 31.3732 17.3031 17.5327 25.2931 3.69688C26.7006 1.26189 28.7204 -0.0611644 31.5495 0.00217349C34.2519 0.0725489 36.1309 1.46598 37.461 3.7743C44.7894 16.4841 52.1296 29.1939 59.4815 41.9037C60.1852 43.1705 60.9664 44.4302 61.6772 45.704C64.4922 50.6725 61.3957 56.0492 55.7023 56.0914C47.5951 56.1406 39.4878 56.1055 31.3806 56.1055ZM16.2287 40.9747C18.8608 39.4617 21.3943 38.0331 23.8786 36.52C24.0507 36.3527 24.1874 36.1525 24.2805 35.9312C24.3736 35.7099 24.4212 35.4722 24.4204 35.2321C24.4254 34.0016 24.7529 32.7938 25.3704 31.7294C25.9878 30.665 26.8735 29.781 27.9392 29.1657C28.2981 28.9476 28.7556 28.5253 28.7626 28.1946C28.8259 25.2318 28.7626 22.269 28.7626 19.2921C19.5434 20.3336 12.3229 30.7422 16.2287 40.9747ZM18.903 45.4295C24.533 53.3819 38.2985 53.3116 43.8511 45.3802C41.3176 43.9094 38.8052 42.4245 36.2506 41.0029C36.0511 40.9283 35.838 40.8972 35.6256 40.9118C35.4132 40.9263 35.2063 40.9862 35.019 41.0873C33.9373 41.7386 32.7021 42.0909 31.4396 42.1082C30.1772 42.1255 28.9328 41.8072 27.8337 41.1859C27.5976 41.0813 27.3423 41.0273 27.0842 41.0273C26.826 41.0273 26.5707 41.0813 26.3347 41.1859C23.8645 42.53 21.4365 43.9727 18.903 45.4295ZM46.4902 40.8973C50.5297 30.158 42.3732 20.0169 34.0337 19.4047C34.0337 22.3253 34.0337 25.2458 34.0337 28.1594C34.0337 28.5464 34.5193 29.018 34.8923 29.2713C35.9025 29.8935 36.7413 30.7582 37.3325 31.7869C37.9236 32.8156 38.2484 33.9756 38.2774 35.1617C38.2788 35.4027 38.3288 35.641 38.4243 35.8622C38.5198 36.0835 38.6589 36.2833 38.8333 36.4496C41.3176 37.9768 43.8581 39.3843 46.4902 40.8973ZM28.1503 35.2532C28.1513 35.683 28.2368 36.1083 28.4021 36.505C28.5674 36.9017 28.8093 37.2619 29.1138 37.5651C29.4183 37.8684 29.7796 38.1086 30.177 38.2722C30.5744 38.4358 31.0001 38.5196 31.4298 38.5186C31.8697 38.5187 32.3052 38.4317 32.7113 38.2627C33.1174 38.0938 33.4861 37.8462 33.7961 37.5342C34.1061 37.2222 34.3514 36.8519 34.5178 36.4448C34.6842 36.0376 34.7684 35.6016 34.7656 35.1617C34.739 34.2943 34.3815 33.4698 33.7665 32.8574C33.1515 32.2451 32.3256 31.8911 31.458 31.8682C31.0184 31.8728 30.584 31.964 30.1797 32.1367C29.7755 32.3094 29.4092 32.5601 29.102 32.8746C28.7947 33.189 28.5525 33.561 28.3892 33.9691C28.2259 34.3773 28.1448 34.8136 28.1503 35.2532Z" fill="#337299"/>
</svg>
