<svg width="15" height="17" viewBox="0 0 15 17" fill="none" xmlns="http://www.w3.org/2000/svg">
<g clip-path="url(#clip0_670_3813)">
<path d="M4.38731 8.93627C4.41442 8.96241 4.44662 8.98314 4.48206 8.99728C4.5175 9.01143 4.55549 9.01871 4.59386 9.01871C4.63222 9.01871 4.67021 9.01143 4.70565 8.99728C4.74109 8.98314 4.77329 8.96241 4.80041 8.93627L5.51128 8.25887C5.56606 8.20613 5.59684 8.1346 5.59684 8.06001C5.59684 7.98542 5.56606 7.91389 5.51128 7.86114C5.4565 7.8084 5.38221 7.77877 5.30473 7.77877C5.22726 7.77877 5.15297 7.8084 5.09819 7.86114L5.03834 7.91876V7.77822C5.03977 7.24864 5.23186 6.73591 5.58187 6.32738C5.93189 5.91884 6.41819 5.63978 6.95793 5.53771C7.49767 5.43565 8.05748 5.5169 8.54198 5.76763C9.02648 6.01836 9.40572 6.42306 9.61508 6.91278C9.82445 7.40251 9.851 7.94697 9.69021 8.45342C9.52941 8.95988 9.19123 9.397 8.73325 9.69033C8.27528 9.98366 7.72585 10.115 7.17855 10.0621C6.63125 10.0092 6.11993 9.77522 5.7317 9.40005C5.64887 9.32538 5.53917 9.28458 5.42571 9.28624C5.31225 9.28791 5.20389 9.33191 5.12346 9.40898C5.04304 9.48605 4.99682 9.59017 4.99456 9.6994C4.99229 9.80863 5.03416 9.91444 5.11132 9.99454C5.6423 10.5072 6.34148 10.8268 7.08974 10.8989C7.83801 10.971 8.58908 10.791 9.21501 10.3897C9.84094 9.98844 10.303 9.39063 10.5225 8.69814C10.742 8.00565 10.7053 7.26131 10.4188 6.59192C10.1322 5.92253 9.61345 5.3695 8.95089 5.02704C8.28833 4.68458 7.52294 4.57387 6.78512 4.71378C6.04729 4.85369 5.38266 5.23555 4.90446 5.79432C4.42625 6.35309 4.16405 7.05421 4.16251 7.77822V7.91876L4.10412 7.86114C4.04934 7.8084 3.97504 7.77877 3.89757 7.77877C3.8201 7.77877 3.7458 7.8084 3.69102 7.86114C3.63624 7.91389 3.60547 7.98542 3.60547 8.06001C3.60547 8.1346 3.63624 8.20613 3.69102 8.25887L4.38731 8.93627Z" fill="black"/>
<path d="M7.40913 5.69531C7.3317 5.69531 7.25744 5.72493 7.2027 5.77764C7.14795 5.83035 7.11719 5.90185 7.11719 5.97639V7.77952C7.11751 7.85395 7.14849 7.92521 7.20331 7.97768L8.37108 9.102C8.42586 9.15474 8.50016 9.18437 8.57763 9.18437C8.6551 9.18437 8.7294 9.15474 8.78418 9.102C8.83896 9.04926 8.86973 8.97772 8.86973 8.90313C8.86973 8.82855 8.83896 8.75701 8.78418 8.70427L7.70107 7.66287V5.97639C7.70107 5.90185 7.67031 5.83035 7.61556 5.77764C7.56081 5.72493 7.48656 5.69531 7.40913 5.69531Z" fill="black"/>
<path d="M11.8671 1.25855H2.9512C2.77012 1.25818 2.59074 1.29218 2.42331 1.3586C2.25589 1.42502 2.1037 1.52256 1.97546 1.64564C1.84721 1.76872 1.74542 1.91494 1.6759 2.07592C1.60638 2.2369 1.5705 2.4095 1.57031 2.58384V14.7813C1.5707 15.1324 1.71565 15.4691 1.97339 15.7175C2.23114 15.9659 2.58066 16.1058 2.94536 16.1066H11.8671C12.0483 16.1071 12.2277 16.0733 12.3952 16.0069C12.5627 15.9406 12.715 15.843 12.8433 15.7199C12.9716 15.5968 13.0734 15.4505 13.1428 15.2894C13.2123 15.1284 13.248 14.9557 13.248 14.7813V2.58384C13.248 2.40945 13.2123 2.23677 13.1428 2.0757C13.0734 1.91463 12.9716 1.76835 12.8433 1.64523C12.715 1.52211 12.5627 1.42457 12.3952 1.35822C12.2277 1.29187 12.0483 1.258 11.8671 1.25855ZM2.9512 2.10179H11.8671C11.9332 2.10123 11.9988 2.11329 12.0601 2.13727C12.1213 2.16124 12.177 2.19666 12.224 2.24148C12.2709 2.2863 12.3082 2.33963 12.3337 2.39839C12.3591 2.45715 12.3722 2.52018 12.3722 2.58384V13.5459C12.2131 13.486 12.0438 13.4551 11.873 13.4546H2.9512C2.78036 13.4551 2.61108 13.486 2.45198 13.5459V2.58384C2.45198 2.45624 2.50453 2.33384 2.59811 2.24348C2.69169 2.15311 2.81866 2.10216 2.9512 2.10179ZM11.8671 15.2633H2.9512C2.81841 15.2633 2.69106 15.2126 2.59716 15.1222C2.50327 15.0318 2.45052 14.9091 2.45052 14.7813C2.45052 14.6534 2.50327 14.5308 2.59716 14.4404C2.69106 14.35 2.81841 14.2992 2.9512 14.2992H11.8671C11.9999 14.2992 12.1273 14.35 12.2212 14.4404C12.315 14.5308 12.3678 14.6534 12.3678 14.7813C12.3678 14.9091 12.315 15.0318 12.2212 15.1222C12.1273 15.2126 11.9999 15.2633 11.8671 15.2633Z" fill="black"/>
<path d="M11.3907 14.4902H10.4521C10.3747 14.4902 10.3004 14.5198 10.2457 14.5726C10.1909 14.6253 10.1602 14.6968 10.1602 14.7713C10.1602 14.8459 10.1909 14.9174 10.2457 14.9701C10.3004 15.0228 10.3747 15.0524 10.4521 15.0524H11.3907C11.4681 15.0524 11.5424 15.0228 11.5971 14.9701C11.6519 14.9174 11.6826 14.8459 11.6826 14.7713C11.6826 14.6968 11.6519 14.6253 11.5971 14.5726C11.5424 14.5198 11.4681 14.4902 11.3907 14.4902Z" fill="black"/>
</g>
<defs>
<clipPath id="clip0_670_3813">
<rect width="14.5971" height="15.8135" fill="white" transform="translate(0.111328 0.635986)"/>
</clipPath>
</defs>
</svg>
