<svg width="69" height="57" viewBox="0 0 69 57" fill="none" xmlns="http://www.w3.org/2000/svg">
<path d="M62.625 0.375H6.375C4.7174 0.375 3.12769 1.03348 1.95558 2.20558C0.78348 3.37768 0.125 4.9674 0.125 6.625V16H6.375V6.625H62.625V50.375H40.75V56.625H62.625C64.2826 56.625 65.8723 55.9665 67.0444 54.7944C68.2165 53.6223 68.875 52.0326 68.875 50.375V6.625C68.875 4.9674 68.2165 3.37768 67.0444 2.20558C65.8723 1.03348 64.2826 0.375 62.625 0.375ZM0.125 47.25V56.625H9.5C9.5 54.1386 8.51228 51.754 6.75413 49.9959C4.99597 48.2377 2.6114 47.25 0.125 47.25ZM0.125 34.75V41C2.1769 41 4.20872 41.4042 6.10443 42.1894C8.00014 42.9746 9.72263 44.1255 11.1735 45.5765C12.6245 47.0274 13.7754 48.7499 14.5606 50.6456C15.3458 52.5413 15.75 54.5731 15.75 56.625H22C22 50.8234 19.6953 45.2594 15.593 41.157C11.4906 37.0547 5.92661 34.75 0.125 34.75ZM0.125 22.25V28.5C3.81843 28.5 7.47569 29.2275 10.888 30.6409C14.3003 32.0543 17.4007 34.126 20.0124 36.7376C22.624 39.3493 24.6957 42.4497 26.1091 45.862C27.5225 49.2743 28.25 52.9316 28.25 56.625H34.5C34.5 37.625 19.0938 22.25 0.125 22.25ZM31.375 25.6562V31.9062L42.3125 37.875L53.25 31.9062V25.6562L42.3125 31.625L31.375 25.6562ZM42.3125 9.75L25.125 19.125L42.3125 28.5L59.5 19.125L42.3125 9.75Z" fill="#4E93B2"/>
</svg>
