<svg width="12" height="14" viewBox="0 0 12 14" fill="none" xmlns="http://www.w3.org/2000/svg">
<g clip-path="url(#clip0_228_54)">
<path d="M0.320312 8.07744V1.63536C0.320312 1.28141 0.469912 0.941951 0.7362 0.691669C1.00249 0.441388 1.36365 0.300781 1.74024 0.300781H8.12885L11.6797 3.63622V12.312C11.6797 12.4872 11.643 12.6608 11.5717 12.8227C11.5003 12.9846 11.3957 13.1317 11.2639 13.2556C11.132 13.3796 10.9755 13.4779 10.8032 13.5449C10.6309 13.612 10.4463 13.6465 10.2598 13.6465H6.21782" stroke="#43566E" stroke-width="0.75" stroke-miterlimit="10"/>
<path d="M7.68262 0.300781V4.05565H11.6798" stroke="#43566E" stroke-width="0.75" stroke-miterlimit="10"/>
<path d="M7.51802 7.52147L6.99276 7.02377C6.76379 6.80906 6.45356 6.68848 6.13012 6.68848C5.80669 6.68848 5.49646 6.80906 5.26749 7.02377L1.20842 10.8569C1.17127 10.8896 1.1478 10.9338 1.14222 10.9813L0.437597 13.3595C0.422699 13.4047 0.420777 13.4529 0.432025 13.499C0.443273 13.5452 0.467292 13.5878 0.501654 13.6224C0.555855 13.6695 0.626404 13.6966 0.700231 13.6987C0.728123 13.7008 0.756124 13.696 0.78137 13.6846L3.3287 13.0203C3.37686 13.0082 3.42191 12.9871 3.46108 12.9581L7.53511 9.12698C7.76337 8.91463 7.89308 8.62608 7.89596 8.32423C7.88628 8.02054 7.75064 7.73244 7.51802 7.52147Z" stroke="#43566E" stroke-width="0.75" stroke-miterlimit="10"/>
</g>
<defs>
<clipPath id="clip0_228_54">
<rect width="12" height="14" fill="white"/>
</clipPath>
</defs>
</svg>
