<svg width="16" height="12" viewBox="0 0 16 12" fill="none" xmlns="http://www.w3.org/2000/svg">
<path d="M1.32753 10.6659V2.0262L7.65326 7.30514C7.76054 7.37897 7.88768 7.41849 8.01787 7.41849C8.14807 7.41849 8.27521 7.37897 8.38249 7.30514L14.0656 2.0262V8.47447H15.0847V1.40035C15.08 1.09327 14.9555 0.80022 14.7378 0.583745C14.5202 0.367269 14.2266 0.244519 13.9198 0.241699H1.4752C1.16651 0.243135 0.870843 0.366378 0.652393 0.584673C0.433942 0.802968 0.310342 1.09869 0.308425 1.40764V10.6659C0.308907 10.9754 0.431989 11.2722 0.650697 11.4911C0.869406 11.71 1.1659 11.8331 1.4752 11.8336H11.8268V10.8118H1.4752C1.45589 10.8121 1.43673 10.8085 1.41883 10.8013C1.40092 10.794 1.38463 10.7833 1.37089 10.7697C1.35715 10.7562 1.34625 10.74 1.3388 10.7221C1.33136 10.7043 1.32753 10.6852 1.32753 10.6659ZM13.3838 1.2562L8.01787 6.32349L2.00754 1.2562L13.3838 1.2562Z" fill="black"/>
</svg>
