<svg width="126" height="67" viewBox="0 0 126 67" fill="none" xmlns="http://www.w3.org/2000/svg">
<g clip-path="url(#clip0_43_1687)">
<path d="M109.405 56.284C109.405 60.6208 106.875 63.1627 102.571 63.1627C79.8405 63.1627 57.1142 63.1627 34.392 63.1627C33.5957 63.1801 32.8005 63.0941 32.0258 62.9069C29.1391 62.0948 27.4776 59.7843 27.4536 56.5195C27.4256 52.4589 27.4536 48.4389 27.4536 44.3986C27.4536 42.6972 26.3486 41.7714 24.9873 42.2465C23.9463 42.6079 23.6861 43.4647 23.6901 44.4798C23.6901 48.5648 23.598 52.6498 23.7422 56.7266C23.7739 58.3373 24.1324 59.9241 24.7951 61.3882C26.6929 65.3148 30.0279 67 34.3079 67C45.6757 66.9783 57.0395 66.9783 68.3993 67C79.8071 67 91.2123 67 102.615 67C108.933 67 113.152 62.8622 113.168 56.552C113.168 52.0529 113.168 47.5537 113.168 43.0546H109.385C109.398 47.4617 109.405 51.8715 109.405 56.284Z" fill="#68798E"/>
<path d="M113.168 10.4804C113.152 4.27582 108.997 0.0365455 102.895 0.0243636C79.9405 -0.00812121 56.9994 -0.00812121 34.0716 0.0243636C27.8139 0.0243636 23.7181 4.27582 23.662 10.6469C23.638 14.4761 23.662 18.3012 23.662 22.1303C23.6498 22.4699 23.6699 22.8098 23.7221 23.1455C23.7744 23.5966 23.9946 24.0104 24.3376 24.3025C24.6806 24.5946 25.1207 24.7428 25.5678 24.7169C26.5367 24.7169 27.1212 24.1322 27.3534 23.2185C27.4292 22.8009 27.4547 22.3755 27.4295 21.9516C27.4295 18.2524 27.4295 14.5532 27.4295 10.854C27.4295 6.38733 29.9118 3.84539 34.2638 3.84133C57.0341 3.84133 79.8031 3.84133 102.571 3.84133C106.863 3.84133 109.377 6.39545 109.377 10.7444C109.377 14.6074 109.377 18.4717 109.377 22.3374H113.156C113.172 18.3851 113.176 14.4327 113.168 10.4804Z" fill="#68798E"/>
<path d="M37.7026 51.2042C36.9462 51.8766 36.2259 52.5896 35.5446 53.3401C34.876 54.1197 34.9521 55.0049 35.6247 55.7765C36.2973 56.548 37.0901 56.5561 37.9108 56.1013C38.2651 55.8759 38.5928 55.6102 38.8877 55.3095L58.5498 37.0368C58.8501 36.7566 59.1744 36.5008 59.5507 36.1759C59.9791 36.5536 60.3515 36.8784 60.7238 37.2195C62.7617 39.1117 64.7916 41.0202 66.8414 42.9043C67.9585 43.9276 68.8433 43.9357 69.9523 42.9531C70.8091 42.2019 71.6259 41.4019 72.4626 40.6304L77.3151 36.1637C77.7675 36.5698 78.1158 36.85 78.4561 37.1626C83.8104 42.1247 89.1607 47.0895 94.5069 52.0569C95.8962 53.3482 97.2735 54.6598 98.7108 55.8983C98.8745 56.0676 99.0711 56.2006 99.2881 56.2889C99.5051 56.3772 99.7378 56.4188 99.9715 56.4112C100.205 56.4036 100.435 56.3468 100.646 56.2446C100.857 56.1423 101.044 55.9967 101.197 55.8171C101.954 55.0618 101.938 54.0832 101.197 53.1817C101.061 53.0203 100.913 52.8683 100.757 52.727L91.7804 44.3499L80.1297 33.4837C80.5661 33.0777 80.8784 32.8219 81.1826 32.5376C86.8972 27.2182 92.6092 21.8975 98.3184 16.5754C99.2713 15.6861 100.252 14.8131 101.153 13.8629C101.954 13.0061 101.954 11.9747 101.213 11.2438C101.06 11.0658 100.873 10.9206 100.663 10.8168C100.454 10.713 100.226 10.6528 99.9934 10.6395C99.7607 10.6263 99.5277 10.6604 99.3081 10.7397C99.0885 10.8191 98.8868 10.9421 98.7148 11.1017C98.1823 11.5077 97.7019 11.9909 97.2094 12.4498L69.2236 38.4783C68.9874 38.6976 68.7112 38.8843 68.4229 39.0833C68.1426 38.8437 67.9144 38.6773 67.7022 38.4661L44.2406 16.6728C42.2948 14.8618 40.3651 13.0183 38.3832 11.26C37.4063 10.387 36.3494 10.4479 35.5807 11.2885C34.812 12.129 34.9481 13.0629 35.8209 14.0131C36.0771 14.2933 36.3614 14.5491 36.6216 14.8253C43.0062 20.7808 49.3947 26.7364 55.7873 32.6919C56.1553 32.9685 56.545 33.2143 56.9523 33.4269C56.3238 33.9263 56.0115 34.1375 55.7512 34.3933C49.7324 39.9861 43.7162 45.5898 37.7026 51.2042Z" fill="#68798E"/>
<path d="M31.2806 35.4126C32.9061 35.4126 33.7709 34.7466 33.799 33.5406C33.827 32.3346 32.9261 31.6078 31.2286 31.5875H10.3614C9.984 31.5751 9.60628 31.5955 9.23233 31.6484C8.23942 31.8271 7.63086 32.4605 7.63086 33.4635C7.63086 34.5477 8.25143 35.1892 9.3004 35.3638C9.67323 35.414 10.0496 35.4317 10.4254 35.4166C13.8659 35.4166 17.3024 35.4166 20.7349 35.4166C24.2422 35.4166 27.7614 35.4247 31.2806 35.4126Z" fill="#68798E"/>
<path d="M8.67567 22.0369C10.8136 22.0369 12.9516 22.0369 15.0816 22.0369C16.683 22.0369 17.5478 21.3141 17.5198 20.0919C17.4918 18.8696 16.651 18.228 15.1176 18.224C10.9111 18.205 6.68584 18.2023 2.44193 18.2159C0.840455 18.2159 -0.0283449 18.9549 -0.00031908 20.1649C0.0277067 21.375 0.860474 22.0166 2.40189 22.0328C4.48381 22.0531 6.58174 22.0369 8.67567 22.0369Z" fill="#68798E"/>
<path d="M15.3185 44.9794C13.7691 44.9428 12.2157 44.9794 10.6662 44.9794C9.11682 44.9794 7.4633 44.955 5.88585 44.9794C4.47655 45.0078 3.65179 45.7347 3.63978 46.8676C3.62777 48.0005 4.44052 48.772 5.84981 48.7842C8.99671 48.8167 12.1423 48.8167 15.2865 48.7842C16.6958 48.7842 17.5246 48.033 17.5326 46.9C17.5406 45.7671 16.7278 45.0078 15.3185 44.9794Z" fill="#68798E"/>
<path d="M125.027 20.5467C124.226 19.6818 123.157 19.7346 122.012 20.7416C118.809 23.5651 115.631 26.3994 112.476 29.2445H112.452C111.074 30.4654 109.7 31.6917 108.328 32.9234C106.878 31.2992 105.433 29.6749 103.976 28.0832C102.903 26.8975 101.774 26.731 100.913 27.5675C100.052 28.404 100.144 29.4597 101.161 30.617C102.562 32.2006 103.984 33.7599 105.397 35.3314C105.429 35.3679 105.465 35.4044 105.497 35.445L106.806 36.9028C107.135 37.2662 107.59 37.4853 108.075 37.5133C108.561 37.5414 109.038 37.3762 109.405 37.053L110.87 35.7455L112.428 34.3527C113.661 33.2523 114.898 32.156 116.127 31.0555C117.356 29.9551 118.473 28.9643 119.642 27.9207C121.244 26.4914 122.865 25.0783 124.447 23.6246C125.652 22.5567 125.844 21.4481 125.027 20.5467Z" fill="#68798E"/>
</g>
<defs>
<clipPath id="clip0_43_1687">
<rect width="126" height="67" fill="white"/>
</clipPath>
</defs>
</svg>
