<svg width="16" height="15" viewBox="0 0 16 15" fill="none" xmlns="http://www.w3.org/2000/svg">
<path d="M8.26692 0.0151367C6.82464 0.0151367 5.41474 0.442823 4.21553 1.24411C3.01632 2.0454 2.08164 3.1843 1.52971 4.5168C0.977769 5.84929 0.833357 7.31553 1.11473 8.7301C1.39611 10.1447 2.09063 11.444 3.11048 12.4639C4.13033 13.4837 5.42969 14.1783 6.84426 14.4596C8.25883 14.741 9.72507 14.5966 11.0576 14.0447C12.3901 13.4927 13.529 12.558 14.3302 11.3588C15.1315 10.1596 15.5592 8.74972 15.5592 7.30744C15.5534 5.37519 14.7832 3.52375 13.4169 2.15743C12.0506 0.791121 10.1992 0.020958 8.26692 0.0151367ZM8.58219 4.17676C9.41919 4.15051 10.2529 4.05986 11.076 3.90563C11.3695 4.90819 11.5181 5.94754 11.5174 6.99217H8.58219V4.17676ZM8.58219 3.57144V0.655145C9.52802 0.834851 10.3446 1.86895 10.8932 3.32867C10.133 3.48736 9.35873 3.5687 8.58219 3.57144ZM7.95164 0.655145V3.57144C7.17603 3.55302 6.40319 3.47183 5.64068 3.32867C6.20187 1.86895 7.02158 0.834851 7.95164 0.655145ZM7.95164 4.17676V7.01424H5.01643C5.03423 5.96599 5.18682 4.92439 5.47043 3.91509C6.28756 4.07933 7.11823 4.16693 7.95164 4.17676ZM4.40795 6.99217H1.57048C1.63526 5.56208 2.1618 4.19151 3.07119 3.08591C3.64376 3.37171 4.24512 3.59577 4.8651 3.75429C4.5651 4.80754 4.41128 5.89703 4.40795 6.99217ZM4.40795 7.59749C4.42571 8.69569 4.57926 9.78748 4.8651 10.848C4.24679 11.0118 3.64597 11.2357 3.07119 11.5164C2.18 10.4061 1.65954 9.04432 1.58309 7.62271L4.40795 7.59749ZM5.01643 7.59749H7.95164V10.435C7.11464 10.4612 6.28091 10.5519 5.45782 10.7061C5.16468 9.70456 5.01605 8.66628 5.01643 7.62271V7.59749ZM7.95164 11.0434V13.9597C7.00582 13.78 6.18926 12.7459 5.64068 11.2862C6.40084 11.1275 7.1751 11.0462 7.95164 11.0434ZM8.58219 13.9597V11.0434C9.3578 11.0619 10.1306 11.1431 10.8932 11.2862C10.332 12.7459 9.52802 13.78 8.58219 13.9597ZM8.58219 10.4381V7.62271H11.53C11.5122 8.67096 11.3596 9.71256 11.076 10.7219C10.2555 10.5494 9.42052 10.4544 8.58219 10.4381ZM12.1385 7.60065H14.976C14.9175 9.03363 14.3953 10.4089 13.4879 11.5195C12.9153 11.2337 12.3139 11.0097 11.694 10.8511C11.9846 9.79974 12.1299 8.71352 12.1259 7.62271L12.1385 7.60065ZM12.1385 6.99532C12.1207 5.89712 11.9672 4.80533 11.6813 3.74484C12.2997 3.58099 12.9005 3.35714 13.4753 3.07645C14.3823 4.18507 14.9006 5.56064 14.9507 6.99217L12.1385 6.99532ZM13.037 2.62876C12.5428 2.86998 12.0223 3.05301 11.4859 3.17419C11.2149 2.32763 10.7619 1.55067 10.1586 0.897906C11.2547 1.20915 12.2482 1.80656 13.037 2.62876ZM6.41625 0.897906C5.8107 1.55062 5.35454 2.32738 5.07949 3.17419C4.55046 3.03838 4.03453 2.85585 3.5378 2.62876C4.31578 1.79461 5.31183 1.19501 6.4131 0.897906H6.41625ZM3.49681 11.9861C3.99102 11.7449 4.51155 11.5619 5.04796 11.4407C5.31892 12.2873 5.77197 13.0642 6.37527 13.717C5.27917 13.4057 4.28567 12.8083 3.49681 11.9861ZM10.1176 13.717C10.7231 13.0643 11.1793 12.2875 11.4543 11.4407C11.9834 11.5765 12.4993 11.759 12.996 11.9861C12.2181 12.8203 11.222 13.4199 10.1207 13.717H10.1176Z" fill="#43566D"/>
</svg>
