<svg width="14" height="14" viewBox="0 0 14 14" fill="none" xmlns="http://www.w3.org/2000/svg">
<g clip-path="url(#clip0_670_3863)">
<path d="M6.92289 0.338135C3.22831 0.338135 0.238281 3.32783 0.238281 7.02275C0.238281 10.7173 3.22797 13.7074 6.92289 13.7074C10.6175 13.7074 13.6075 10.7177 13.6075 7.02275C13.6075 3.32822 10.6178 0.338135 6.92289 0.338135ZM6.92289 12.7746C3.75131 12.7746 1.17102 10.1944 1.17102 7.02275C1.17102 3.85113 3.75131 1.27087 6.92289 1.27087C10.0945 1.27087 12.6748 3.85113 12.6748 7.02275C12.6748 10.1944 10.0945 12.7746 6.92289 12.7746Z" fill="#7C7F84"/>
<path d="M6.92362 5.91016C6.52766 5.91016 6.24609 6.07738 6.24609 6.32374V9.67613C6.24609 9.88732 6.52766 10.0985 6.92362 10.0985C7.30198 10.0985 7.60991 9.88732 7.60991 9.67613V6.32369C7.60991 6.07735 7.30198 5.91016 6.92362 5.91016Z" fill="#7C7F84"/>
<path d="M6.92267 3.84253C6.51791 3.84253 6.20117 4.13289 6.20117 4.46725C6.20117 4.80164 6.51793 5.1008 6.92267 5.1008C7.31863 5.1008 7.63541 4.80164 7.63541 4.46725C7.63541 4.13289 7.3186 3.84253 6.92267 3.84253Z" fill="#7C7F84"/>
</g>
<defs>
<clipPath id="clip0_670_3863">
<rect width="13.3692" height="13.3692" fill="white" transform="translate(0.238281 0.338135)"/>
</clipPath>
</defs>
</svg>
