<svg width="116" height="199" viewBox="0 0 116 199" fill="none" xmlns="http://www.w3.org/2000/svg">
<g clip-path="url(#clip0_109_3663)">
<path d="M19.8332 157.81V162.225H12.3415V185.253H7.49627V162.225H0V157.81H19.8332Z" fill="#00548F"/>
<path d="M22.3711 171.57C22.3711 162.27 26.7443 157.62 35.4907 157.62C44.1104 157.62 48.4188 162.27 48.4158 171.57C48.4158 180.819 44.1074 185.445 35.4907 185.448C27.1303 185.448 22.7571 180.822 22.3711 171.57ZM35.4907 181.033C40.7627 181.033 43.3957 177.841 43.3896 171.457C43.3896 165.176 40.7566 162.035 35.4907 162.035C30.0951 162.035 27.3973 165.176 27.3973 171.457C27.3973 177.841 30.0951 181.033 35.4907 181.033Z" fill="#00548F"/>
<path d="M70.7961 157.81V162.225H63.2998V185.253H58.4592V162.225H50.9629V157.81H70.7961Z" fill="#00548F"/>
<path d="M74.1936 185.253H69.2217L80.3191 157.81H85.5262L96.8588 185.253H91.6517L88.6704 177.77H79.9888L81.6536 173.355H86.9151L82.8027 163.047L74.1936 185.253Z" fill="#00548F"/>
<path d="M105.618 157.81V180.843H116V185.253H100.772V157.81H105.618Z" fill="#00548F"/>
<path d="M1.67388 198.936H0L3.7323 189.704H5.48762L9.29683 198.936H7.54604L6.54171 196.415H3.62373L4.18018 194.933H5.95359L4.56924 191.466L1.67388 198.936Z" fill="#00548F"/>
<path d="M17.499 189.704L13.6445 198.936H11.8892L8.20215 189.704H10.1384L12.8619 196.772L15.5808 189.704H17.499Z" fill="#00548F"/>
<path d="M19.7204 189.704H18.0918V198.936H19.7204V189.704Z" fill="#00548F"/>
<path d="M22.1446 198.936H20.4707L24.203 189.704H25.9583L29.7675 198.936H28.0167L27.0169 196.415H24.0944L24.6509 194.933H26.4243L25.0399 191.466L22.1446 198.936Z" fill="#00548F"/>
<path d="M35.3412 189.704V191.186H32.8214V198.936H31.1927V191.186H28.6729V189.704H35.3412Z" fill="#00548F"/>
<path d="M37.5671 189.704H35.9385V198.936H37.5671V189.704Z" fill="#00548F"/>
<path d="M38.7754 194.314C38.7754 191.187 40.2472 189.622 43.1908 189.619C46.1344 189.616 47.5836 191.181 47.5384 194.314C47.5384 197.426 46.0892 198.982 43.1908 198.982C40.3829 198.982 38.9111 197.426 38.7754 194.314ZM43.1908 197.478C44.9642 197.478 45.8494 196.404 45.8464 194.256C45.8434 192.108 44.9582 191.053 43.1908 191.092C41.3812 191.092 40.4764 192.147 40.4764 194.256C40.4764 196.364 41.3812 197.438 43.1908 197.478Z" fill="#00548F"/>
<path d="M48.7461 198.936V189.704H50.3793L55.0209 196.428V189.704H56.5862V198.936H54.9576L50.3159 192.068V198.936H48.7461Z" fill="#00548F"/>
<path d="M66.2905 189.704V191.186H63.7751V198.936H62.1419V191.186H59.6221V189.704H66.2905Z" fill="#00548F"/>
<path d="M66.8877 198.923V189.704H70.8824C72.692 189.704 73.5968 190.527 73.5968 192.176C73.5968 193.288 72.8956 194.214 71.4977 194.946L74.2844 198.936H72.2305L69.5569 194.914V194.133C71.1131 193.852 71.8912 193.217 71.8912 192.226C71.8912 191.548 71.5293 191.204 70.801 191.204H68.5661V198.923H66.8877Z" fill="#00548F"/>
<path d="M75.6098 198.936H73.9404L77.6727 189.704H79.4235L83.2373 198.936H81.4819L80.4821 196.415H77.5596L78.1206 194.933H79.8895L78.5097 191.466L75.6098 198.936Z" fill="#00548F"/>
<path d="M85.612 189.704H83.9834V198.936H85.612V189.704Z" fill="#00548F"/>
<path d="M87.1279 198.936V189.704H88.7611L93.4027 196.428V189.704H94.968V198.936H93.3394L88.6978 192.068V198.936H87.1279Z" fill="#00548F"/>
<path d="M98.1169 189.704H96.4883V198.936H98.1169V189.704Z" fill="#00548F"/>
<path d="M99.6367 198.936V189.704H101.265L105.907 196.428V189.704H107.477V198.936H105.844L101.202 192.068V198.936H99.6367Z" fill="#00548F"/>
<path d="M116 198.507C115.158 198.861 114.249 199.029 113.335 199C110.232 199 108.682 197.397 108.685 194.192C108.685 191.155 110.262 189.637 113.417 189.637C114.299 189.624 115.175 189.777 116 190.088V191.638C115.226 191.291 114.387 191.116 113.539 191.123C111.428 191.123 110.372 192.146 110.372 194.192C110.372 196.406 111.369 197.513 113.362 197.513C113.704 197.507 114.043 197.455 114.371 197.359V194.675H116V198.507Z" fill="#00548F"/>
<mask id="mask0_109_3663" style="mask-type:luminance" maskUnits="userSpaceOnUse" x="0" y="128" width="41" height="17">
<path d="M0 128.649L9.43707 144.954H40.4175L30.9849 128.649H0Z" fill="white"/>
</mask>
<g mask="url(#mask0_109_3663)">
<path d="M40.4175 128.649H0V144.958H40.4175V128.649Z" fill="url(#paint0_linear_109_3663)"/>
</g>
<mask id="mask1_109_3663" style="mask-type:luminance" maskUnits="userSpaceOnUse" x="0" y="42" width="64" height="103">
<path d="M0 128.649L9.43707 144.953L63.9739 50.5483L49.8364 42.3916L0 128.649Z" fill="white"/>
</mask>
<g mask="url(#mask1_109_3663)">
<path d="M13.7353 16.1495L-42.1533 122.935L50.2505 171.188L106.139 64.4028L13.7353 16.1495Z" fill="url(#paint1_linear_109_3663)"/>
</g>
<mask id="mask2_109_3663" style="mask-type:luminance" maskUnits="userSpaceOnUse" x="49" y="42" width="67" height="103">
<path d="M49.8369 42.3916L106.581 144.953L116 128.649L66.1686 42.3916H49.8369Z" fill="white"/>
</mask>
<g mask="url(#mask2_109_3663)">
<path d="M99.5879 13.8585L5.49023 67.8408L66.243 173.503L160.341 119.52L99.5879 13.8585Z" fill="url(#paint2_linear_109_3663)"/>
</g>
<mask id="mask3_109_3663" style="mask-type:luminance" maskUnits="userSpaceOnUse" x="37" y="128" width="79" height="17">
<path d="M37.4541 128.649L46.8912 144.954H106.581L116 128.649H37.4541Z" fill="white"/>
</mask>
<g mask="url(#mask3_109_3663)">
<path d="M116 128.649H37.4541V144.958H116V128.649Z" fill="url(#paint3_linear_109_3663)"/>
</g>
<mask id="mask4_109_3663" style="mask-type:luminance" maskUnits="userSpaceOnUse" x="37" y="82" width="42" height="63">
<path d="M37.4541 128.649L46.8912 144.953C63.7883 127.397 73.2887 109.895 78.428 94.0746L71.9677 82.3887C59.4905 110.406 37.4541 128.649 37.4541 128.649Z" fill="white"/>
</mask>
<g mask="url(#mask4_109_3663)">
<path d="M48.6733 64.1312L9.52539 127.818L67.212 163.198L106.36 99.5112L48.6733 64.1312Z" fill="url(#paint4_linear_109_3663)"/>
</g>
<mask id="mask5_109_3663" style="mask-type:luminance" maskUnits="userSpaceOnUse" x="78" y="31" width="6" height="41">
<path d="M78.297 63.3872L83.1694 71.8241C85.6847 47.7608 79.0978 31.3525 79.0978 31.3525C80.9377 41.9808 80.6578 52.8673 78.2744 63.3872" fill="white"/>
</mask>
<g mask="url(#mask5_109_3663)">
<path d="M78.6208 29.8262L69.9561 70.0273L85.3558 73.3391L94.0206 33.138L78.6208 29.8262Z" fill="url(#paint5_linear_109_3663)"/>
</g>
<path fill-rule="evenodd" clip-rule="evenodd" d="M84.9518 28.415C84.703 27.2853 83.3141 27.4706 82.1741 27.579C80.9074 27.701 79.3104 28.0309 78.4418 27.4299C77.6546 26.8876 77.7677 25.1704 77.2791 24.0452C76.5824 22.45 75.6912 20.9362 74.8859 19.3907C74.5919 18.8304 74.3023 18.2655 73.868 17.425C75.456 16.7833 76.9217 15.9744 78.4916 15.5903C82.2962 14.6865 86.1507 13.9409 89.9961 13.1365C89.8378 12.2327 89.218 11.9164 88.1503 11.8577C82.5315 11.5142 76.9172 11.0714 71.2984 10.7189C70.9258 10.7267 70.5596 10.6217 70.2479 10.4176C69.9362 10.2135 69.6936 9.91999 69.5521 9.57561C68.5207 7.5692 67.5209 5.53569 66.322 3.6287C65.4983 2.44774 64.557 1.3531 63.5126 0.361514C63.2773 0.103935 62.7571 0.112973 62.3725 0C62.2549 0.37959 61.9608 0.808888 62.0378 1.14781C62.2917 2.56455 62.6857 3.95263 63.214 5.29166C64.1188 7.34326 65.286 9.29995 66.3808 11.2702C66.5921 11.5774 66.7051 11.9414 66.7051 12.3141C66.7051 12.6868 66.5921 13.0507 66.3808 13.3579C63.5578 18.2294 60.8208 23.1459 57.9978 28.0173C57.4595 28.9211 57.3916 29.6351 58.0431 30.2542C60.8434 27.5022 63.5804 24.6959 66.4577 22.0388C67.643 20.9497 69.1314 20.177 70.5293 19.2145C70.9817 20.0369 71.2984 20.5928 71.6015 21.1486C72.443 22.6715 73.2166 24.2486 74.1621 25.7127C74.8181 26.7385 76.3246 27.6016 76.3427 28.5506C76.3427 29.608 75.1981 30.7558 74.3973 31.7138C73.6825 32.6176 72.7551 33.657 73.5559 34.493L84.9518 28.415Z" fill="#00548F"/>
</g>
<defs>
<linearGradient id="paint0_linear_109_3663" x1="66.7007" y1="136.112" x2="13.7637" y2="136.112" gradientUnits="userSpaceOnUse">
<stop stop-color="#212970"/>
<stop offset="0.51" stop-color="#007FB4"/>
<stop offset="1" stop-color="#212970"/>
</linearGradient>
<linearGradient id="paint1_linear_109_3663" x1="58.2798" y1="52.1055" x2="-14.5071" y2="191.49" gradientUnits="userSpaceOnUse">
<stop stop-color="#212970"/>
<stop offset="0.51" stop-color="#007FB4"/>
<stop offset="1" stop-color="#212970"/>
</linearGradient>
<linearGradient id="paint2_linear_109_3663" x1="34.3924" y1="1.43501" x2="113.9" y2="140.025" gradientUnits="userSpaceOnUse">
<stop stop-color="#212970"/>
<stop offset="0.51" stop-color="#007FB4"/>
<stop offset="1" stop-color="#212970"/>
</linearGradient>
<linearGradient id="paint3_linear_109_3663" x1="153.884" y1="137.82" x2="45.2571" y2="137.82" gradientUnits="userSpaceOnUse">
<stop stop-color="#212970"/>
<stop offset="0.51" stop-color="#007FB4"/>
<stop offset="1" stop-color="#212970"/>
</linearGradient>
<linearGradient id="paint4_linear_109_3663" x1="82.6111" y1="71.5494" x2="0.0330828" y2="206.192" gradientUnits="userSpaceOnUse">
<stop stop-color="#212970"/>
<stop offset="0.51" stop-color="#007FB4"/>
<stop offset="1" stop-color="#212970"/>
</linearGradient>
<linearGradient id="paint5_linear_109_3663" x1="89.961" y1="11.6274" x2="77.357" y2="70.2364" gradientUnits="userSpaceOnUse">
<stop stop-color="#212970"/>
<stop offset="0.51" stop-color="#007FB4"/>
<stop offset="1" stop-color="#212970"/>
</linearGradient>
<clipPath id="clip0_109_3663">
<rect width="116" height="199" fill="white"/>
</clipPath>
</defs>
</svg>
