<svg width="65" height="64" viewBox="0 0 65 64" fill="none" xmlns="http://www.w3.org/2000/svg">
<path d="M17.4068 54.8006C16.8508 55.7647 16.323 56.6866 15.7882 57.6156C15.6986 57.7182 15.5772 57.7876 15.4433 57.8126C13.7402 58.1645 13.7332 58.1645 12.4031 57.0526C11.5375 56.3488 10.6578 55.6451 9.81328 54.8569C9.62842 54.6626 9.50587 54.4176 9.4614 54.1531C9.33547 53.6243 9.38961 53.0685 9.61524 52.5739C9.84088 52.0793 10.2251 51.6741 10.707 51.4226C11.5072 50.8386 12.2711 50.2064 12.9942 49.5295C13.159 49.4273 13.3008 49.2921 13.4109 49.1326C13.5209 48.973 13.5968 48.7924 13.6338 48.6021C13.6708 48.4118 13.6681 48.2159 13.6259 48.0267C13.5836 47.8376 13.5028 47.6591 13.3884 47.5026C12.0864 45.2366 10.7563 42.9845 9.47548 40.7044C8.94062 39.7543 8.5043 38.7479 8.03278 37.7556C7.56127 36.7634 6.84344 36.517 6.09042 36.876C5.3374 37.2349 5.14035 37.9949 5.54853 38.9098L5.87929 39.6136L2.8813 40.7185C2.76764 40.7428 2.65012 40.7428 2.53646 40.7185C2.50127 40.7185 2.47312 40.6833 2.43794 40.6692C0.924864 39.8669 0.931902 39.8669 0.643362 38.199C0.446311 37.08 0.24926 35.9681 0.017021 34.8632C-0.011393 34.6931 -0.00417145 34.5189 0.0382282 34.3518C0.0806279 34.1846 0.157282 34.028 0.263335 33.892C0.515053 33.453 0.898754 33.1045 1.3599 32.896C1.82104 32.6876 2.33616 32.6298 2.83204 32.7308C3.88063 32.8294 4.9433 32.7308 6.01301 32.7308C6.18983 32.7472 6.36815 32.7282 6.53755 32.675C6.70695 32.6217 6.86404 32.5352 6.99965 32.4205C7.13526 32.3059 7.24668 32.1654 7.32739 32.0072C7.40811 31.849 7.45652 31.6764 7.46978 31.4993C7.96944 28.7335 8.43392 25.9678 8.96174 23.2091C9.15175 22.2097 9.48252 21.2315 9.72883 20.2392C9.79848 19.9197 9.74928 19.5858 9.59046 19.3C9.43165 19.0142 9.17409 18.7961 8.86602 18.6865C8.55796 18.5769 8.22051 18.5833 7.91686 18.7046C7.61322 18.8259 7.36419 19.0538 7.21643 19.3454C7.1418 19.5236 7.08064 19.7071 7.03345 19.8944L6.80825 20.5981C5.77373 20.2181 4.78144 19.8592 3.79618 19.4792C3.67654 19.412 3.58435 19.3049 3.53579 19.1765C2.8813 17.6072 2.8813 17.6001 3.74692 16.0941C4.31696 15.1018 4.87293 14.0954 5.47815 13.1243C5.6409 12.9156 5.86104 12.7591 6.11153 12.6739C6.59896 12.4543 7.14586 12.4044 7.665 12.5319C8.18414 12.6595 8.64561 12.9572 8.97581 13.3776C9.69692 14.0972 10.4658 14.7673 11.2771 15.3833C11.4017 15.5185 11.5529 15.6264 11.7213 15.7002C11.8896 15.774 12.0715 15.8122 12.2553 15.8122C12.4391 15.8122 12.621 15.774 12.7894 15.7002C12.9577 15.6264 13.109 15.5185 13.2335 15.3833C15.2674 13.6802 17.2801 11.956 19.3351 10.2811C20.2077 9.57733 21.1719 8.9721 22.0938 8.31761C22.3231 8.17088 22.5016 7.95698 22.6048 7.70509C22.7081 7.4532 22.7312 7.17558 22.6709 6.9101C22.628 6.64379 22.4973 6.39944 22.2997 6.21585C22.1021 6.03225 21.8488 5.91992 21.58 5.8967C21.2525 5.87998 20.9259 5.94529 20.63 6.08671C20.3158 6.25798 20.0168 6.45575 19.7362 6.67786C19.1802 5.7278 18.6313 4.7918 18.1035 3.86285C18.059 3.73525 18.059 3.59634 18.1035 3.46874C18.6102 1.85715 18.6172 1.85715 20.2148 1.26599C21.3056 0.864853 22.3964 0.449638 23.5013 0.0836861C23.76 0.0281604 24.0292 0.050193 24.2754 0.147024C24.7973 0.291241 25.256 0.605753 25.5786 1.04057C25.9012 1.47539 26.0692 2.00556 26.0559 2.54683C26.1659 3.56685 26.3351 4.57962 26.5626 5.58001C26.6051 5.92736 26.7807 6.24469 27.0524 6.46521C27.3241 6.68573 27.6707 6.79224 28.0194 6.76231C30.2644 6.76231 32.5094 6.76231 34.7543 6.76231C36.1618 6.76231 37.5693 6.93121 38.9276 7.0227C39.1458 7.0227 39.3569 7.06493 39.568 7.05789C39.8974 7.06118 40.216 6.94084 40.4609 6.72064C40.7059 6.50045 40.8594 6.1964 40.8911 5.86855C40.9398 5.53123 40.8544 5.18825 40.653 4.91325C40.4517 4.63824 40.1506 4.45315 39.8143 4.3977C39.4554 4.32732 39.1106 4.30621 38.6602 4.25695C38.8502 3.1802 39.0261 2.14569 39.2232 1.06894C39.2666 0.959515 39.3368 0.862727 39.4273 0.78744C39.4626 0.751454 39.5029 0.720653 39.5469 0.695952C40.9966 -0.176703 40.9544 -0.176703 42.573 0.407413C43.6498 0.808553 44.7336 1.18154 45.8033 1.6038C46.0335 1.70157 46.2209 1.87893 46.3311 2.10346C46.9574 3.60246 46.9504 3.60949 46.134 5.03108C45.6273 5.90373 45.1206 6.77639 44.621 7.64904C44.4996 7.80319 44.4117 7.98101 44.3631 8.17109C44.3145 8.36118 44.3061 8.55934 44.3386 8.75284C44.3711 8.94634 44.4437 9.13092 44.5517 9.29472C44.6597 9.45852 44.8007 9.59793 44.9658 9.70401C46.8096 11.2523 48.6746 12.7653 50.4832 14.3488C51.4826 15.2144 52.3834 16.1926 53.2983 17.1216C53.4164 17.2667 53.5634 17.3857 53.73 17.4711C53.8966 17.5564 54.0791 17.6062 54.2659 17.6173C54.4528 17.6284 54.6399 17.6006 54.8154 17.5356C54.9909 17.4706 55.151 17.3698 55.2856 17.2397C55.4201 17.1096 55.5261 16.9529 55.5969 16.7797C55.6677 16.6064 55.7018 16.4203 55.6969 16.2332C55.692 16.0461 55.6483 15.8621 55.5685 15.6928C55.4888 15.5234 55.3747 15.3725 55.2336 15.2496C54.991 15.0415 54.7322 14.8532 54.4594 14.6866C55.4517 13.8491 56.2681 13.1524 57.0985 12.4768C57.2359 12.4092 57.3904 12.3847 57.5419 12.4064C58.1022 12.3751 58.6573 12.528 59.1224 12.8419C59.5876 13.1558 59.9371 13.6134 60.1176 14.1447C60.568 15.1863 61.2577 16.1293 61.8066 17.1427C61.9103 17.3624 61.9327 17.6117 61.87 17.8464C61.3492 19.4229 61.3422 19.4158 59.7587 19.9577C58.8298 20.2885 57.9008 20.6192 56.9437 20.9641C56.7515 21.0057 56.5702 21.0871 56.4114 21.203C56.2526 21.319 56.1198 21.4669 56.0217 21.6373C55.9236 21.8077 55.8622 21.9968 55.8416 22.1924C55.821 22.3879 55.8417 22.5856 55.9021 22.7727C56.3666 25.4329 56.8522 28.0931 57.2674 30.7603C57.4363 31.7878 57.4504 32.8364 57.5419 33.878C57.5437 34.0594 57.5817 34.2386 57.6539 34.405C57.726 34.5715 57.8308 34.7218 57.962 34.8471C58.0932 34.9723 58.2482 35.0701 58.4178 35.1345C58.5873 35.1989 58.7681 35.2287 58.9494 35.2221C59.1352 35.2227 59.319 35.1848 59.4894 35.1107C59.6598 35.0367 59.8129 34.9281 59.9392 34.7919C60.0655 34.6557 60.1622 34.4947 60.2232 34.3193C60.2842 34.1438 60.3082 33.9576 60.2936 33.7724C60.2936 33.4557 60.2936 33.139 60.2936 32.759C61.3703 32.759 62.4611 32.759 63.552 32.759C63.6646 32.759 63.7842 32.8927 63.8827 32.9772C64.3255 33.3 64.6509 33.7585 64.8097 34.283C64.9684 34.8075 64.9518 35.3694 64.7624 35.8837C64.4635 37.0665 64.2286 38.2647 64.0587 39.4728C64.0494 39.6115 63.9893 39.7418 63.8898 39.8388C63.3831 40.1555 62.8623 40.4581 62.3274 40.7325C62.1599 40.7629 61.9871 40.7382 61.8348 40.6622L57.9008 39.2547C57.7278 39.1633 57.5376 39.1091 57.3425 39.0953C57.1473 39.0816 56.9514 39.1087 56.7673 39.175C56.5833 39.2412 56.415 39.3451 56.2733 39.4799C56.1316 39.6148 56.0196 39.7778 55.9444 39.9584C54.6987 42.1119 53.4812 44.2865 52.1934 46.4189C51.5529 47.4886 50.7859 48.4668 50.0821 49.5224C49.8835 49.8678 49.7952 50.2655 49.8287 50.6625C49.8547 50.9304 49.9703 51.1817 50.1567 51.3758C50.3432 51.5699 50.5896 51.6955 50.8562 51.7322C51.0987 51.7929 51.3537 51.7805 51.5891 51.6966C51.8245 51.6127 52.0299 51.461 52.1793 51.2607C52.4186 50.9722 52.6156 50.6625 52.883 50.3036C53.7487 51.0073 54.6002 51.7111 55.4166 52.4712C55.5432 52.5838 55.4729 52.9075 55.5151 53.1256C55.6158 53.5969 55.5613 54.0881 55.3596 54.5258C55.1578 54.9635 54.8198 55.324 54.3961 55.5536C53.4038 56.2573 52.5241 57.1089 51.5811 57.876C51.3854 57.998 51.1569 58.0569 50.9266 58.0449C50.3843 58.0871 49.8437 57.9456 49.3917 57.643C48.9397 57.3404 48.6028 56.8944 48.4353 56.377C48.0171 55.5211 47.5471 54.6914 47.0278 53.8927C46.4718 52.9286 45.9511 52.7315 44.9165 53.1045C42.4745 53.9913 40.0466 54.8991 37.5975 55.7506C36.5489 56.1166 35.4862 56.3418 34.3813 56.6374C34.1993 56.674 34.0267 56.7476 33.8742 56.8535C33.7217 56.9595 33.5925 57.0956 33.4947 57.2534C33.3968 57.4112 33.3324 57.5875 33.3054 57.7712C33.2783 57.9549 33.2893 58.1422 33.3375 58.3216C33.3857 58.5009 33.4701 58.6684 33.5857 58.8138C33.7012 58.9592 33.8453 59.0794 34.0091 59.1669C34.1728 59.2544 34.3528 59.3074 34.5379 59.3226C34.723 59.3378 34.9092 59.3149 35.0851 59.2553L36.007 59.0231C36.197 60.0998 36.387 61.1344 36.5559 62.183C36.561 62.336 36.5111 62.4858 36.4152 62.6052C35.4299 63.9705 35.4299 63.9705 33.7409 63.9705C32.5586 63.9705 31.3763 63.9705 30.2222 63.9705C29.96 63.9369 29.7145 63.824 29.5184 63.6468C29.1015 63.3394 28.7968 62.904 28.6506 62.4071C28.5045 61.9103 28.525 61.3792 28.7091 60.8951C28.9467 59.8424 29.1136 58.775 29.2087 57.7C29.2574 57.5286 29.2712 57.3491 29.2491 57.1722C29.2271 56.9953 29.1697 56.8247 29.0805 56.6704C28.9912 56.5162 28.8718 56.3814 28.7294 56.2742C28.587 56.1669 28.4246 56.0894 28.2516 56.0462C25.873 55.1876 23.4732 54.3502 21.1296 53.4775C19.9403 53.0201 18.8073 52.443 17.6461 51.9293C17.3839 51.7949 17.0849 51.7504 16.795 51.8025C16.5051 51.8546 16.2404 52.0005 16.0415 52.2178C15.8416 52.4208 15.7151 52.6846 15.6819 52.9676C15.6488 53.2505 15.7109 53.5365 15.8585 53.7801C16.0171 54.0113 16.2235 54.2057 16.4638 54.3502C16.7683 54.52 17.0833 54.6704 17.4068 54.8006ZM32.4882 53.6675C36.8878 53.666 41.1884 52.3621 44.8479 49.9201C48.5075 47.4781 51.3622 44.0073 53.0521 39.9453C54.7421 35.8833 55.1917 31.4119 54.3442 27.0948C53.4967 22.7776 51.3901 18.808 48.29 15.6864C45.1899 12.5647 41.2349 10.4307 36.9238 9.55333C32.6126 8.67599 28.1382 9.09461 24.0646 10.7564C19.991 12.4182 16.5006 15.2488 14.0333 18.8914C11.566 22.5339 10.2323 26.8254 10.2003 31.2248C10.1799 34.1647 10.7413 37.0796 11.8523 39.8016C12.9632 42.5236 14.6017 44.9989 16.6733 47.0849C18.745 49.171 21.2089 50.8265 23.9231 51.9563C26.6374 53.086 29.5483 53.6676 32.4882 53.6675Z" fill="#337299"/>
<path d="M52.052 31.4429C52.0436 35.3152 50.8866 39.098 48.7276 42.3126C46.5686 45.5272 43.5044 48.0291 39.923 49.5016C36.3415 50.9742 32.4038 51.3512 28.608 50.5849C24.8122 49.8187 21.329 47.9437 18.5992 45.1972C15.8695 42.4506 14.0158 38.9561 13.2728 35.1557C12.5298 31.3553 12.9309 27.4199 14.4253 23.8475C15.9198 20.2751 18.4403 17.2264 21.6681 15.087C24.8958 12.9477 28.6856 11.8139 32.558 11.8293C37.7431 11.8479 42.7088 13.9241 46.364 17.6018C50.0192 21.2795 52.065 26.2577 52.052 31.4429ZM32.5368 14.0672C29.1023 14.0575 25.7419 15.0663 22.8806 16.966C20.0192 18.8658 17.7854 21.5713 16.4614 24.7404C15.1374 27.9096 14.7828 31.4001 15.4422 34.7708C16.1017 38.1414 17.7457 41.2409 20.1665 43.6774C22.5872 46.1139 25.676 47.778 29.0423 48.4593C32.4087 49.1406 35.9014 48.8085 39.0791 47.5051C42.2567 46.2017 44.9766 43.9854 46.8949 41.1365C48.8132 38.2875 49.8437 34.9338 49.8562 31.4992C49.8693 26.8914 48.0524 22.467 44.8048 19.1983C41.5572 15.9295 37.1446 14.084 32.5368 14.0672Z" fill="#337299"/>
<path d="M32.4321 35.5034C31.6185 35.4893 30.8275 35.234 30.1591 34.7698C29.4908 34.3057 28.9753 33.6536 28.6779 32.8962C28.3805 32.1388 28.3146 31.3101 28.4886 30.5153C28.6626 29.7204 29.0686 28.9951 29.6553 28.4312C30.2419 27.8673 30.9827 27.4902 31.7838 27.3477C32.5849 27.2052 33.4103 27.3037 34.1554 27.6308C34.9005 27.9578 35.5317 28.4987 35.9691 29.1848C36.4065 29.8709 36.6304 30.6715 36.6124 31.485C36.5793 32.5683 36.1232 33.5957 35.3418 34.3468C34.5604 35.0979 33.5159 35.5131 32.4321 35.5034ZM32.5095 32.7447C32.8645 32.727 33.1996 32.5757 33.4476 32.3212C33.6957 32.0666 33.8382 31.7277 33.8466 31.3724C33.8158 31.0279 33.6553 30.708 33.3976 30.4773C33.14 30.2465 32.8044 30.1222 32.4586 30.1293C32.1128 30.1365 31.7826 30.2746 31.5348 30.5158C31.2869 30.757 31.1397 31.0832 31.1231 31.4287C31.1461 31.7823 31.3016 32.1142 31.5586 32.3581C31.8156 32.6021 32.1552 32.7401 32.5095 32.7447Z" fill="#337299"/>
<path d="M29.4767 25.236L28.1677 26.0946L22.3969 22.8644C22.2372 22.7838 22.099 22.6662 21.9937 22.5215C21.8885 22.3768 21.8192 22.2091 21.7917 22.0323C21.7642 21.8555 21.7792 21.6747 21.8355 21.5049C21.8918 21.3351 21.9878 21.1811 22.1154 21.0557C22.8294 20.4033 23.5764 19.7879 24.3534 19.2119C24.4324 19.1769 24.519 19.1625 24.6051 19.1698C24.6912 19.1772 24.7741 19.2062 24.846 19.2541C26.691 20.9954 28.2533 23.0136 29.4767 25.236Z" fill="#337299"/>
<path d="M35.4932 37.5519L36.7881 36.6934C38.7304 37.7842 40.6376 38.8398 42.5377 39.9166C42.7032 39.9952 42.847 40.113 42.9566 40.2598C43.0662 40.4065 43.1383 40.5778 43.1668 40.7588C43.1952 40.9398 43.179 41.1249 43.1197 41.2982C43.0604 41.4716 42.9597 41.6278 42.8263 41.7534C42.1219 42.3945 41.3843 42.9982 40.6165 43.562C40.5299 43.5972 40.4361 43.6111 40.3431 43.6025C40.25 43.5939 40.1603 43.5631 40.0816 43.5127C38.248 41.7797 36.6994 39.768 35.4932 37.5519Z" fill="#337299"/>
<path d="M34.6695 24.9259C34.508 24.8656 34.3405 24.8231 34.1698 24.7992C33.1775 24.7992 32.9453 24.2503 32.7623 23.3917C32.4386 21.759 31.9389 20.1544 31.4603 18.5499C31.1296 17.4239 31.594 16.7271 32.7764 16.7834C33.5997 16.8186 34.4231 16.9523 35.2465 17.0368C35.3076 17.0352 35.3684 17.047 35.4245 17.0711C35.4806 17.0953 35.5309 17.1314 35.5717 17.177C35.6125 17.2225 35.6429 17.2763 35.6609 17.3347C35.6789 17.3931 35.684 17.4548 35.6758 17.5154C35.7176 19.9406 35.4167 22.3596 34.7821 24.7007C34.7518 24.7792 34.7141 24.8546 34.6695 24.9259Z" fill="#337299"/>
<path d="M26.0002 29.1913L25.6554 30.824C24.7124 31.0281 23.7412 31.197 22.7982 31.4503C21.7356 31.7103 20.6878 32.0275 19.6594 32.4004C19.4481 32.5157 19.2081 32.5677 18.9681 32.5501C18.7281 32.5326 18.4981 32.4463 18.3059 32.3015C18.1136 32.1568 17.9671 31.9597 17.8839 31.7338C17.8007 31.508 17.7843 31.263 17.8367 31.0281C17.9352 30.261 17.9845 29.4798 18.0689 28.7127C18.0689 28.4171 18.1886 28.1849 18.5827 28.1849C21.0212 28.146 23.4527 28.4564 25.8032 29.1068L26.0002 29.1913Z" fill="#337299"/>
<path d="M26.3233 34.3984L27.1819 35.6933C26.084 37.6568 25.0284 39.564 23.9587 41.4641C23.8803 41.6248 23.7645 41.7643 23.6211 41.8711C23.4776 41.9778 23.3107 42.0486 23.1343 42.0775C22.9579 42.1065 22.7771 42.0927 22.6071 42.0374C22.437 41.9821 22.2827 41.8869 22.1571 41.7597C21.4885 41.056 20.9044 40.2748 20.2921 39.5218C20.0388 39.2192 20.2921 39.0432 20.4822 38.8602C21.9347 37.3626 23.5711 36.055 25.3521 34.9685L26.3233 34.3984Z" fill="#337299"/>
<path d="M38.9551 33.6178L39.2929 32.1047L45.5633 30.3242C45.7445 30.2488 45.9422 30.2218 46.1369 30.2458C46.3317 30.2698 46.5169 30.3439 46.6744 30.461C46.8319 30.578 46.9562 30.734 47.0354 30.9136C47.1145 31.0931 47.1456 31.2902 47.1257 31.4854C47.0869 32.3665 47.0024 33.2451 46.8723 34.1174C46.8723 34.2934 46.5908 34.5749 46.436 34.5749C43.9078 34.6465 41.3838 34.3236 38.9551 33.6178Z" fill="#337299"/>
<path d="M30.2784 37.8828L31.8548 38.2136C32.1785 39.5718 32.4882 40.9301 32.833 42.2742C33.009 42.978 33.2483 43.6184 33.4735 44.287C33.8324 45.3426 33.3397 46.0745 32.2489 46.0323C31.4044 46.0323 30.5599 45.8775 29.7154 45.793C29.4409 45.793 29.265 45.6593 29.258 45.3356C29.2132 42.8546 29.5382 40.3807 30.2221 37.9954C30.237 37.956 30.2558 37.9183 30.2784 37.8828Z" fill="#337299"/>
<path d="M38.6387 28.3888L37.7871 27.1009C38.8779 25.1445 39.8984 23.2373 41.0033 21.3372C41.0842 21.1727 41.2038 21.0303 41.3518 20.9221C41.4998 20.814 41.6719 20.7434 41.8532 20.7164C42.0345 20.6895 42.2197 20.7069 42.3928 20.7672C42.5659 20.8275 42.7218 20.9289 42.8471 21.0627C43.49 21.7657 44.0937 22.5034 44.6558 23.2725C44.692 23.3596 44.7053 23.4545 44.6942 23.5482C44.6831 23.6419 44.648 23.7312 44.5924 23.8074C42.8538 25.6299 40.8458 27.1751 38.6387 28.3888Z" fill="#337299"/>
<path d="M28.5754 17.2695L28.871 19.5497L27.2031 17.7199L28.5754 17.2695Z" fill="#337299"/>
<path d="M36.0918 43.2236L37.7667 45.0675L36.3592 45.5249L36.0918 43.2236Z" fill="#337299"/>
<path d="M39.7161 18.6494L38.3086 20.4581L38.4353 18.002L39.7161 18.6494Z" fill="#337299"/>
<path d="M43.4111 37.207L45.8883 37.3407L45.2339 38.6286L43.4111 37.207Z" fill="#337299"/>
<path d="M21.517 25.5667L19.082 25.4611L19.7224 24.1592L21.517 25.5667Z" fill="#337299"/>
<path d="M44.3115 27.7902L46.1694 26.1152L46.5987 27.4735L44.3115 27.7902Z" fill="#337299"/>
<path d="M18.3564 35.2999L20.6155 35.0254L18.8139 36.6722L18.3564 35.2999Z" fill="#337299"/>
<path d="M26.5338 44.7932L25.2529 44.1387L26.6604 42.3301L26.5338 44.7932Z" fill="#337299"/>
</svg>
