<svg width="16" height="17" viewBox="0 0 16 17" fill="none" xmlns="http://www.w3.org/2000/svg">
<path d="M4.23864 0.95L4.23856 0.95L1.09273 3.42567C1.04817 3.46228 1.01227 3.5083 0.987596 3.56042C0.962912 3.61256 0.950073 3.66952 0.95 3.72721V3.72727V14.6364C0.95 15.4135 1.58647 16.05 2.36364 16.05H11.9091C12.6863 16.05 13.3227 15.4135 13.3227 14.6364V14.5864H13.2727H12.5909H12.5409V14.6364C12.5409 14.9924 12.2651 15.2682 11.9091 15.2682H2.36364C2.00763 15.2682 1.73182 14.9924 1.73182 14.6364V4.45909H3.38636C4.16353 4.45909 4.8 3.82263 4.8 3.04545V1.73182H11.9091C12.2651 1.73182 12.5409 2.00763 12.5409 2.36364V3.38636V3.43636H12.5909H13.2727H13.3227V3.38636V2.36364C13.3227 1.58647 12.6863 0.95 11.9091 0.95L4.23864 0.95ZM3.99043 1.03933L1.09277 3.42563L4.02224 1.0779L3.99045 1.03931L3.99043 1.03933ZM2.01692 3.67727L4.01818 2.02882V3.04545C4.01818 3.40146 3.74237 3.67727 3.38636 3.67727H2.01692Z" fill="black" stroke="black" stroke-width="0.1"/>
<path d="M11.1206 14.2502L11.1206 14.2502L12.2498 13.4031L13.379 14.2502L13.3791 14.2502C13.4372 14.2937 13.5062 14.3202 13.5785 14.3267C13.6508 14.3331 13.7235 14.3193 13.7884 14.2868C13.8533 14.2544 13.9079 14.2044 13.9461 14.1427C13.9842 14.0809 14.0044 14.0097 14.0044 13.9372V9.71165C14.8266 9.14951 15.368 8.20469 15.368 7.1363C15.368 5.41821 13.9679 4.01812 12.2498 4.01812C10.5317 4.01812 9.13164 5.41821 9.13164 7.1363C9.13164 8.20469 9.67303 9.14951 10.4953 9.71165V13.9372C10.4953 14.0097 10.5154 14.0809 10.5536 14.1427C10.5917 14.2044 10.6463 14.2544 10.7112 14.2868C10.7761 14.3193 10.8488 14.3331 10.9211 14.3267C10.9934 14.3202 11.0625 14.2937 11.1206 14.2502ZM11.2771 13.156V10.098C11.5834 10.1991 11.9103 10.2545 12.2498 10.2545C12.5894 10.2545 12.9162 10.1991 13.2225 10.098V13.156L12.4842 12.6021L12.4842 12.6021C12.4166 12.5514 12.3343 12.524 12.2498 12.524C12.1653 12.524 12.0831 12.5514 12.0154 12.6021L12.0154 12.6021L11.2771 13.156ZM12.2498 4.79993C13.5442 4.79993 14.5862 5.84192 14.5862 7.1363C14.5862 8.43067 13.5442 9.47266 12.2498 9.47266C10.9554 9.47266 9.91346 8.43067 9.91346 7.1363C9.91346 5.84192 10.9554 4.79993 12.2498 4.79993Z" fill="black" stroke="black" stroke-width="0.1"/>
<path d="M12.25 5.53374C11.3687 5.53374 10.6473 6.25518 10.6473 7.13647C10.6473 8.01776 11.3687 8.73921 12.25 8.73921C13.1313 8.73921 13.8527 8.01776 13.8527 7.13647C13.8527 6.25518 13.1313 5.53374 12.25 5.53374ZM12.25 6.31556C12.7076 6.31556 13.0709 6.67889 13.0709 7.13647C13.0709 7.59405 12.7076 7.95739 12.25 7.95739C11.7924 7.95739 11.4291 7.59405 11.4291 7.13647C11.4291 6.67889 11.7924 6.31556 12.25 6.31556Z" fill="black" stroke="black" stroke-width="0.1"/>
<path d="M9.86523 2.62959H9.79023V2.70459V3.38641V3.46141H9.86523H10.888H10.963V3.38641V2.70459V2.62959H10.888H9.86523Z" fill="black" stroke="black" stroke-width="0.15"/>
<path d="M5.77344 2.62959H5.69844V2.70459V3.38641V3.46141H5.77344H9.18253H9.25753V3.38641V2.70459V2.62959H9.18253H5.77344Z" fill="black" stroke="black" stroke-width="0.15"/>
<path d="M2.70508 5.69771H2.63008V5.77271V6.45452V6.52952H2.70508H8.15962H8.23462V6.45452V5.77271V5.69771H8.15962H2.70508Z" fill="black" stroke="black" stroke-width="0.15"/>
<path d="M2.70508 7.40229H2.63008V7.47729V8.15911V8.23411H2.70508H6.79599H6.87099V8.15911V7.47729V7.40229H6.79599H2.70508Z" fill="black" stroke="black" stroke-width="0.15"/>
<path d="M2.70508 9.10688H2.63008V9.18188V9.8637V9.9387H2.70508H8.15962H8.23462V9.8637V9.18188V9.10688H8.15962H2.70508Z" fill="black" stroke="black" stroke-width="0.15"/>
<path d="M2.70508 10.8115H2.63008V10.8865V11.5683V11.6433H2.70508H6.79599H6.87099V11.5683V10.8865V10.8115H6.79599H2.70508Z" fill="black" stroke="black" stroke-width="0.15"/>
<path d="M2.70508 12.5158H2.63008V12.5908V13.2726V13.3476H2.70508H8.15962H8.23462V13.2726V12.5908V12.5158H8.15962H2.70508Z" fill="black" stroke="black" stroke-width="0.15"/>
</svg>
