<svg width="15" height="16" viewBox="0 0 15 16" fill="none" xmlns="http://www.w3.org/2000/svg">
<g clip-path="url(#clip0_670_3818)">
<path d="M8.72835 13.3399L8.72835 13.3399C8.83462 13.4003 8.91278 13.5001 8.94581 13.6178C8.97884 13.7354 8.96409 13.8614 8.90478 13.9682C8.90477 13.9682 8.90476 13.9682 8.90475 13.9683L8.85158 13.9387C8.73919 14.1426 8.58701 14.3219 8.40406 14.4659C8.22112 14.61 8.01113 14.7158 7.78653 14.7772C7.56193 14.8386 7.3273 14.8543 7.09653 14.8233C6.86576 14.7924 6.64355 14.7155 6.44306 14.5971L8.72835 13.3399ZM8.72835 13.3399L8.72746 13.3394C8.6198 13.2806 8.49323 13.2669 8.37547 13.3012C8.2577 13.3355 8.15833 13.4151 8.09911 13.5226L8.09893 13.5229C8.02428 13.6604 7.91355 13.7749 7.77866 13.8541C7.64344 13.9326 7.48985 13.974 7.33348 13.974C7.17711 13.974 7.02352 13.9326 6.8883 13.8541C6.75342 13.7749 6.64269 13.6604 6.56803 13.5229L6.56798 13.5228C6.50896 13.4146 6.40937 13.3342 6.2911 13.2994C6.17283 13.2646 6.04558 13.2782 5.93735 13.3372C5.82911 13.3962 5.74875 13.4958 5.71395 13.6141C5.67914 13.7324 5.69275 13.8596 5.75177 13.9679L5.75177 13.9679C5.90606 14.2507 6.13434 14.4863 6.4122 14.6495L8.72835 13.3399Z" fill="black" stroke="black" stroke-width="0.121643"/>
<path d="M14.0154 6.61396C13.9976 6.5856 13.9737 6.56157 13.9454 6.54364C13.9171 6.52571 13.8852 6.51432 13.852 6.51032C13.7591 6.49749 13.6739 6.45148 13.6123 6.38077C13.5507 6.31007 13.5168 6.21946 13.5168 6.12568C13.5168 6.03191 13.5507 5.94129 13.6123 5.87059C13.6739 5.79989 13.7591 5.75388 13.852 5.74105C13.8853 5.73668 13.9172 5.72499 13.9455 5.70682C13.9737 5.68865 13.9976 5.66445 14.0154 5.63595C14.0492 5.58043 14.0616 5.51457 14.0505 5.45057C13.9373 5.0415 13.7206 4.66848 13.4213 4.36746C13.375 4.32148 13.3129 4.29486 13.2476 4.29302C13.2134 4.29414 13.18 4.30316 13.1498 4.31936C13.1197 4.33557 13.0937 4.35853 13.0739 4.38644C13.0146 4.45824 12.9319 4.50683 12.8404 4.52365C12.7488 4.54048 12.6542 4.52445 12.5733 4.4784C12.4934 4.43158 12.4328 4.35774 12.4026 4.27022C12.3723 4.18269 12.3744 4.08723 12.4083 4.00107C12.4208 3.96935 12.4262 3.93529 12.4242 3.90126C12.4221 3.86723 12.4127 3.83405 12.3966 3.80401C12.3823 3.77504 12.3619 3.74956 12.3366 3.72938C12.3114 3.7092 12.2821 3.69482 12.2507 3.68724C11.8423 3.58212 11.4139 3.58212 11.0055 3.68724C10.9741 3.69482 10.9448 3.7092 10.9195 3.72938C10.8943 3.74956 10.8738 3.77504 10.8596 3.80401C10.8412 3.83305 10.8296 3.86581 10.8256 3.8999C10.8216 3.934 10.8252 3.96856 10.8362 4.00107C10.8703 4.08707 10.8725 4.1824 10.8425 4.26991C10.8126 4.35742 10.7523 4.43135 10.6727 4.4784C10.5911 4.5217 10.4972 4.53618 10.4064 4.51949C10.3155 4.5028 10.2329 4.45591 10.172 4.38644C10.1282 4.33347 10.0653 4.2999 9.99686 4.29302C9.96466 4.29225 9.93265 4.29807 9.90278 4.31012C9.87291 4.32217 9.84581 4.34019 9.82316 4.36308C9.52797 4.66719 9.31194 5.03911 9.19402 5.44619C9.18174 5.47724 9.17851 5.51114 9.18471 5.54395C9.19091 5.57676 9.20629 5.60714 9.22905 5.63157C9.24686 5.66007 9.27076 5.68427 9.29902 5.70244C9.32729 5.72061 9.35923 5.7323 9.39254 5.73667C9.48544 5.7495 9.57056 5.79551 9.63217 5.86621C9.69378 5.93692 9.72772 6.02753 9.72772 6.12131C9.72772 6.21508 9.69378 6.30569 9.63217 6.3764C9.57056 6.4471 9.48544 6.49311 9.39254 6.50594C9.35929 6.50994 9.32736 6.52133 9.29907 6.53926C9.27079 6.55719 9.24686 6.58122 9.22905 6.60958C9.19512 6.66555 9.18267 6.73195 9.19402 6.79642C9.30767 7.20532 9.52428 7.57823 9.82316 7.87953C9.87018 7.92391 9.93221 7.94893 9.99686 7.94959C10.0313 7.94869 10.0651 7.93978 10.0955 7.92357C10.1259 7.90735 10.1521 7.88428 10.172 7.85617C10.2302 7.78423 10.3122 7.73543 10.4031 7.71857C10.4941 7.7017 10.5881 7.71788 10.6682 7.76418C10.7483 7.81048 10.8093 7.88387 10.8401 7.97112C10.8709 8.05837 10.8695 8.15375 10.8362 8.24008C10.8238 8.27207 10.8184 8.30635 10.8204 8.34061C10.8225 8.37486 10.8318 8.40828 10.8479 8.4386C10.8622 8.46757 10.8826 8.49305 10.9079 8.51323C10.9331 8.53341 10.9624 8.54779 10.9938 8.55537C11.1992 8.607 11.4098 8.63444 11.6215 8.63712C11.8302 8.63955 12.0381 8.61202 12.239 8.55537C12.2704 8.54779 12.2997 8.53341 12.325 8.51323C12.3502 8.49305 12.3707 8.46757 12.385 8.4386C12.4013 8.40837 12.4108 8.37493 12.4128 8.34063C12.4148 8.30633 12.4093 8.27201 12.3966 8.24008C12.3629 8.15405 12.3608 8.05882 12.3907 7.97139C12.4207 7.88396 12.4807 7.81001 12.5601 7.76275C12.6418 7.71936 12.7358 7.70497 12.8268 7.72194C12.9177 7.73891 13.0002 7.78623 13.0608 7.85617C13.1043 7.90881 13.1666 7.94234 13.2345 7.94959C13.2669 7.95047 13.2992 7.94471 13.3293 7.93266C13.3594 7.92061 13.3868 7.90253 13.4097 7.87953C13.7046 7.5752 13.9206 7.20336 14.0388 6.79642C14.0519 6.76676 14.0566 6.73409 14.0525 6.70194C14.0484 6.66979 14.0356 6.63937 14.0154 6.61396ZM13.2228 7.38323C13.0905 7.29636 12.9366 7.24818 12.7783 7.24413C12.6201 7.24008 12.4639 7.28031 12.3273 7.36029C12.1907 7.44027 12.0792 7.55682 12.0053 7.69679C11.9314 7.83676 11.8981 7.9946 11.9091 8.15249C11.7151 8.17451 11.5192 8.17451 11.3252 8.15249C11.3364 7.99489 11.3037 7.83727 11.2308 7.69711C11.1579 7.55694 11.0476 7.43971 10.9121 7.35841C10.7743 7.28091 10.6181 7.24216 10.46 7.24627C10.302 7.25039 10.148 7.29721 10.0144 7.38177C9.89547 7.22844 9.7973 7.06009 9.72244 6.88108C9.86242 6.81031 9.98004 6.7021 10.0622 6.56849C10.1444 6.43487 10.1879 6.28108 10.1879 6.12422C10.1879 5.96736 10.1444 5.81358 10.0622 5.67996C9.98004 5.54635 9.86242 5.43814 9.72244 5.36736C9.79698 5.18819 9.89516 5.01981 10.0144 4.86668C10.1468 4.95297 10.3006 5.00067 10.4586 5.00445C10.6167 5.00822 10.7726 4.96792 10.909 4.88805C11.0454 4.80819 11.1568 4.69192 11.2309 4.55227C11.3049 4.41263 11.3386 4.25512 11.3281 4.09742C11.522 4.07394 11.7181 4.07394 11.912 4.09742C11.9018 4.25533 11.9356 4.41298 12.0095 4.55289C12.0835 4.6928 12.1947 4.80949 12.3309 4.89004C12.469 4.96606 12.6247 5.00396 12.7822 4.99986C12.9398 4.99575 13.0933 4.94979 13.2272 4.86668C13.3469 5.01948 13.4451 5.18794 13.5191 5.36736C13.3792 5.43814 13.2615 5.54635 13.1794 5.67996C13.0972 5.81358 13.0537 5.96736 13.0537 6.12422C13.0537 6.28108 13.0972 6.43487 13.1794 6.56849C13.2615 6.7021 13.3792 6.81031 13.5191 6.88108C13.4435 7.06109 13.3439 7.23001 13.2228 7.38323Z" fill="black"/>
<path d="M11.628 5.03003C11.4115 5.03003 11.1998 5.09424 11.0198 5.21453C10.8397 5.33483 10.6994 5.50581 10.6165 5.70586C10.5337 5.9059 10.512 6.12603 10.5542 6.3384C10.5965 6.55076 10.7008 6.74583 10.8539 6.89894C11.007 7.05205 11.202 7.15632 11.4144 7.19856C11.6268 7.2408 11.8469 7.21912 12.0469 7.13626C12.247 7.0534 12.418 6.91308 12.5383 6.73304C12.6586 6.55301 12.7228 6.34134 12.7228 6.12481C12.723 5.98099 12.6948 5.83854 12.6398 5.70563C12.5849 5.57272 12.5042 5.45195 12.4025 5.35026C12.3008 5.24856 12.1801 5.16792 12.0472 5.11297C11.9143 5.05802 11.7718 5.02984 11.628 5.03003ZM11.628 6.81672C11.4911 6.81672 11.3574 6.77614 11.2436 6.70011C11.1298 6.62408 11.0411 6.51602 10.9888 6.38959C10.9364 6.26316 10.9227 6.12405 10.9494 5.98983C10.9761 5.85561 11.042 5.73233 11.1387 5.63556C11.2355 5.5388 11.3588 5.4729 11.493 5.44621C11.6272 5.41951 11.7663 5.43321 11.8928 5.48558C12.0192 5.53795 12.1273 5.62663 12.2033 5.74041C12.2793 5.8542 12.3199 5.98797 12.3199 6.12481C12.3187 6.30796 12.2455 6.48329 12.116 6.61279C11.9865 6.7423 11.8111 6.81557 11.628 6.81672Z" fill="black"/>
<path d="M3.57488 5.37042C3.57488 8.51035 2.71821 10.2601 2.06489 11.1368H2.14049M3.57488 5.37042L11.596 9.13453H11.6141C11.8309 9.85243 12.166 10.5291 12.6054 11.1368H12.5305M3.57488 5.37042C3.5736 4.62572 3.79357 3.89743 4.20686 3.27794M3.57488 5.37042L4.20686 3.27794M2.14049 11.1368C2.12533 11.1575 2.11026 11.1778 2.0953 11.1976H12.5744C12.5597 11.1774 12.545 11.1571 12.5305 11.1368M2.14049 11.1368C2.7985 10.2373 3.6357 8.47981 3.6357 5.37042V5.37032C3.63445 4.63767 3.85085 3.92116 4.25746 3.31169C4.66406 2.70223 5.24255 2.22728 5.91951 1.94711C6.59648 1.66694 7.34141 1.59417 8.0598 1.73804C8.77818 1.88192 9.43764 2.23594 9.9545 2.7552L13.7812 11.2136M2.14049 11.1368H12.5305M12.5305 11.1368C12.0873 10.5155 11.7516 9.82388 11.5376 9.09075L11.5149 9.01289H11.596H12.3901H12.4333L12.4475 9.05376C12.9881 10.6104 13.7441 11.1859 13.7812 11.2136M13.7812 11.2136C13.8581 11.2656 13.9165 11.3407 13.948 11.428C13.9797 11.5157 13.9826 11.6113 13.9563 11.7008L13.9561 11.7015C13.9289 11.7902 13.8741 11.8679 13.7995 11.9232C13.725 11.9785 13.6348 12.0084 13.542 12.0087L13.5418 12.0087H1.13424H1.13382C1.04073 12.0081 0.950289 11.9776 0.875742 11.9219C0.801195 11.8661 0.746453 11.7879 0.719529 11.6988C0.692605 11.6097 0.694913 11.5143 0.726116 11.4266C0.757248 11.3391 0.815514 11.2638 0.892414 11.2118C0.935921 11.1792 1.38172 10.835 1.82733 9.98124C2.29489 9.08549 2.76376 7.62578 2.76377 5.37195C2.76377 5.37193 2.76377 5.37191 2.76377 5.37188H2.82459C2.82194 4.35489 3.16328 3.36689 3.79314 2.56842C4.423 1.76995 5.30437 1.20794 6.29402 0.973718C7.28368 0.739495 8.32346 0.846822 9.24441 1.27826C10.1448 1.70005 10.8798 2.40737 11.3359 3.28936L13.7812 11.2136ZM4.20686 3.27794C4.62016 2.65845 5.20816 2.17569 5.89626 1.89091M4.20686 3.27794L5.89626 1.89091M5.89626 1.89091C6.58435 1.60613 7.34154 1.53217 8.07174 1.67841M5.89626 1.89091L8.07174 1.67841M8.07174 1.67841C8.80194 1.82464 9.47225 2.18449 9.99761 2.71229L8.07174 1.67841Z" fill="black" stroke="black" stroke-width="0.121643"/>
</g>
<defs>
<clipPath id="clip0_670_3818">
<rect width="14.5971" height="14.5971" fill="white" transform="translate(0.111328 0.643799)"/>
</clipPath>
</defs>
</svg>
