<svg width="60" height="44" viewBox="0 0 60 44" fill="none" xmlns="http://www.w3.org/2000/svg">
<path d="M40.9091 0C41.6324 0 42.3261 0.289732 42.8376 0.805457C43.349 1.32118 43.6364 2.02065 43.6364 2.75V14.3L57.8536 4.2625C58.0581 4.118 58.2979 4.03287 58.547 4.01638C58.7962 3.99989 59.045 4.05268 59.2664 4.16898C59.4878 4.28529 59.6733 4.46066 59.8027 4.67597C59.932 4.89128 60.0003 5.13826 60 5.39V38.61C60.0003 38.8617 59.932 39.1087 59.8027 39.324C59.6733 39.5393 59.4878 39.7147 59.2664 39.831C59.045 39.9473 58.7962 40.0001 58.547 39.9836C58.2979 39.9671 58.0581 39.882 57.8536 39.7375L43.6364 29.7V41.25C43.6364 41.9793 43.349 42.6788 42.8376 43.1945C42.3261 43.7103 41.6324 44 40.9091 44H2.72727C2.00396 44 1.31026 43.7103 0.7988 43.1945C0.287337 42.6788 0 41.9793 0 41.25V2.75C0 2.02065 0.287337 1.32118 0.7988 0.805457C1.31026 0.289732 2.00396 0 2.72727 0H40.9091ZM17.4545 13.2798C17.2031 13.2797 16.9593 13.3673 16.7645 13.5276C16.5696 13.688 16.4358 13.9113 16.3855 14.1597L16.3636 14.377V29.6175C16.3636 29.7956 16.4065 29.9711 16.4886 30.1288C16.5707 30.2866 16.6896 30.4218 16.835 30.523C16.9804 30.6242 17.148 30.6882 17.3234 30.7097C17.4987 30.7311 17.6767 30.7092 17.8418 30.646L18.0409 30.547L29.9182 22.9268C30.0572 22.8374 30.1744 22.7174 30.2609 22.5759C30.3473 22.4343 30.4008 22.2748 30.4174 22.1094C30.4339 21.944 30.413 21.7769 30.3563 21.6208C30.2996 21.4647 30.2086 21.3235 30.09 21.208L29.9182 21.0705L18.0409 13.4475C17.8649 13.3375 17.6616 13.2775 17.4545 13.2798Z" fill="#4E93B2"/>
</svg>
