<svg width="16" height="15" viewBox="0 0 16 15" fill="none" xmlns="http://www.w3.org/2000/svg">
<path d="M11.5005 14.5864C11.3472 14.5869 11.1961 14.553 11.0598 14.4875C10.9236 14.422 10.8062 14.3268 10.7177 14.21L10.6922 14.1743H9.89299V13.224H10.6922L10.7177 13.1899C10.8054 13.0722 10.9224 12.9761 11.0585 12.9097C11.1946 12.8433 11.346 12.8087 11.4996 12.8087C11.6532 12.8087 11.8045 12.8433 11.9407 12.9097C12.0768 12.9761 12.1937 13.0722 12.2814 13.1899L12.307 13.224H15.5457V14.1709H12.307L12.2814 14.2066C12.1935 14.3238 12.0766 14.4195 11.9407 14.4856C11.8048 14.5517 11.6538 14.5863 11.5005 14.5864ZM0.496094 11.9791V3.15077L8.02091 0.550293L15.5457 3.15077V7.51044H14.5312V4.16235L8.52816 6.2349V14.4093L8.02091 14.5796L0.496094 11.9791ZM1.51059 11.3149L7.51366 13.3909V6.2383L1.51059 4.16235V11.3149ZM2.46306 3.48115L8.02091 5.40043L13.5788 3.48115L8.02091 1.55847L2.46306 3.48115ZM13.9382 12.3674C13.7845 12.3672 13.6331 12.3325 13.4968 12.266C13.3605 12.1996 13.2434 12.1035 13.1554 11.9859L13.1299 11.9502H9.89299V11.005H13.1299L13.1554 10.9692C13.2432 10.8515 13.3601 10.7554 13.4962 10.689C13.6324 10.6226 13.7837 10.5879 13.9373 10.5879C14.0909 10.5879 14.2422 10.6226 14.3784 10.689C14.5145 10.7554 14.6314 10.8515 14.7192 10.9692L14.7465 11.005H15.5457V11.9502H14.7465L14.7192 11.9859C14.6313 12.1033 14.5145 12.1993 14.3786 12.2657C14.2427 12.3321 14.0916 12.3669 13.9382 12.3674ZM11.7669 10.1535C11.6135 10.153 11.4624 10.1182 11.3265 10.0518C11.1906 9.98536 11.0738 9.88942 10.9859 9.77202L10.9586 9.73796H9.89299V8.78428H10.9586L10.9859 8.75022C11.0737 8.63254 11.1906 8.5364 11.3267 8.47001C11.4629 8.40362 11.6142 8.36894 11.7678 8.36894C11.9214 8.36894 12.0727 8.40362 12.2089 8.47001C12.345 8.5364 12.4619 8.63254 12.5497 8.75022L12.5752 8.78428H15.5457V9.73115H12.5825L12.557 9.76521C12.4682 9.88379 12.35 9.98047 12.2123 10.0469C12.0747 10.1134 11.9218 10.1476 11.7669 10.1467V10.1535Z" fill="black"/>
</svg>
