<svg width="15" height="14" viewBox="0 0 15 14" fill="none" xmlns="http://www.w3.org/2000/svg">
<g clip-path="url(#clip0_228_45)">
<path d="M11.7251 0.295898H3.27441V5.02829H11.7251V0.295898Z" stroke="#43566E" stroke-width="0.75" stroke-miterlimit="10"/>
<path d="M11.7251 8.18262H3.27441V13.7037H11.7251V8.18262Z" stroke="#43566E" stroke-width="0.75" stroke-miterlimit="10"/>
<path d="M3.27513 10.9439H1.37372C1.09356 10.9439 0.824879 10.84 0.626777 10.6551C0.428675 10.4702 0.317383 10.2194 0.317383 9.95795V6.00838C0.317383 5.7469 0.428675 5.49612 0.626777 5.31123C0.824879 5.12633 1.09356 5.02246 1.37372 5.02246H3.27513" stroke="#43566E" stroke-width="0.75" stroke-miterlimit="10"/>
<path d="M11.7256 5.02832H13.627C13.9072 5.02832 14.1758 5.13219 14.3739 5.31709C14.572 5.50198 14.6833 5.75275 14.6833 6.01424V9.96381C14.6833 10.2253 14.572 10.4761 14.3739 10.661C14.1758 10.8459 13.9072 10.9497 13.627 10.9497H11.7256" stroke="#43566E" stroke-width="0.75" stroke-miterlimit="10"/>
</g>
<defs>
<clipPath id="clip0_228_45">
<rect width="15" height="14" fill="white"/>
</clipPath>
</defs>
</svg>
