<svg width="46" height="54" viewBox="0 0 46 54" fill="none" xmlns="http://www.w3.org/2000/svg">
<path d="M23.556 54H22.8837L21.4888 53.4471C10.254 49.0403 3.47622 40.9158 1.15553 29.0735C0.935613 27.9425 0.847644 26.7801 0.703125 25.6302V8.66488C0.994972 8.42071 1.31322 8.20995 1.65193 8.03654C7.49554 5.83104 13.3454 3.63812 19.1953 1.45148C20.452 0.986502 21.6522 0.483826 22.8837 0H23.556C23.7173 0.0843306 23.883 0.159843 24.0524 0.226204C30.9265 2.49663 37.8048 4.77961 44.6873 7.07517C45.0642 7.24314 45.4205 7.45398 45.7492 7.70351V25.6302C45.5984 26.7801 45.5104 27.9425 45.2905 29.0798C43.0787 40.5115 36.6131 48.5166 25.8935 53.0952C25.1269 53.4219 24.3352 53.6984 23.556 54ZM43.839 17.2355H43.9333C43.9333 14.5902 43.9333 11.9448 43.9333 9.29951C43.9476 9.21118 43.9443 9.1209 43.9236 9.03385C43.9029 8.9468 43.8652 8.8647 43.8126 8.79229C43.7601 8.71987 43.6937 8.65857 43.6174 8.6119C43.541 8.56523 43.4562 8.53412 43.3678 8.52036C36.8749 6.36723 30.3778 4.19944 23.8765 2.01699C23.4727 1.85802 23.0236 1.85802 22.6198 2.01699C16.0976 4.49267 9.56279 6.9495 3.01544 9.38748C2.84849 9.42247 2.70133 9.52019 2.6043 9.66048C2.50726 9.80076 2.46775 9.97293 2.49391 10.1415C2.49391 14.6844 2.49391 19.2211 2.49391 23.764C2.4693 26.169 2.76083 28.5667 3.36103 30.8957C6.12575 41.1838 12.5035 48.1878 22.4941 51.9076C22.9609 52.0896 23.4789 52.0896 23.9456 51.9076C27.7913 50.5895 31.3186 48.4813 34.3008 45.7184C39.9159 40.6632 43.3285 33.6103 43.8076 26.07C44.0087 23.142 43.839 20.1825 43.839 17.2355Z" fill="#337299"/>
<path d="M21.7958 30.5817C18.4342 30.5817 15.1668 30.5817 11.9057 30.5817C11.6072 30.5813 11.3098 30.5455 11.0197 30.4749C9.05928 29.922 7.09885 29.3439 5.13212 28.7972C4.8804 28.7554 4.65422 28.6188 4.5 28.4155C4.34577 28.2122 4.27518 27.9576 4.30271 27.7039C4.30271 26.6169 4.30271 25.5298 4.30271 24.4428C4.32294 24.1166 4.46409 23.8096 4.69857 23.582C4.80069 23.5175 4.87762 23.4199 4.9165 23.3056C4.95538 23.1912 4.95386 23.067 4.9122 22.9536C4.71742 22.0174 4.5352 21.0686 4.34669 20.1449C4.18332 19.3155 4.52891 18.8882 5.35204 18.8505C6.43908 18.8505 7.5324 18.8128 8.61316 18.8505C8.99309 18.8863 9.34652 19.0608 9.60594 19.3406C10.6301 20.5345 11.5852 21.7912 12.5843 23.0039C12.6485 23.088 12.7287 23.1586 12.8204 23.2115C12.9121 23.2643 13.0134 23.2984 13.1184 23.3118C15.9711 23.3118 18.8175 23.3118 21.7707 23.3118C21.6702 23.0793 21.6011 22.9033 21.5257 22.7337C20.0805 19.6045 18.6374 16.4754 17.1964 13.3462C17.1335 13.208 17.0644 13.076 17.0079 12.9378C16.9294 12.7964 16.8906 12.6364 16.8955 12.4748C16.9005 12.3131 16.9489 12.1558 17.0358 12.0194C17.1226 11.883 17.2447 11.7726 17.3891 11.6998C17.5334 11.627 17.6948 11.5944 17.8561 11.6057C19.0186 11.6057 20.181 11.6057 21.3434 11.6057C21.5475 11.6156 21.7454 11.6789 21.9174 11.7891C22.0894 11.8994 22.2294 12.0528 22.3237 12.234C24.7679 15.8345 27.2122 19.3406 29.6062 22.8656C29.7056 23.0392 29.8523 23.181 30.0291 23.2745C30.206 23.3679 30.4058 23.4092 30.6052 23.3934C32.2201 23.3557 33.8349 23.3934 35.4435 23.3934C36.663 23.3837 37.8696 23.6439 38.9766 24.1556C40.0836 24.6673 41.0636 25.4177 41.8463 26.353C41.938 26.436 42.0113 26.5373 42.0615 26.6504C42.1116 26.7635 42.1375 26.8859 42.1375 27.0096C42.1375 27.1333 42.1116 27.2556 42.0615 27.3687C42.0113 27.4818 41.938 27.5831 41.8463 27.6662C41.0699 28.5869 40.1022 29.3274 39.0106 29.8364C37.919 30.3453 36.7296 30.6103 35.5252 30.6131C33.8538 30.6131 32.1824 30.6131 30.4984 30.6131C30.3353 30.597 30.171 30.6281 30.025 30.7027C29.8791 30.7773 29.7577 30.8924 29.6753 31.0341C27.2813 34.5214 24.8308 38.0276 22.4179 41.5526C22.2749 41.8035 22.0624 42.0076 21.8059 42.1403C21.5495 42.2729 21.2601 42.3285 20.9727 42.3004C19.9988 42.2627 19.0248 42.3004 18.0509 42.3004C17.077 42.3004 16.6874 41.7097 17.0958 40.8237C18.5494 37.6569 20.0155 34.4942 21.4942 31.3357C21.5696 31.1032 21.6639 30.8833 21.7958 30.5817ZM6.12491 27.1887L6.65272 27.352C8.16703 27.7919 9.67506 28.2317 11.1894 28.6527C11.4968 28.7354 11.8136 28.7776 12.1319 28.7784H30.9823C32.572 28.7784 34.168 28.7784 35.764 28.7784C37.3381 28.7482 38.8379 28.1032 39.9425 26.9813C39.7414 26.8116 39.5843 26.6546 39.4146 26.5226C38.2831 25.6352 36.8814 25.1628 35.4435 25.1842H6.6213C6.46422 25.1842 6.30085 25.1842 6.12491 25.1842V27.1887ZM27.8028 23.3809C25.5156 20.0695 23.3227 16.8901 21.0984 13.7044C21.0581 13.6468 21.0068 13.5977 20.9475 13.56C20.8882 13.5222 20.822 13.4966 20.7528 13.4844C20.2752 13.4844 19.7914 13.4844 19.3202 13.4844C19.3202 13.5724 19.3202 13.6164 19.3202 13.6478C20.7737 16.8063 22.2399 19.9648 23.7186 23.1233C23.7568 23.1902 23.8093 23.248 23.8722 23.2925C23.9352 23.337 24.0071 23.3672 24.083 23.3809C25.258 23.3872 26.4644 23.3809 27.8028 23.3809ZM27.8028 30.5817C26.5461 30.5817 25.4779 30.5817 24.3846 30.5817C24.2059 30.5534 24.023 30.5897 23.8686 30.6841C23.7143 30.7786 23.5987 30.9249 23.5426 31.097C22.2106 34.0502 20.8408 36.9846 19.4898 39.9252C19.4144 40.0886 19.3453 40.2582 19.251 40.497C19.5628 40.4779 19.8755 40.4779 20.1873 40.497C20.4272 40.5428 20.6755 40.5056 20.8914 40.3913C21.1073 40.2771 21.2778 40.0928 21.3749 39.8687C21.7581 39.2026 22.2357 38.612 22.6692 37.9836L27.8028 30.5817ZM10.5359 23.3809C9.80701 22.4635 9.17238 21.6592 8.51891 20.8675C8.42118 20.7608 8.28625 20.6955 8.1419 20.6853C7.55125 20.6853 6.95433 20.6853 6.30713 20.6853C6.47678 21.5461 6.62759 22.3504 6.80352 23.1484C6.83295 23.208 6.87628 23.2597 6.92987 23.2991C6.98345 23.3384 7.04572 23.3643 7.11141 23.3746C8.20473 23.3872 9.30434 23.3809 10.5359 23.3809Z" fill="#337299"/>
<path d="M24.1221 6.69787C24.1221 7.16913 24.1221 7.58384 24.1221 7.99226C24.1324 8.11615 24.117 8.24085 24.0767 8.35847C24.0364 8.47608 23.9722 8.58406 23.888 8.67557C23.8039 8.76708 23.7016 8.84013 23.5878 8.8901C23.474 8.94007 23.351 8.96587 23.2267 8.96587C23.1023 8.96587 22.9794 8.94007 22.8655 8.8901C22.7517 8.84013 22.6494 8.76708 22.5653 8.67557C22.4811 8.58406 22.4169 8.47608 22.3766 8.35847C22.3363 8.24085 22.3209 8.11615 22.3313 7.99226C22.3313 7.23825 22.3313 6.49051 22.3313 5.74278C22.3313 4.61805 22.8339 4.26617 23.8644 4.66831L33.654 8.4698C35.6082 9.2301 37.5561 10.003 39.5165 10.7444C39.7787 10.816 40.0068 10.9787 40.1599 11.2032C40.3131 11.4277 40.3812 11.6995 40.3522 11.9697C40.3522 14.8035 40.3522 17.6248 40.3522 20.4649C40.3858 20.68 40.3474 20.9002 40.2428 21.0911C40.1382 21.282 39.9735 21.433 39.7741 21.5205C39.1458 21.7907 38.5551 21.3195 38.5489 20.5277C38.5489 18.0144 38.5489 15.501 38.5489 12.9876C38.582 12.7787 38.536 12.565 38.4198 12.3883C38.3035 12.2116 38.1255 12.0847 37.9205 12.0325C33.5221 10.3423 29.1237 8.62689 24.7253 6.91779L24.1221 6.69787Z" fill="#337299"/>
<path d="M38.9003 33.3904C38.8626 33.516 38.7997 33.7548 38.7118 33.981C36.5547 39.7085 32.3502 44.4325 26.9114 47.2391C26.17 47.635 25.4285 48.0308 24.6745 48.4141C24.0462 48.7283 23.5875 48.6152 23.3236 48.1188C23.0597 47.6224 23.2607 47.1637 23.8325 46.8244C25.7176 45.7374 27.6026 44.7697 29.3683 43.5193C32.8171 41.0059 35.4537 37.5369 36.9524 33.5412C37.0355 33.2925 37.1385 33.0508 37.2603 32.8186C37.3507 32.6504 37.4963 32.5186 37.6726 32.4453C37.8488 32.3721 38.045 32.3619 38.2279 32.4164C38.4396 32.4686 38.6249 32.5965 38.7488 32.7759C38.8727 32.9553 38.9265 33.1739 38.9003 33.3904Z" fill="#337299"/>
<path d="M12.855 14.3706C12.4278 14.3706 11.9942 14.3706 11.5606 14.3706C11.3223 14.3706 11.0938 14.2759 10.9253 14.1074C10.7568 13.9389 10.6621 13.7103 10.6621 13.472C10.6621 13.2337 10.7568 13.0052 10.9253 12.8367C11.0938 12.6682 11.3223 12.5735 11.5606 12.5735C12.4278 12.5735 13.2886 12.5735 14.1494 12.5735C14.2718 12.5649 14.3946 12.5815 14.5102 12.6225C14.6258 12.6635 14.7317 12.7278 14.8214 12.8115C14.911 12.8953 14.9824 12.9966 15.0311 13.1091C15.0798 13.2217 15.1048 13.3431 15.1045 13.4658C15.1039 13.589 15.0781 13.7107 15.0288 13.8236C14.9794 13.9365 14.9076 14.0382 14.8175 14.1223C14.7275 14.2064 14.6213 14.2713 14.5053 14.3129C14.3894 14.3545 14.2661 14.372 14.1431 14.3643C13.7222 14.4146 13.2697 14.3706 12.855 14.3706Z" fill="#337299"/>
<path d="M14.6156 17.9715C14.182 17.9715 13.7548 17.9715 13.3212 17.9715C13.2035 17.9731 13.0866 17.9515 12.9773 17.9078C12.868 17.8641 12.7685 17.7992 12.6844 17.7168C12.6003 17.6345 12.5333 17.5363 12.4873 17.4279C12.4413 17.3196 12.4172 17.2032 12.4164 17.0855C12.413 16.9674 12.4335 16.8497 12.4765 16.7397C12.5196 16.6296 12.5845 16.5294 12.6672 16.4449C12.7499 16.3604 12.8487 16.2935 12.9579 16.2481C13.067 16.2027 13.1841 16.1798 13.3023 16.1807C14.2009 16.1807 15.1057 16.1807 16.0042 16.1807C16.2409 16.1807 16.4678 16.2747 16.6351 16.442C16.8025 16.6094 16.8965 16.8363 16.8965 17.0729C16.8965 17.3096 16.8025 17.5365 16.6351 17.7039C16.4678 17.8712 16.2409 17.9652 16.0042 17.9652C15.5518 17.9903 15.0868 17.9715 14.6156 17.9715Z" fill="#337299"/>
<path d="M16.4682 19.78C16.9018 19.78 17.329 19.78 17.7626 19.78C17.8865 19.7696 18.0112 19.785 18.1288 19.8253C18.2464 19.8656 18.3544 19.9299 18.4459 20.014C18.5374 20.0982 18.6105 20.2004 18.6604 20.3143C18.7104 20.4281 18.7362 20.5511 18.7362 20.6754C18.7362 20.7997 18.7104 20.9227 18.6604 21.0365C18.6105 21.1504 18.5374 21.2526 18.4459 21.3368C18.3544 21.4209 18.2464 21.4852 18.1288 21.5255C18.0112 21.5657 17.8865 21.5812 17.7626 21.5708C16.9018 21.5708 16.0409 21.5708 15.1738 21.5708C15.0499 21.5812 14.9252 21.5657 14.8076 21.5255C14.69 21.4852 14.582 21.4209 14.4905 21.3368C14.399 21.2526 14.3259 21.1504 14.276 21.0365C14.226 20.9227 14.2002 20.7997 14.2002 20.6754C14.2002 20.5511 14.226 20.4281 14.276 20.3143C14.3259 20.2004 14.399 20.0982 14.4905 20.014C14.582 19.9299 14.69 19.8656 14.8076 19.8253C14.9252 19.785 15.0499 19.7696 15.1738 19.78C15.6074 19.7674 16.0346 19.78 16.4682 19.78Z" fill="#337299"/>
<path d="M16.5126 32.3845C16.9462 32.3845 17.3798 32.3845 17.807 32.3845C18.0437 32.3845 18.2706 32.4785 18.4379 32.6458C18.6053 32.8132 18.6993 33.0401 18.6993 33.2767C18.6993 33.5134 18.6053 33.7403 18.4379 33.9077C18.2706 34.075 18.0437 34.169 17.807 34.169C16.9085 34.169 16.0037 34.169 15.1051 34.169C14.8685 34.169 14.6416 34.075 14.4742 33.9077C14.3069 33.7403 14.2129 33.5134 14.2129 33.2767C14.2129 33.0401 14.3069 32.8132 14.4742 32.6458C14.6416 32.4785 14.8685 32.3845 15.1051 32.3845C15.5764 32.3719 16.0477 32.3845 16.5126 32.3845Z" fill="#337299"/>
<path d="M14.6406 37.7887C14.207 37.7887 13.7797 37.7887 13.3462 37.7887C13.224 37.793 13.1021 37.7723 12.9882 37.7279C12.8743 37.6835 12.7706 37.6162 12.6835 37.5304C12.5965 37.4445 12.5279 37.3417 12.4819 37.2284C12.4359 37.1151 12.4136 36.9936 12.4162 36.8713C12.4178 36.7533 12.443 36.6368 12.4902 36.5287C12.5374 36.4206 12.6058 36.323 12.6912 36.2416C12.7767 36.1603 12.8775 36.0968 12.9878 36.0549C13.0981 36.0131 13.2157 35.9937 13.3336 35.9979C14.2133 35.9979 15.0993 35.9979 15.9789 35.9979C16.1014 35.9927 16.2236 36.0127 16.338 36.0568C16.4523 36.1009 16.5564 36.1681 16.6436 36.2541C16.7309 36.3402 16.7995 36.4433 16.8451 36.5571C16.8907 36.6708 16.9125 36.7928 16.9089 36.9153C16.9007 37.1525 16.8003 37.3772 16.6289 37.5415C16.4576 37.7058 16.2289 37.7967 15.9915 37.795H14.6406V37.7887Z" fill="#337299"/>
<path d="M12.8224 41.3894C12.3888 41.3894 11.9616 41.3894 11.528 41.3894C11.2914 41.3894 11.0644 41.2953 10.8971 41.128C10.7297 40.9607 10.6357 40.7337 10.6357 40.4971C10.6357 40.2605 10.7297 40.0335 10.8971 39.8662C11.0644 39.6989 11.2914 39.6049 11.528 39.6049C12.4077 39.6049 13.2874 39.6049 14.1733 39.6049C14.291 39.6015 14.4082 39.6215 14.5182 39.6637C14.6281 39.7058 14.7286 39.7693 14.8139 39.8505C14.8992 39.9317 14.9675 40.029 15.015 40.1367C15.0626 40.2445 15.0883 40.3605 15.0907 40.4783C15.0925 40.6008 15.0693 40.7225 15.0227 40.8358C14.976 40.9492 14.9068 41.0519 14.8193 41.1376C14.7317 41.2234 14.6276 41.2905 14.5134 41.3349C14.3991 41.3792 14.277 41.3999 14.1545 41.3956C13.7272 41.4333 13.2685 41.3894 12.8224 41.3894Z" fill="#337299"/>
</svg>
