<svg width="16" height="17" viewBox="0 0 16 17" fill="none" xmlns="http://www.w3.org/2000/svg">
<g clip-path="url(#clip0_670_3834)">
<path d="M13.9277 2.47409C13.1835 1.72785 12.2096 1.25408 11.1631 1.12922C10.1167 1.00436 9.05865 1.2357 8.15979 1.78591C7.26093 2.33612 6.57364 3.1731 6.20882 4.16183C5.844 5.15056 5.82292 6.23337 6.14898 7.23555L0.857769 12.5331C0.81977 12.5725 0.789993 12.6191 0.770175 12.6701C0.750356 12.7212 0.740891 12.7756 0.74233 12.8304V15.2467C0.74233 15.3582 0.786648 15.4652 0.865533 15.5441C0.944418 15.623 1.05141 15.6673 1.16297 15.6673H3.57137C3.62666 15.6677 3.68147 15.657 3.73254 15.6358C3.78361 15.6146 3.8299 15.5834 3.86867 15.544L4.47274 14.9399C4.5181 14.8953 4.55255 14.8409 4.57339 14.7808C4.59424 14.7207 4.60093 14.6567 4.59293 14.5936L4.51702 13.9389L5.42314 13.8535C5.52059 13.8441 5.61173 13.801 5.68097 13.7318C5.7502 13.6626 5.79322 13.5714 5.80266 13.474L5.88806 12.5679L6.54432 12.6454C6.60311 12.6512 6.66248 12.645 6.71877 12.627C6.77507 12.6091 6.82709 12.5798 6.87166 12.541C6.9159 12.501 6.95128 12.4522 6.97552 12.3978C6.99976 12.3433 7.01232 12.2843 7.0124 12.2247V11.4246H7.80308C7.85796 11.4248 7.91235 11.4141 7.9631 11.3932C8.01386 11.3723 8.05997 11.3416 8.09879 11.3028L9.16304 10.2512C9.63143 10.403 10.1208 10.4804 10.6131 10.4805C11.5414 10.4816 12.4491 10.2072 13.2213 9.69208C13.9935 9.17697 14.5955 8.44431 14.9511 7.58686C15.3067 6.72941 15.3999 5.78573 15.2188 4.87531C15.0377 3.96488 14.5906 3.12866 13.934 2.47251L13.9277 2.47409ZM5.24444 11.774C5.20013 11.809 5.1633 11.8524 5.13613 11.9019C5.10896 11.9513 5.09202 12.0057 5.08631 12.0618L4.99301 13.0486L4.00466 13.1419C3.94809 13.1467 3.8931 13.163 3.84305 13.1898C3.793 13.2166 3.74894 13.2533 3.71356 13.2977C3.67819 13.3421 3.65224 13.3933 3.63731 13.4481C3.62238 13.5029 3.61877 13.5601 3.62672 13.6163L3.72951 14.4971L3.39268 14.834H1.5757V13.0043L6.93333 7.6467C6.99099 7.58876 7.03052 7.51529 7.04709 7.43525C7.06366 7.35521 7.05655 7.27208 7.02663 7.19601C6.7037 6.37249 6.67416 5.46289 6.94297 4.62014C7.21178 3.77739 7.76255 3.0529 8.50269 2.56846C9.24282 2.08402 10.1272 1.86918 11.0071 1.96007C11.887 2.05095 12.7088 2.44201 13.3342 3.0675C13.9597 3.69299 14.3508 4.51477 14.4417 5.39467C14.5326 6.27457 14.3177 7.15893 13.8333 7.89906C13.3488 8.6392 12.6244 9.18997 11.7816 9.45878C10.9389 9.72759 10.0293 9.69805 9.20574 9.37512C9.12996 9.34574 9.04734 9.33876 8.96771 9.35502C8.88809 9.37128 8.81482 9.4101 8.75663 9.46684L7.62755 10.5833H6.59334C6.48178 10.5833 6.37479 10.6276 6.2959 10.7065C6.21702 10.7854 6.1727 10.8924 6.1727 11.0039V11.7535L5.55913 11.6823C5.44627 11.6705 5.33328 11.7034 5.24444 11.774Z" fill="black"/>
<path d="M11.8134 5.85534C12.1057 5.85365 12.3884 5.7508 12.6134 5.56426C12.8385 5.37772 12.992 5.11901 13.0479 4.83209C13.1037 4.54518 13.0585 4.24777 12.9199 3.99042C12.7813 3.73306 12.5579 3.53165 12.2876 3.4204C12.0173 3.30915 11.7168 3.29494 11.4372 3.38018C11.1576 3.46542 10.9161 3.64485 10.7539 3.88798C10.5916 4.13111 10.5185 4.42292 10.5471 4.71383C10.5756 5.00473 10.704 5.27678 10.9104 5.48372C11.0288 5.6024 11.1696 5.69636 11.3246 5.76016C11.4796 5.82395 11.6458 5.85631 11.8134 5.85534ZM11.3849 4.59026C11.3817 4.50264 11.4053 4.41615 11.4523 4.34219C11.4994 4.26823 11.5678 4.2103 11.6485 4.17603C11.7292 4.14176 11.8184 4.13278 11.9043 4.15027C11.9902 4.16776 12.0688 4.2109 12.1297 4.27399C12.17 4.3141 12.202 4.36178 12.2238 4.4143C12.2456 4.46681 12.2568 4.52311 12.2568 4.57998C12.2568 4.63684 12.2456 4.69315 12.2238 4.74566C12.202 4.79817 12.17 4.84586 12.1297 4.88597C12.0475 4.96511 11.9378 5.00933 11.8237 5.00933C11.7096 5.00933 11.5999 4.96511 11.5177 4.88597C11.4363 4.8087 11.3885 4.70246 11.3849 4.59026Z" fill="black"/>
</g>
<defs>
<clipPath id="clip0_670_3834">
<rect width="15.8135" height="15.8135" fill="white" transform="translate(0.111328 0.478516)"/>
</clipPath>
</defs>
</svg>
