<svg width="15" height="15" viewBox="0 0 15 15" fill="none" xmlns="http://www.w3.org/2000/svg">
<path d="M14.9975 0.545486C14.9975 0.600523 14.9525 0.710596 14.9125 0.810663L10.5475 12.4584C10.2875 13.1589 10.0225 13.8644 9.75748 14.5648C9.72394 14.658 9.67676 14.7457 9.61748 14.825C9.56875 14.8793 9.50874 14.9223 9.44166 14.9509C9.37458 14.9795 9.30205 14.9931 9.22916 14.9908C9.15627 14.9884 9.08479 14.9701 9.01972 14.9371C8.95465 14.9042 8.89757 14.8574 8.85248 14.8C8.80765 14.7311 8.76756 14.6592 8.73248 14.5848C7.85915 12.7736 6.98582 10.9608 6.11248 9.14622C6.05975 9.03057 5.965 8.93933 5.84748 8.89105L0.387483 6.24429C0.253528 6.1832 0.140499 6.08402 0.0624833 5.9591C-0.0975167 5.67391 0.0624833 5.38872 0.397483 5.25863L2.78748 4.35803L14.1775 0.0851793L14.3775 0.0151326C14.4549 -0.00437459 14.5359 -0.00503145 14.6137 0.013217C14.6914 0.0314654 14.7637 0.0680881 14.8244 0.120019C14.8851 0.171951 14.9325 0.237679 14.9626 0.311703C14.9927 0.385726 15.0047 0.465891 14.9975 0.545486ZM9.19248 13.2289C10.5375 9.64655 11.8625 6.1092 13.1925 2.57184C13.1389 2.58392 13.0901 2.61181 13.0525 2.65189L7.11748 8.59085C7.09784 8.60476 7.08118 8.62247 7.06849 8.64293C7.0558 8.66339 7.04735 8.68619 7.04362 8.70998C7.03989 8.73377 7.04096 8.75807 7.04678 8.78143C7.0526 8.8048 7.06304 8.82676 7.07748 8.84602C7.74415 10.2336 8.41082 11.6212 9.07748 13.0088L9.19248 13.2289ZM12.4425 1.83635V1.80633L1.79748 5.809L1.95748 5.89906L6.18748 7.94042C6.22606 7.9652 6.27282 7.97384 6.3177 7.96448C6.36258 7.95512 6.402 7.92852 6.42748 7.89038L12.3375 1.95142C12.3751 1.91549 12.4101 1.87705 12.4425 1.83635Z" fill="#529EB8"/>
</svg>
