<svg width="56" height="59" viewBox="0 0 56 59" fill="none" xmlns="http://www.w3.org/2000/svg">
<path d="M52.1396 44.3364C52.2549 44.9126 52.3125 45.4984 52.3125 46.0938C52.3125 46.6891 52.2549 47.2749 52.1396 47.8511L55.7119 49.3203L54.3003 52.7485L50.728 51.2505C50.0558 52.23 49.23 53.0558 48.2505 53.728L49.7485 57.3003L46.3203 58.7119L44.8511 55.1396C44.2749 55.2549 43.6891 55.3125 43.0938 55.3125C42.4984 55.3125 41.9126 55.2549 41.3364 55.1396L39.8672 58.7119L36.439 57.3003L37.937 53.728C36.9575 53.0558 36.1317 52.23 35.4595 51.2505L31.8872 52.7485L30.4756 49.3203L34.0479 47.8511C33.9326 47.2749 33.875 46.6891 33.875 46.0938C33.875 45.4984 33.9326 44.9126 34.0479 44.3364L30.4756 42.8672L31.8872 39.439L35.4595 40.937C36.1317 39.9575 36.9575 39.1317 37.937 38.4595L36.439 34.8872L39.8672 33.4756L41.3364 37.0479C41.9126 36.9326 42.4984 36.875 43.0938 36.875C43.6891 36.875 44.2749 36.9326 44.8511 37.0479L46.3203 33.4756L49.7485 34.8872L48.2505 38.4595C49.23 39.1317 50.0558 39.9575 50.728 40.937L54.3003 39.439L55.7119 42.8672L52.1396 44.3364ZM43.0938 51.625C43.862 51.625 44.5822 51.481 45.2544 51.1929C45.9266 50.9048 46.5124 50.5111 47.0117 50.0117C47.5111 49.5124 47.9048 48.9266 48.1929 48.2544C48.481 47.5822 48.625 46.862 48.625 46.0938C48.625 45.3255 48.481 44.6053 48.1929 43.9331C47.9048 43.2609 47.5111 42.6751 47.0117 42.1758C46.5124 41.6764 45.9266 41.2827 45.2544 40.9946C44.5822 40.7065 43.862 40.5625 43.0938 40.5625C42.3255 40.5625 41.6053 40.7065 40.9331 40.9946C40.2609 41.2827 39.6751 41.6764 39.1758 42.1758C38.6764 42.6751 38.2827 43.2609 37.9946 43.9331C37.7065 44.6053 37.5625 45.3255 37.5625 46.0938C37.5625 46.862 37.7065 47.5822 37.9946 48.2544C38.2827 48.9266 38.6764 49.5124 39.1758 50.0117C39.6751 50.5111 40.2609 50.9048 40.9331 51.1929C41.6053 51.481 42.3255 51.625 43.0938 51.625ZM30.1875 18.4375V3.6875H4.375V55.3125H30.1875V59H0.6875V0H32.8091L48.625 15.8159V29.5H44.9375V18.4375H30.1875ZM33.875 14.75H42.3159L33.875 6.30908V14.75Z" fill="#4E93B2"/>
</svg>
