<svg width="18" height="18" viewBox="0 0 18 18" fill="none" xmlns="http://www.w3.org/2000/svg">
<g clip-path="url(#clip0_670_3810)">
<path d="M16.531 4.59099C16.5324 4.48561 16.5025 4.38218 16.4452 4.29371C16.388 4.20524 16.3059 4.13566 16.2092 4.09371L9.58962 1.02832C9.51753 0.992981 9.4383 0.974609 9.35801 0.974609C9.27772 0.974609 9.1985 0.992981 9.12641 1.02832L2.50515 4.09371C2.41764 4.14362 2.34509 4.21607 2.29508 4.30353C2.24506 4.39099 2.21939 4.49025 2.22075 4.59099V7.44521C2.22391 9.00583 2.58878 10.5445 3.28671 11.9403C3.98464 13.3362 4.99663 14.5513 6.24323 15.4902L9.09064 17.6274C9.1833 17.696 9.29553 17.733 9.41081 17.733C9.52608 17.733 9.63831 17.696 9.73097 17.6274L12.5784 15.4902C13.8221 14.5486 14.832 13.3329 15.5296 11.9377C16.2272 10.5424 16.5938 9.00513 16.6009 7.44521V4.59099H16.531ZM15.4633 7.44521C15.4558 8.83982 15.1275 10.214 14.5038 11.4614C13.8801 12.7088 12.9778 13.7959 11.8665 14.6387L9.37504 16.5239L6.85631 14.6387C5.74737 13.7967 4.84879 12.7091 4.23121 11.4612C3.61362 10.2133 3.29386 8.83925 3.29705 7.44691V4.91796L9.37504 2.14208L15.4633 4.95373V7.44521Z" fill="black"/>
<path d="M7.01361 8.22551L6.16211 9.077L8.0865 10.9997C8.20731 11.0964 8.35747 11.1491 8.51224 11.1491C8.66702 11.1491 8.81718 11.0964 8.93799 10.9997L12.596 7.34676L11.7837 6.53613L8.50543 9.77183L7.01361 8.22551Z" fill="black"/>
</g>
<defs>
<clipPath id="clip0_670_3810">
<rect width="17.03" height="17.03" fill="white" transform="translate(0.896484 0.844727)"/>
</clipPath>
</defs>
</svg>
