<svg width="20" height="18" viewBox="0 0 20 18" fill="none" xmlns="http://www.w3.org/2000/svg">
<path d="M5.44652 6.39707H7.36457V12.087C7.36457 12.6642 7.83264 13.1317 8.40933 13.1317H11.2611C11.8377 13.1317 12.3058 12.6643 12.3058 12.087V6.39707H14.2232C14.5409 6.39707 14.8264 6.20582 14.9486 5.91227C15.0694 5.61993 15.0022 5.28196 14.7778 5.05753L10.3896 0.66885C10.0831 0.362988 9.58663 0.362988 9.27949 0.66885L4.89208 5.05753C4.66761 5.28196 4.60035 5.61935 4.72188 5.91227C4.84395 6.20524 5.12887 6.39707 5.44652 6.39707Z" fill="#3284A6"/>
<path d="M18.3678 8.53125C17.8478 8.53125 17.426 8.95312 17.426 9.4736V13.4139C17.426 14.5943 16.4651 15.5545 15.2847 15.5545H4.3828C3.20237 15.5545 2.24213 14.5943 2.24213 13.4139V9.4736C2.24213 8.95312 1.81968 8.53125 1.29978 8.53125C0.77925 8.53125 0.357422 8.95312 0.357422 9.47365V13.414C0.357422 15.6335 2.16317 17.4393 4.3828 17.4393H15.2847C17.5043 17.4393 19.3102 15.6335 19.3102 13.414V9.47365C19.3102 8.95312 18.8883 8.53125 18.3678 8.53125Z" fill="#3284A6"/>
</svg>
