<svg width="16" height="16" viewBox="0 0 16 16" fill="none" xmlns="http://www.w3.org/2000/svg">
<path d="M4.75546 6.89387L4.75523 6.89386C3.99233 6.88103 3.30093 7.2411 2.78518 7.8974L1.48447 9.55044V2.4736C1.48447 2.27268 1.64801 2.10898 1.84909 2.10898H13.5168C13.7179 2.10898 13.8814 2.27268 13.8814 2.4736V10.0678L12.9829 9.01959C12.6151 8.59003 12.1135 8.35041 11.5722 8.35041C11.0308 8.35041 10.5293 8.58998 10.162 9.01929C10.162 9.01929 10.1619 9.01929 10.1619 9.0193C10.1619 9.01933 10.1619 9.01936 10.1619 9.01938L8.6944 10.7311L6.68691 7.97105C6.68691 7.97105 6.6869 7.97104 6.6869 7.97104C6.19586 7.29574 5.51044 6.90797 4.75546 6.89387ZM8.63092 12.3176L8.63143 12.3177L8.63294 12.3177C8.63885 12.3179 8.64673 12.3182 8.65524 12.3182C8.8319 12.3182 9.00109 12.2412 9.11652 12.1059C9.11655 12.1059 9.11658 12.1058 9.11661 12.1058L11.0847 9.81012C11.3533 9.4969 11.7905 9.49654 12.0601 9.81044L13.8814 11.9352V14.1413C13.8814 14.3422 13.7179 14.5059 13.5168 14.5059H1.84909C1.64801 14.5059 1.48447 14.3422 1.48447 14.1413V11.5159L3.74061 8.64871C4.02537 8.28685 4.37834 8.10738 4.73366 8.10899C5.08634 8.11598 5.43238 8.31247 5.70412 8.6861L5.80241 8.61461L5.70412 8.6861L8.16385 12.068C8.27309 12.2183 8.44521 12.3102 8.63092 12.3176ZM10.1137 6.97052C11.2533 6.97052 12.1799 6.04373 12.1799 4.90437C12.1799 3.76501 11.2533 2.83821 10.1137 2.83821C8.97408 2.83821 8.04755 3.76501 8.04755 4.90437C8.04755 6.04373 8.97408 6.97052 10.1137 6.97052ZM10.1137 4.0536C10.5826 4.0536 10.9645 4.43527 10.9645 4.90437C10.9645 5.37346 10.5826 5.75514 10.1137 5.75514C9.6448 5.75514 9.26293 5.37346 9.26293 4.90437C9.26293 4.43527 9.6448 4.0536 10.1137 4.0536ZM13.5168 0.893598H1.84909C0.97772 0.893598 0.269087 1.60223 0.269087 2.4736V14.1413C0.269087 15.0127 0.97772 15.7213 1.84909 15.7213H13.5168C14.3881 15.7213 15.0968 15.0127 15.0968 14.1413V2.4736C15.0968 1.60223 14.3881 0.893598 13.5168 0.893598Z" fill="#6295A6" stroke="#6295A6" stroke-width="0.243077"/>
</svg>
