<svg width="14" height="13" viewBox="0 0 14 13" fill="none" xmlns="http://www.w3.org/2000/svg">
<g clip-path="url(#clip0_228_50)">
<path d="M12.2216 0.314453H1.77844C0.977452 0.314453 0.328125 0.93685 0.328125 1.70461V11.2953C0.328125 12.063 0.977452 12.6854 1.77844 12.6854H12.2216C13.0225 12.6854 13.6719 12.063 13.6719 11.2953V1.70461C13.6719 0.93685 13.0225 0.314453 12.2216 0.314453Z" stroke="#43566E" stroke-width="0.75" stroke-miterlimit="10"/>
<path d="M0.328125 4.4302C0.328125 4.06151 0.480925 3.70791 0.752912 3.44721C1.0249 3.1865 1.39379 3.04004 1.77844 3.04004H12.2216C12.6062 3.04004 12.9751 3.1865 13.2471 3.44721C13.5191 3.70791 13.6719 4.06151 13.6719 4.4302" stroke="#43566E" stroke-width="0.75" stroke-miterlimit="10"/>
<path d="M13.6719 5.71387H10.6422C10.4015 6.40136 9.94145 6.99896 9.32715 7.42224C8.71284 7.84552 7.9753 8.07307 7.21875 8.07274C5.67 8.07274 4.34656 7.02435 3.83688 5.71387H0.328125" stroke="#43566E" stroke-width="0.75" stroke-miterlimit="10"/>
</g>
<defs>
<clipPath id="clip0_228_50">
<rect width="14" height="13" fill="white"/>
</clipPath>
</defs>
</svg>
