<svg width="15" height="18" viewBox="0 0 15 18" fill="none" xmlns="http://www.w3.org/2000/svg">
<g clip-path="url(#clip0_109_2808)">
<path d="M2.57157 13.2861H14.143V17.5718H2.57157C2.29016 17.5718 2.01152 17.5164 1.75153 17.4087C1.49155 17.301 1.25532 17.1432 1.05634 16.9442C0.857357 16.7452 0.699515 16.509 0.591826 16.249C0.484138 15.989 0.428711 15.7104 0.428711 15.429C0.428711 14.8607 0.654476 14.3156 1.05634 13.9138C1.4582 13.5119 2.00325 13.2861 2.57157 13.2861Z" fill="#DDEBF0" stroke="#4E93B2" stroke-miterlimit="10"/>
<path d="M5.21094 0.283203V7.7832L7.96237 4.56035L10.7052 7.7832V0.283203" fill="#DDEBF0"/>
<path d="M5.21094 0.283203V7.7832L7.96237 4.56035L10.7052 7.7832V0.283203" stroke="#4E93B2" stroke-miterlimit="10"/>
<path d="M0.428711 2.57157C0.428711 2.00325 0.654476 1.4582 1.05634 1.05634C1.4582 0.654476 2.00325 0.428711 2.57157 0.428711H13.8859" stroke="#4E93B2" stroke-miterlimit="10"/>
<path d="M0.428711 15.8569V2.14258" stroke="#4E93B2" stroke-miterlimit="10"/>
<path d="M14.1426 13.2855V0.0683594" stroke="#4E93B2" stroke-miterlimit="10"/>
</g>
<defs>
<clipPath id="clip0_109_2808">
<rect width="14.5714" height="18" fill="white"/>
</clipPath>
</defs>
</svg>
