<svg width="18" height="16" viewBox="0 0 18 16" fill="none" xmlns="http://www.w3.org/2000/svg">
<g clip-path="url(#clip0_109_2734)">
<path d="M1.42285 4.63142V2.10511C1.42285 1.65843 1.60025 1.23004 1.91603 0.914192C2.23181 0.598342 2.66009 0.420898 3.10667 0.420898H14.8934C15.34 0.420898 15.7682 0.598342 16.084 0.914192C16.3998 1.23004 16.5772 1.65843 16.5772 2.10511V4.63142" fill="#DDEBF0"/>
<path d="M1.42285 4.63142V2.10511C1.42285 1.65843 1.60025 1.23004 1.91603 0.914192C2.23181 0.598342 2.66009 0.420898 3.10667 0.420898H14.8934C15.34 0.420898 15.7682 0.598342 16.084 0.914192C16.3998 1.23004 16.5772 1.65843 16.5772 2.10511V4.63142" stroke="#4E93B2" stroke-miterlimit="10"/>
<path d="M16.5772 11.3682V13.8945C16.5772 14.3412 16.3998 14.7695 16.084 15.0854C15.7682 15.4012 15.34 15.5787 14.8934 15.5787H3.10667C2.66009 15.5787 2.23181 15.4012 1.91603 15.0854C1.60025 14.7695 1.42285 14.3412 1.42285 13.8945V11.3682" fill="#DDEBF0"/>
<path d="M16.5772 11.3682V13.8945C16.5772 14.3412 16.3998 14.7695 16.084 15.0854C15.7682 15.4012 15.34 15.5787 14.8934 15.5787H3.10667C2.66009 15.5787 2.23181 15.4012 1.91603 15.0854C1.60025 14.7695 1.42285 14.3412 1.42285 13.8945V11.3682" stroke="#4E93B2" stroke-miterlimit="10"/>
<path d="M0 8H2.84565" stroke="#4E93B2" stroke-miterlimit="10"/>
<path d="M5.05176 8H7.89741" stroke="#4E93B2" stroke-miterlimit="10"/>
<path d="M10.1025 8H12.9482" stroke="#4E93B2" stroke-miterlimit="10"/>
<path d="M15.1543 8H17.9999" stroke="#4E93B2" stroke-miterlimit="10"/>
</g>
<defs>
<clipPath id="clip0_109_2734">
<rect width="18" height="16" fill="white"/>
</clipPath>
</defs>
</svg>
