<svg width="18" height="18" viewBox="0 0 18 18" fill="none" xmlns="http://www.w3.org/2000/svg">
<g clip-path="url(#clip0_109_2814)">
<path d="M8.143 5.57157C12.4035 5.57157 15.8573 4.4203 15.8573 3.00014C15.8573 1.57998 12.4035 0.428711 8.143 0.428711C3.88251 0.428711 0.428711 1.57998 0.428711 3.00014C0.428711 4.4203 3.88251 5.57157 8.143 5.57157Z" fill="#DDEBF0" stroke="#4E93B2" stroke-miterlimit="10"/>
<path d="M10.6287 11.4343C9.80326 11.5253 8.97345 11.5711 8.143 11.5714C3.85728 11.5714 0.428711 10.4229 0.428711 9" fill="#DDEBF0"/>
<path d="M10.6287 11.4343C9.80326 11.5253 8.97345 11.5711 8.143 11.5714C3.85728 11.5714 0.428711 10.4229 0.428711 9" stroke="#4E93B2" stroke-miterlimit="10"/>
<path d="M10.7056 17.4257C9.85206 17.5243 8.99346 17.5729 8.13421 17.5714C3.84849 17.5714 0.419922 16.4229 0.419922 15" fill="#DDEBF0"/>
<path d="M10.7056 17.4257C9.85206 17.5243 8.99346 17.5729 8.13421 17.5714C3.84849 17.5714 0.419922 16.4229 0.419922 15" stroke="#4E93B2" stroke-miterlimit="10"/>
<path d="M0.428711 15V3" stroke="#4E93B2" stroke-miterlimit="10"/>
<path d="M15.8574 6.42871V3.42871" stroke="#4E93B2" stroke-miterlimit="10"/>
<path d="M15.8576 9L13.2861 13.2857H16.5776L13.7661 17.5714" stroke="#4E93B2" stroke-miterlimit="10"/>
</g>
<defs>
<clipPath id="clip0_109_2814">
<rect width="17.3743" height="18" fill="white"/>
</clipPath>
</defs>
</svg>
