<svg width="15" height="17" viewBox="0 0 15 17" fill="none" xmlns="http://www.w3.org/2000/svg">
<g clip-path="url(#clip0_109_2832)">
<path d="M7.38247 4.21326C7.99289 3.22584 8.61958 2.13969 9.22186 0.921875C10.1145 2.68724 11.112 4.39639 12.2088 6.03998C13.5436 8.12178 14.6017 9.76747 14.6017 11.2815C14.6017 14.9267 11.81 16.5889 9.22186 16.5889C8.29735 16.6211 7.38035 16.4106 6.56021 15.978C5.74006 15.5454 5.04474 14.9054 4.54199 14.1203" fill="#DDEBF0"/>
<path d="M7.38247 4.21326C7.99289 3.22584 8.61958 2.13969 9.22186 0.921875C10.1145 2.68724 11.112 4.39639 12.2088 6.03998C13.5436 8.12178 14.6017 9.76747 14.6017 11.2815C14.6017 14.9267 11.81 16.5889 9.22186 16.5889C8.29735 16.6211 7.38035 16.4106 6.56021 15.978C5.74006 15.5454 5.04474 14.9054 4.54199 14.1203" stroke="#4E93B2" stroke-miterlimit="10"/>
<path d="M3.51559 11.6187C3.10826 11.6417 2.70065 11.5788 2.31858 11.4342C1.93651 11.2896 1.58831 11.0664 1.29603 10.7786C1.00376 10.4909 0.773776 10.1449 0.620659 9.76257C0.467542 9.38027 0.394625 8.96998 0.406528 8.5577C0.406528 7.67726 1.02508 6.71453 1.80642 5.49671C2.43742 4.55816 3.00831 3.57972 3.51559 2.56738C4.03381 3.58493 4.60992 4.57125 5.24104 5.5214C6.01423 6.73098 6.62465 7.67726 6.62465 8.5577C6.63655 8.96998 6.56364 9.38027 6.41052 9.76257C6.2574 10.1449 6.02742 10.4909 5.73515 10.7786C5.44287 11.0664 5.09467 11.2896 4.7126 11.4342C4.33053 11.5788 3.92292 11.6417 3.51559 11.6187Z" fill="#DDEBF0" stroke="#4E93B2" stroke-miterlimit="10"/>
</g>
<defs>
<clipPath id="clip0_109_2832">
<rect width="15" height="17" fill="white"/>
</clipPath>
</defs>
</svg>
