<svg width="15" height="19" viewBox="0 0 15 19" fill="none" xmlns="http://www.w3.org/2000/svg">
<g clip-path="url(#clip0_109_2787)">
<path d="M2.58424 13.9121H14.2136V18.2193H2.58424C2.01308 18.2193 1.46531 17.9924 1.06143 17.5885C0.657558 17.1846 0.430664 16.6369 0.430664 16.0657C0.430664 15.4945 0.657558 14.9468 1.06143 14.5429C1.46531 14.139 2.01308 13.9121 2.58424 13.9121Z" fill="#DDEBF0" stroke="#4E93B2" stroke-miterlimit="10"/>
<path d="M0.430664 3.14381C0.430664 2.57265 0.657558 2.02488 1.06143 1.621C1.46531 1.21713 2.01308 0.990234 2.58424 0.990234H9.4757" fill="#DDEBF0"/>
<path d="M0.430664 3.14381C0.430664 2.57265 0.657558 2.02488 1.06143 1.621C1.46531 1.21713 2.01308 0.990234 2.58424 0.990234H9.4757" stroke="#4E93B2" stroke-miterlimit="10"/>
<path d="M0.430664 16.4968V2.71387" stroke="#4E93B2" stroke-miterlimit="10"/>
<path d="M14.2139 13.912V6.58984" stroke="#4E93B2" stroke-miterlimit="10"/>
<path d="M9.04513 7.88225C9.99664 7.88225 10.768 7.1109 10.768 6.15939C10.768 5.20788 9.99664 4.43652 9.04513 4.43652C8.09362 4.43652 7.32227 5.20788 7.32227 6.15939C7.32227 7.1109 8.09362 7.88225 9.04513 7.88225Z" fill="#DDEBF0" stroke="#4E93B2" stroke-miterlimit="10"/>
<path d="M10.1221 4.81499L14.2139 0.990234V3.06629" stroke="#4E93B2" stroke-miterlimit="10"/>
</g>
<defs>
<clipPath id="clip0_109_2787">
<rect width="14.6443" height="18.65" fill="white"/>
</clipPath>
</defs>
</svg>
