<svg width="18" height="12" viewBox="0 0 18 12" fill="none" xmlns="http://www.w3.org/2000/svg">
<g clip-path="url(#clip0_109_2767)">
<path d="M2.00039 3.60039C1.57604 3.60039 1.16908 3.43182 0.86902 3.13176C0.568962 2.8317 0.400391 2.42474 0.400391 2.00039C0.400391 1.57604 0.568962 1.16908 0.86902 0.86902C1.16908 0.568962 1.57604 0.400391 2.00039 0.400391H15.6004C16.0247 0.400391 16.4317 0.568962 16.7318 0.86902C17.0318 1.16908 17.2004 1.57604 17.2004 2.00039C17.2004 2.42474 17.0318 2.8317 16.7318 3.13176C16.4317 3.43182 16.0247 3.60039 15.6004 3.60039" fill="#DDEBF0"/>
<path d="M2.00039 3.60039C1.57604 3.60039 1.16908 3.43182 0.86902 3.13176C0.568962 2.8317 0.400391 2.42474 0.400391 2.00039C0.400391 1.57604 0.568962 1.16908 0.86902 0.86902C1.16908 0.568962 1.57604 0.400391 2.00039 0.400391H15.6004C16.0247 0.400391 16.4317 0.568962 16.7318 0.86902C17.0318 1.16908 17.2004 1.57604 17.2004 2.00039C17.2004 2.42474 17.0318 2.8317 16.7318 3.13176C16.4317 3.43182 16.0247 3.60039 15.6004 3.60039" stroke="#4E93B2" stroke-miterlimit="10"/>
<path d="M17.2004 8.40039V10.0004C17.2004 10.4247 17.0318 10.8317 16.7318 11.1318C16.4317 11.4318 16.0247 11.6004 15.6004 11.6004H2.00039C1.57604 11.6004 1.16908 11.4318 0.86902 11.1318C0.568962 10.8317 0.400391 10.4247 0.400391 10.0004V8.40039" fill="#DDEBF0"/>
<path d="M17.2004 8.40039V10.0004C17.2004 10.4247 17.0318 10.8317 16.7318 11.1318C16.4317 11.4318 16.0247 11.6004 15.6004 11.6004H2.00039C1.57604 11.6004 1.16908 11.4318 0.86902 11.1318C0.568962 10.8317 0.400391 10.4247 0.400391 10.0004V8.40039" stroke="#4E93B2" stroke-miterlimit="10"/>
<path d="M15.6004 5.2002C16.0247 5.2002 16.4317 5.36877 16.7318 5.66882C17.0318 5.96888 17.2004 6.37585 17.2004 6.8002V8.4002H0.400391V6.8002C0.400391 6.37585 0.568962 5.96888 0.86902 5.66882C1.16908 5.36877 1.57604 5.2002 2.00039 5.2002" fill="#DDEBF0"/>
<path d="M15.6004 5.2002C16.0247 5.2002 16.4317 5.36877 16.7318 5.66882C17.0318 5.96888 17.2004 6.37585 17.2004 6.8002V8.4002H0.400391V6.8002C0.400391 6.37585 0.568962 5.96888 0.86902 5.66882C1.16908 5.36877 1.57604 5.2002 2.00039 5.2002" stroke="#4E93B2" stroke-miterlimit="10"/>
<path d="M2 3.59961C2.21217 3.59961 2.41566 3.6839 2.56569 3.83392C2.71571 3.98395 2.8 4.18744 2.8 4.39961C2.8 4.61178 2.71571 4.81527 2.56569 4.96529C2.41566 5.11532 2.21217 5.19961 2 5.19961" stroke="#4E93B2" stroke-miterlimit="10"/>
<path d="M15.5998 5.19961C15.3876 5.19961 15.1841 5.11532 15.0341 4.96529C14.8841 4.81527 14.7998 4.61178 14.7998 4.39961C14.7998 4.18744 14.8841 3.98395 15.0341 3.83392C15.1841 3.6839 15.3876 3.59961 15.5998 3.59961" stroke="#4E93B2" stroke-miterlimit="10"/>
<path d="M3.75977 8V12" stroke="#4E93B2" stroke-miterlimit="10"/>
<path d="M7.12012 8V12" stroke="#4E93B2" stroke-miterlimit="10"/>
<path d="M10.4805 8V12" stroke="#4E93B2" stroke-miterlimit="10"/>
<path d="M5.36035 3.2002V5.6002" stroke="#4E93B2" stroke-miterlimit="10"/>
<path d="M8.71973 3.2002V5.6002" stroke="#4E93B2" stroke-miterlimit="10"/>
<path d="M12.0801 3.2002V5.6002" stroke="#4E93B2" stroke-miterlimit="10"/>
<path d="M13.8398 8V12" stroke="#4E93B2" stroke-miterlimit="10"/>
</g>
<defs>
<clipPath id="clip0_109_2767">
<rect width="17.6" height="12" fill="white"/>
</clipPath>
</defs>
</svg>
