<svg width="15" height="19" viewBox="0 0 15 19" fill="none" xmlns="http://www.w3.org/2000/svg">
<g clip-path="url(#clip0_109_2746)">
<path d="M7.12964 0.499888L0.997289 2.74228C0.835877 2.80508 0.697023 2.91306 0.598134 3.05268C0.499246 3.1923 0.444725 3.35734 0.441406 3.52712V11.2893C0.44139 11.4948 0.51649 11.6936 0.653171 11.8499C1.53552 12.8848 5.19729 17.0246 7.50023 18.4994C7.50023 18.4994 12.962 13.9284 14.3473 11.9534C14.4982 11.7351 14.5725 11.4748 14.5591 11.2116V3.4495C14.559 3.2945 14.5109 3.14315 14.4211 3.01538C14.3313 2.88761 14.2041 2.78939 14.0561 2.73366L7.87082 0.499888C7.6333 0.404985 7.36716 0.404985 7.12964 0.499888Z" fill="#DDEBF0" stroke="#4E93B2" stroke-miterlimit="10"/>
<path d="M3.9707 8.12402H4.85306" stroke="#4E93B2" stroke-miterlimit="10"/>
<path d="M7.05859 8.12402H7.94095" stroke="#4E93B2" stroke-miterlimit="10"/>
<path d="M10.1475 8.12402H11.0298" stroke="#4E93B2" stroke-miterlimit="10"/>
</g>
<defs>
<clipPath id="clip0_109_2746">
<rect width="15" height="19" fill="white"/>
</clipPath>
</defs>
</svg>
