<svg width="15" height="19" viewBox="0 0 15 19" fill="none" xmlns="http://www.w3.org/2000/svg">
<g clip-path="url(#clip0_109_2780)">
<path d="M2.58183 13.7676H14.1981V18.0699H2.58183C2.29933 18.0699 2.0196 18.0143 1.75861 17.9062C1.49762 17.798 1.26048 17.6396 1.06073 17.4398C0.657304 17.0364 0.430664 16.4893 0.430664 15.9187C0.430664 15.3482 0.657304 14.8011 1.06073 14.3976C1.46415 13.9942 2.0113 13.7676 2.58183 13.7676Z" fill="#DDEBF0" stroke="#4E93B2" stroke-miterlimit="10"/>
<path d="M0.430664 3.01151C0.430664 2.44099 0.657304 1.89383 1.06073 1.49041C1.46415 1.08699 2.0113 0.860352 2.58183 0.860352H6.02369" fill="#DDEBF0"/>
<path d="M0.430664 3.01151C0.430664 2.44099 0.657304 1.89383 1.06073 1.49041C1.46415 1.08699 2.0113 0.860352 2.58183 0.860352H6.02369" stroke="#4E93B2" stroke-miterlimit="10"/>
<path d="M0.430664 16.3485V2.58105" stroke="#4E93B2" stroke-miterlimit="10"/>
<path d="M14.1973 13.7679V11.1865" stroke="#4E93B2" stroke-miterlimit="10"/>
<path d="M13.81 4.51758H7.27051V8.60479H13.81V4.51758Z" fill="#DDEBF0" stroke="#4E93B2" stroke-miterlimit="10"/>
<path d="M10.5403 0.430664C11.0811 0.430664 11.5998 0.645518 11.9823 1.02796C12.3647 1.41041 12.5796 1.92911 12.5796 2.46997V4.51787H8.50098V2.46997C8.50098 1.92911 8.71583 1.41041 9.09827 1.02796C9.48072 0.645518 9.99942 0.430664 10.5403 0.430664Z" stroke="#4E93B2" stroke-miterlimit="10"/>
</g>
<defs>
<clipPath id="clip0_109_2780">
<rect width="14.6279" height="18.5" fill="white"/>
</clipPath>
</defs>
</svg>
