<svg width="17" height="18" viewBox="0 0 17 18" fill="none" xmlns="http://www.w3.org/2000/svg">
<g clip-path="url(#clip0_109_2794)">
<path d="M5.13997 2.84473C3.74056 3.42626 2.5451 4.40987 1.7049 5.67106C0.864698 6.93226 0.417511 8.41435 0.419932 9.92979C0.422352 11.4452 0.874272 12.9259 1.7185 14.1844C2.56273 15.4429 3.76132 16.4227 5.16258 16.9997C6.56385 17.5768 8.10481 17.7252 9.59045 17.4262C11.0761 17.1271 12.4396 16.3941 13.5085 15.3199C14.5774 14.2456 15.3036 12.8784 15.5952 11.3913C15.8868 9.90418 15.7307 8.36399 15.1466 6.96562" stroke="#4E93B2" stroke-miterlimit="10"/>
<path d="M12.4993 7.89872C12.9068 8.74999 13.0585 9.70126 12.9359 10.6371C12.8132 11.5728 12.4216 12.4529 11.8085 13.1704C11.1954 13.888 10.3871 14.4121 9.48193 14.6792C8.57672 14.9463 7.61344 14.9448 6.70902 14.6751C5.8046 14.4053 4.99794 13.8788 4.38694 13.1595C3.77595 12.4402 3.3869 11.559 3.26702 10.6228C3.14715 9.68665 3.3016 8.73584 3.71163 7.88577C4.12166 7.0357 4.76964 6.32293 5.5769 5.83398" fill="#DDEBF0"/>
<path d="M12.4993 7.89872C12.9068 8.74999 13.0585 9.70126 12.9359 10.6371C12.8132 11.5728 12.4216 12.4529 11.8085 13.1704C11.1954 13.888 10.3871 14.4121 9.48193 14.6792C8.57672 14.9463 7.61344 14.9448 6.70902 14.6751C5.8046 14.4053 4.99794 13.8788 4.38694 13.1595C3.77595 12.4402 3.3869 11.559 3.26702 10.6228C3.14715 9.68665 3.3016 8.73584 3.71163 7.88577C4.12166 7.0357 4.76964 6.32293 5.5769 5.83398" stroke="#4E93B2" stroke-miterlimit="10"/>
<path d="M8.50781 6.78474L14.5392 3.74334L8.50781 0.693359V10.0403" fill="#DDEBF0"/>
<path d="M8.50781 6.78474L14.5392 3.74334L8.50781 0.693359V10.0403" stroke="#4E93B2" stroke-miterlimit="10"/>
</g>
<defs>
<clipPath id="clip0_109_2794">
<rect width="16.1666" height="18" fill="white"/>
</clipPath>
</defs>
</svg>
