<svg width="15" height="18" viewBox="0 0 15 18" fill="none" xmlns="http://www.w3.org/2000/svg">
<g clip-path="url(#clip0_109_2821)">
<path d="M0.428711 17.5716V2.143C0.428711 1.68834 0.609323 1.2523 0.930814 0.930814C1.2523 0.609323 1.68834 0.428711 2.143 0.428711H9.85728L14.143 4.71443V15.8573C14.143 16.3119 13.9624 16.748 13.6409 17.0695C13.3194 17.391 12.8834 17.5716 12.4287 17.5716H10.7144" fill="#DDEBF0"/>
<path d="M0.428711 17.5716V2.143C0.428711 1.68834 0.609323 1.2523 0.930814 0.930814C1.2523 0.609323 1.68834 0.428711 2.143 0.428711H9.85728L14.143 4.71442V15.8573C14.143 16.3119 13.9624 16.748 13.6409 17.0695C13.3194 17.391 12.8834 17.5716 12.4287 17.5716H10.7144" stroke="#4E93B2" stroke-miterlimit="10"/>
<path d="M9.85742 0.428711V4.71442H14.1431" stroke="#4E93B2" stroke-miterlimit="10"/>
<path d="M7.28557 17.5711C8.23235 17.5711 8.99986 16.8036 8.99986 15.8569C8.99986 14.9101 8.23235 14.1426 7.28557 14.1426C6.3388 14.1426 5.57129 14.9101 5.57129 15.8569C5.57129 16.8036 6.3388 17.5711 7.28557 17.5711Z" stroke="#4E93B2" stroke-miterlimit="10"/>
<path d="M7.28613 12.4287V14.143" stroke="#4E93B2" stroke-miterlimit="10"/>
<path d="M7.28613 7.92871V9.643" stroke="#4E93B2" stroke-miterlimit="10"/>
<path d="M7.28613 3.42871V5.143" stroke="#4E93B2" stroke-miterlimit="10"/>
</g>
<defs>
<clipPath id="clip0_109_2821">
<rect width="14.5714" height="18" fill="white"/>
</clipPath>
</defs>
</svg>
