<svg width="15" height="16" viewBox="0 0 15 16" fill="none" xmlns="http://www.w3.org/2000/svg">
<g clip-path="url(#clip0_109_2763)">
<path d="M0.408203 6H14.4002V14C14.4002 14.4243 14.2316 14.8313 13.9316 15.1314C13.6315 15.4314 13.2245 15.6 12.8002 15.6H2.0082C1.58386 15.6 1.17689 15.4314 0.876832 15.1314C0.576774 14.8313 0.408203 14.4243 0.408203 14V6Z" fill="#DDEBF0" stroke="#4E93B2" stroke-miterlimit="10"/>
<path d="M14.1118 6.00041C14.2478 6.00041 14.4718 5.85641 14.4078 5.73641L11.7598 0.504405C11.7446 0.472888 11.7207 0.446363 11.6909 0.427942C11.6612 0.409521 11.6268 0.399969 11.5918 0.400405H3.03179C2.99478 0.400124 2.95848 0.410546 2.92726 0.430416C2.89603 0.450287 2.87121 0.478759 2.85579 0.512405L0.407795 5.73641C0.351795 5.86441 0.559795 6.00041 0.695795 6.00041" stroke="#4E93B2" stroke-miterlimit="10"/>
<path d="M7.4082 0.400391V6.00039" stroke="#4E93B2" stroke-miterlimit="10"/>
</g>
<defs>
<clipPath id="clip0_109_2763">
<rect width="14.816" height="16" fill="white"/>
</clipPath>
</defs>
</svg>
