<svg width="18" height="19" viewBox="0 0 18 19" fill="none" xmlns="http://www.w3.org/2000/svg">
<path d="M5.9209 1.4209H2.9209C2.09247 1.4209 1.4209 2.17495 1.4209 3.10511V14.8946C1.4209 15.8247 2.09247 16.5788 2.9209 16.5788H5.9209C6.74933 16.5788 7.4209 15.8247 7.4209 14.8946V3.10511C7.4209 2.17495 6.74933 1.4209 5.9209 1.4209Z" fill="#DDEBF0" stroke="#4E93B2" stroke-miterlimit="10"/>
<path d="M14.8737 1.4209H11.9388C11.0924 1.4209 10.4062 2.17495 10.4062 3.10511V6.11985C10.4062 7.05001 11.0924 7.80406 11.9388 7.80406H14.8737C15.7201 7.80406 16.4062 7.05001 16.4062 6.11985V3.10511C16.4062 2.17495 15.7201 1.4209 14.8737 1.4209Z" fill="#DDEBF0" stroke="#4E93B2" stroke-miterlimit="10"/>
<path d="M14.8737 10.1953H11.9388C11.0924 10.1953 10.4062 10.9494 10.4062 11.8795V14.8943C10.4062 15.8244 11.0924 16.5785 11.9388 16.5785H14.8737C15.7201 16.5785 16.4062 15.8244 16.4062 14.8943V11.8795C16.4062 10.9494 15.7201 10.1953 14.8737 10.1953Z" fill="#DDEBF0" stroke="#4E93B2" stroke-miterlimit="10"/>
</svg>
