<svg width="17" height="18" viewBox="0 0 17 18" fill="none" xmlns="http://www.w3.org/2000/svg">
<g clip-path="url(#clip0_109_2741)">
<path d="M1.59082 9.3623H16.5835V15.9437C16.5835 16.38 16.408 16.7985 16.0956 17.1071C15.7831 17.4156 15.3594 17.589 14.9176 17.589H3.25667C2.81486 17.589 2.39114 17.4156 2.07874 17.1071C1.76633 16.7985 1.59082 16.38 1.59082 15.9437V9.3623Z" fill="#DDEBF0" stroke="#4E93B2" stroke-miterlimit="10"/>
<path d="M16.0002 4.36879L1.59062 9.3624L0.784118 6.74598C0.628743 6.24192 0.891599 5.70384 1.3847 5.51656L13.5753 0.886728C14.088 0.692003 14.6619 0.94658 14.8616 1.45736L16.0002 4.36879Z" fill="#DDEBF0" stroke="#4E93B2" stroke-miterlimit="10"/>
<path d="M5.17285 4.07227L6.67212 7.91413" stroke="#4E93B2" stroke-miterlimit="10"/>
<path d="M9.83691 2.30371L11.3362 6.14558" stroke="#4E93B2" stroke-miterlimit="10"/>
</g>
<defs>
<clipPath id="clip0_109_2741">
<rect width="17" height="18" fill="white"/>
</clipPath>
</defs>
</svg>
