<svg width="16" height="18" viewBox="0 0 16 18" fill="none" xmlns="http://www.w3.org/2000/svg">
<g clip-path="url(#clip0_109_2728)">
<path d="M2.2857 5.57157V2.143C2.2857 1.68834 2.46084 1.2523 2.77259 0.930814C3.08434 0.609323 3.50716 0.428711 3.94804 0.428711H11.4286L15.5844 4.71443V15.8573C15.5844 16.3119 15.4093 16.748 15.0975 17.0695C14.7858 17.391 14.3629 17.5716 13.9221 17.5716H1.87012" fill="#DDEBF0"/>
<path d="M2.2857 5.57157V2.143C2.2857 1.68834 2.46084 1.2523 2.77259 0.930814C3.08434 0.609323 3.50716 0.428711 3.94804 0.428711H11.4286L15.5844 4.71442V15.8573C15.5844 16.3119 15.4093 16.748 15.0975 17.0695C14.7858 17.391 14.3629 17.5716 13.9221 17.5716H1.87012" stroke="#4E93B2" stroke-miterlimit="10"/>
<path d="M11.4287 0.428711V4.71442H15.5846" stroke="#4E93B2" stroke-miterlimit="10"/>
<path d="M2.49316 7.92871V13.9287" stroke="#4E93B2" stroke-miterlimit="10"/>
<path d="M0 7.92871H4.98701" stroke="#4E93B2" stroke-miterlimit="10"/>
<path d="M1.31348 13.9287H3.674" stroke="#4E93B2" stroke-miterlimit="10"/>
</g>
<defs>
<clipPath id="clip0_109_2728">
<rect width="16" height="18" fill="white"/>
</clipPath>
</defs>
</svg>
